<mxfile host="app.diagrams.net" agent="Mozilla/5.0 (Macintosh; Intel Mac OS X 10_15_7) AppleWebKit/537.36 (KHTML, like Gecko) Chrome/135.0.0.0 Safari/537.36" version="26.2.12">
  <diagram name="Page-1" id="OVZ0RSnEroC0XT7LFq4a">
    <mxGraphModel dx="1189" dy="722" grid="1" gridSize="10" guides="1" tooltips="1" connect="1" arrows="1" fold="1" page="1" pageScale="1" pageWidth="1169" pageHeight="827" math="0" shadow="0">
      <root>
        <mxCell id="0" />
        <mxCell id="1" parent="0" />
        <mxCell id="boy779TEuCWVPhwvG-UE-1" value="" style="rounded=0;whiteSpace=wrap;html=1;fillColor=#f5f5f5;fontColor=#333333;strokeColor=#666666;dashed=1;strokeWidth=2;" vertex="1" parent="1">
          <mxGeometry x="520" y="178.5" width="460" height="341.5" as="geometry" />
        </mxCell>
        <mxCell id="boy779TEuCWVPhwvG-UE-2" value="" style="rounded=0;whiteSpace=wrap;html=1;fillColor=#f5f5f5;fontColor=#333333;strokeColor=#666666;dashed=1;strokeWidth=2;" vertex="1" parent="1">
          <mxGeometry x="180" y="260" width="240" height="160" as="geometry" />
        </mxCell>
        <mxCell id="boy779TEuCWVPhwvG-UE-10" style="edgeStyle=orthogonalEdgeStyle;rounded=0;orthogonalLoop=1;jettySize=auto;html=1;entryX=0;entryY=0.5;entryDx=0;entryDy=0;startArrow=classic;startFill=1;flowAnimation=1;" edge="1" parent="1" source="boy779TEuCWVPhwvG-UE-3" target="boy779TEuCWVPhwvG-UE-4">
          <mxGeometry relative="1" as="geometry" />
        </mxCell>
        <mxCell id="boy779TEuCWVPhwvG-UE-3" value="PydanticAI&#xa;Agent" style="shape=image;verticalLabelPosition=bottom;labelBackgroundColor=none;verticalAlign=top;aspect=fixed;imageAspect=0;editableCssRules=.*;image=data:image/svg+xml,PHN2ZyB4bWxuczp4bGluaz0iaHR0cDovL3d3dy53My5vcmcvMTk5OS94bGluayIgeG1sbnM9Imh0dHA6Ly93d3cudzMub3JnLzIwMDAvc3ZnIiBoZWlnaHQ9IjQ5Ny4wMDYzNzgxNzM4MjgxIiB3aWR0aD0iNDkyLjcyODAyNzM0Mzc1IiB4bWw6c3BhY2U9InByZXNlcnZlIiBzdHlsZT0iZW5hYmxlLWJhY2tncm91bmQ6bmV3IDAgMCA1MTIgNTEyOyIgdmlld0JveD0iOS42MzU5OTk2Nzk1NjU0MyA3LjQ5Nzk5OTE5MTI4NDE4IDQ5Mi43MjgwMjczNDM3NSA0OTcuMDA2Mzc4MTczODI4MSIgeT0iMHB4IiB4PSIwcHgiIGlkPSJDYXBhXzEiIHZlcnNpb249IjEuMSI+JiN4YTs8Zz4mI3hhOwk8Zz4mI3hhOwkJPHBhdGggZD0iTTUwMi4zNjQsMjkwLjMxMmMwLTIyLjgxOS0xMC4xNDYtNDMuMjU2LTI2LjE2LTU3LjA4M2MtMS41ODgtMS4zNzEtMS45MDQtMy43My0wLjY0NS01LjQwOSYjMTA7JiM5OyYjOTsmIzk7YzguMDE3LTEwLjY5LDEyLjc3NC0yMy45NjQsMTIuNzc0LTM4LjM1NWMwLTMyLjIzNy0yMy44MzItNTguODk0LTU0LjgzNy02My4zNDZjLTIuNDY2LTAuMzU0LTMuOTk4LTIuODUxLTMuMjEtNS4yMTQmIzEwOyYjOTsmIzk7JiM5O2MyLjI4NC02Ljg1LDMuMzc4LTE0LjI0MywzLjAzLTIxLjkzOGMtMS4zODItMzAuNDc3LTI1LjY5OC01NS40MjQtNTYuMTMyLTU3LjU1MWMtOC42ODItMC42MDctMTYuOTk4LDAuNjM3LTI0LjYxNSwzLjM1NiYjMTA7JiM5OyYjOTsmIzk7Yy0yLjIyNiwwLjc5NS00LjYxOS0wLjUzOS01LjE5Ni0yLjgzMWMtNC45NjktMTkuNzQ4LTIyLjgxMy0zNC4zNzktNDQuMDg5LTM0LjQzN2MtMjUuMTUzLTAuMDY5LTQ1LjcyOCwyMS4yNzYtNDUuNzI4LDQ2LjQyOSYjMTA7JiM5OyYjOTsmIzk7djM4Ny41MDVjMCwzNC4zMDEsMjguMDYxLDYzLjE3OSw2Mi4zNjEsNjMuMDY2YzI1LjEyNy0wLjA4Myw0Ni43MzEtMTUuMDgyLDU2LjQ1LTM2LjYwMmMwLjg1MS0xLjg4NSwyLjk1Ni0yLjgxMyw0LjkyNi0yLjE4NiYjMTA7JiM5OyYjOTsmIzk7YzUuOTE5LDEuODgzLDEyLjIyLDIuOTA4LDE4Ljc2NCwyLjkwOGMzNC4yMjUsMCw2MS45Ny0yNy43NDUsNjEuOTctNjEuOTdjMC0xNC41NDktMTMuNDIyLTMyLjExLTIzLjk5OS00My43NjkmIzEwOyYjOTsmIzk7JiM5O2MtMS45NzMtMi4xNzUtMC45ODktNS42NTUsMS44MjQtNi41QzQ3MS4wMzQsMzQ3LjAxMiw1MDIuMzY0LDMyMy42Miw1MDIuMzY0LDI5MC4zMTJ6IiBzdHlsZT0iZmlsbDojRkU5OUEwOyIvPiYjeGE7CQk8cGF0aCBkPSJNNDM4LjAyNCwzNjMuOTM5YzEwLjU4LDExLjY2LDI0LDI5LjIyLDI0LDQzLjc3YzAsMzQuMjMtMjcuNzQsNjEuOTctNjEuOTcsNjEuOTcmIzEwOyYjOTsmIzk7JiM5O2MtNC4yNywwLTguNDUtMC40NC0xMi40Ny0xLjI3YzI4LjIyLTUuNzksNDkuNDQtMzAuNzYsNDkuNDQtNjAuN2MwLTE0LjU1LTEzLjQyLTMyLjExLTI0LTQzLjc3Yy0xLjk3LTIuMTctMC45OS01LjY1LDEuODMtNi41JiMxMDsmIzk7JiM5OyYjOTtjMzEuMTgtOS4zNyw2Mi41MS0zMi43Niw2Mi41MS02Ni4wN2MwLTIyLjgyLTEwLjE1LTQzLjI1LTI2LjE2LTU3LjA4Yy0xLjU5LTEuMzctMS45LTMuNzMtMC42NS01LjQxJiMxMDsmIzk7JiM5OyYjOTtjOC4wMi0xMC42OSwxMi43OC0yMy45NiwxMi43OC0zOC4zNWMwLTMyLjI0LTIzLjgzLTU4LjktNTQuODQtNjMuMzVjLTIuNDYtMC4zNS00LTIuODUtMy4yMS01LjIxJiMxMDsmIzk7JiM5OyYjOTtjMi4yOS02Ljg1LDMuMzgtMTQuMjUsMy4wMy0yMS45NGMtMS4yNS0yNy42OC0yMS40My01MC44LTQ3LjkyLTU2LjRjNS4zNy0xLjE0LDExLTEuNTYsMTYuNzktMS4xNSYjMTA7JiM5OyYjOTsmIzk7YzMwLjQzLDIuMTIsNTQuNzUsMjcuMDcsNTYuMTMsNTcuNTVjMC4zNSw3LjY5LTAuNzQsMTUuMDktMy4wMywyMS45NGMtMC43OSwyLjM2LDAuNzUsNC44NiwzLjIxLDUuMjEmIzEwOyYjOTsmIzk7JiM5O2MzMS4wMSw0LjQ1LDU0Ljg0LDMxLjExLDU0Ljg0LDYzLjM1YzAsMTQuMzktNC43NiwyNy42Ni0xMi43OCwzOC4zNWMtMS4yNSwxLjY4LTAuOTQsNC4wNCwwLjY1LDUuNDEmIzEwOyYjOTsmIzk7JiM5O2MxNi4wMSwxMy44MywyNi4xNiwzNC4yNiwyNi4xNiw1Ny4wOGMwLDMzLjMxLTMxLjMzLDU2LjctNjIuNTEsNjYuMDdDNDM3LjAzNCwzNTguMjg5LDQzNi4wNTQsMzYxLjc2OSw0MzguMDI0LDM2My45Mzl6IiBzdHlsZT0iZmlsbDojRkQ4MDg3OyIvPiYjeGE7CQk8cGF0aCBkPSJNMTIuNzQ1LDI5MC4zMTJjMC0yNC4yMTEsMTEuNDIyLTQ1Ljc0MiwyOS4xNTctNTkuNTRjLTkuNDMtMTEuMTUtMTUuMTI2LTI1LjU2LTE1LjEyNi00MS4zMDYmIzEwOyYjOTsmIzk7JiM5O2MwLTMzLjk0OCwyNi40My02MS43MDksNTkuODM0LTYzLjg2NWMtMy4xMzctNy4zMTMtNC44NzktMTUuMzY2LTQuODc5LTIzLjgyOGMwLTMzLjQxOCwyNy4wOS02MC41MDgsNjAuNTA4LTYwLjUwOCYjMTA7JiM5OyYjOTsmIzk7YzguNzYyLDAsMTcuMDgxLDEuODc3LDI0LjU5OCw1LjIyOGMzLjIwMy0yMi4wNSwyMi4xNzktMzguOTksNDUuMTE3LTM4Ljk5YzI1LjE4NCwwLDQ1LjYsMjAuNDE2LDQ1LjYsNDUuNnMwLDM1NC45MjEsMCwzODkuMjQ3JiMxMDsmIzk7JiM5OyYjOTtjMCwzNC4zMjYtMjcuODI2LDYyLjE1Mi02Mi4xNTIsNjIuMTUyYy0yNi41MjcsMC00OS4xNi0xNi42MjYtNTguMDgxLTQwLjAyYy02LjkxMywyLjY2NC0xNC40MTYsNC4xMzktMjIuMjY4LDQuMTM5JiMxMDsmIzk7JiM5OyYjOTtjLTM0LjIyNSwwLTYxLjk3LTI3Ljc0NS02MS45Ny02MS45N2MwLTE2LjcxOSwxNy43MjQtMzcuNDE1LDI4LjQ4Ny00OC41NjJDNDguNDU0LDM1MC4xMywxMi43NDUsMzI1Ljg3MSwxMi43NDUsMjkwLjMxMnoiIHN0eWxlPSJmaWxsOiM5OUU2RkM7Ii8+JiN4YTsJCTxwYXRoIGQ9Ik0yNTcuNTU5LDUzLjA5OHYzODkuMjVjMCwzNC4zMy0yNy44Myw2Mi4xNS02Mi4xNiw2Mi4xNWMtNC4yNywwLTguNDUtMC40My0xMi40OC0xLjI2JiMxMDsmIzk7JiM5OyYjOTtjMjguMzMtNS44LDQ5LjY0LTMwLjg1LDQ5LjY0LTYwLjg5VjUzLjA5OGMwLTIwLjg0LTEzLjk5LTM4LjQzLTMzLjEtNDMuODZjMy45Ny0xLjEzLDguMTctMS43NCwxMi41LTEuNzQmIzEwOyYjOTsmIzk7JiM5O0MyMzcuMTM4LDcuNDk4LDI1Ny41NTksMjcuOTE4LDI1Ny41NTksNTMuMDk4eiIgc3R5bGU9ImZpbGw6IzYyREJGQjsiLz4mI3hhOwkJPGNpcmNsZSByPSIzMS45ODkiIGN5PSI0NjkuMjUyIiBjeD0iMTM2Ljg4MSIgc3R5bGU9ImZpbGw6IzZGRDdBMzsiLz4mI3hhOwkJPHBhdGggZD0iTTE2OC44Nyw0NjkuMjUxYzAsMTcuNjctMTQuMzIsMzEuOTktMzEuOTksMzEuOTljLTMuNjgsMC03LjIxLTAuNjItMTAuNS0xLjc2JiMxMDsmIzk7JiM5OyYjOTtjMTIuNTEtNC4zNSwyMS40OS0xNi4yNCwyMS40OS0zMC4yM2MwLTEzLjk4LTguOTgtMjUuODctMjEuNDktMzAuMjJjMy4yOS0xLjE0LDYuODItMS43NiwxMC41LTEuNzYmIzEwOyYjOTsmIzk7JiM5O0MxNTQuNTUsNDM3LjI3MSwxNjguODcsNDUxLjU5MSwxNjguODcsNDY5LjI1MXoiIHN0eWxlPSJmaWxsOiMzRUMzQTQ7Ii8+JiN4YTsJCTxjaXJjbGUgcj0iMTAzLjQxNiIgY3k9IjI1Ni4wMDIiIGN4PSIyNTcuNTU1IiBzdHlsZT0iZmlsbDojRjJGQkZGOyIvPiYjeGE7CQk8cGF0aCBkPSJNMzYwLjk2OCwyNTUuOTk4YzAsNTcuMTItNDYuMywxMDMuNDItMTAzLjQxLDEwMy40MmMtNC4yMywwLTguNC0wLjI1LTEyLjUtMC43NSYjMTA7JiM5OyYjOTsmIzk7YzUxLjIyLTYuMTcsOTAuOTEtNDkuNzgsOTAuOTEtMTAyLjY3YzAtNTIuODgtMzkuNjktOTYuNDktOTAuOTEtMTAyLjY2YzQuMS0wLjUsOC4yNy0wLjc1LDEyLjUtMC43NSYjMTA7JiM5OyYjOTsmIzk7QzMxNC42NjksMTUyLjU4OCwzNjAuOTY4LDE5OC44ODgsMzYwLjk2OCwyNTUuOTk4eiIgc3R5bGU9ImZpbGw6I0RGRjZGRDsiLz4mI3hhOwkJPGNpcmNsZSByPSIzMS45ODkiIGN5PSIzNjEuNjExIiBjeD0iNjQuNjQyIiBzdHlsZT0iZmlsbDojNkZEN0EzOyIvPiYjeGE7CQk8cGF0aCBkPSJNOTYuNjMxLDM2MS42MWMwLDE3LjY3LTE0LjMyLDMxLjk5LTMxLjk5LDMxLjk5Yy0zLjY4LDAtNy4yMS0wLjYyLTEwLjUtMS43NiYjMTA7JiM5OyYjOTsmIzk7YzEyLjUxLTQuMzUsMjEuNDktMTYuMjQsMjEuNDktMzAuMjNjMC0xMy45OC04Ljk4LTI1Ljg3LTIxLjQ5LTMwLjIyYzMuMjktMS4xNCw2LjgyLTEuNzYsMTAuNS0xLjc2JiMxMDsmIzk7JiM5OyYjOTtDODIuMzExLDMyOS42Myw5Ni42MzEsMzQzLjk1LDk2LjYzMSwzNjEuNjF6IiBzdHlsZT0iZmlsbDojM0VDM0E0OyIvPiYjeGE7CQk8Y2lyY2xlIHI9IjMxLjk4OSIgY3k9IjIyOS45IiBjeD0iNDEuNjI1IiBzdHlsZT0iZmlsbDojNkZEN0EzOyIvPiYjeGE7CQk8cGF0aCBkPSJNNzMuNjE1LDIyOS45YzAsMTcuNjctMTQuMzIsMzEuOTktMzEuOTksMzEuOTljLTMuNjgsMC03LjIxLTAuNjItMTAuNS0xLjc2JiMxMDsmIzk7JiM5OyYjOTtjMTIuNTEtNC4zNSwyMS40OS0xNi4yNCwyMS40OS0zMC4yM2MwLTEzLjk4LTguOTgtMjUuODctMjEuNDktMzAuMjJjMy4yOS0xLjE0LDYuODItMS43NiwxMC41LTEuNzYmIzEwOyYjOTsmIzk7JiM5O0M1OS4yOTUsMTk3LjkyLDczLjYxNSwyMTIuMjQsNzMuNjE1LDIyOS45eiIgc3R5bGU9ImZpbGw6IzNFQzNBNDsiLz4mI3hhOwkJPGNpcmNsZSByPSIzMS45ODkiIGN5PSIxMTUuNjExIiBjeD0iNzkuOTQxIiBzdHlsZT0iZmlsbDojNkZEN0EzOyIvPiYjeGE7CQk8cGF0aCBkPSJNMTExLjkzLDExNS42MWMwLDE3LjY3LTE0LjMyLDMxLjk5LTMxLjk5LDMxLjk5Yy0zLjY4LDAtNy4yMS0wLjYyLTEwLjUtMS43NiYjMTA7JiM5OyYjOTsmIzk7YzEyLjUxLTQuMzUsMjEuNDktMTYuMjQsMjEuNDktMzAuMjNjMC0xMy45OC04Ljk4LTI1Ljg3LTIxLjQ5LTMwLjIyYzMuMjktMS4xNCw2LjgyLTEuNzYsMTAuNS0xLjc2JiMxMDsmIzk7JiM5OyYjOTtDOTcuNjEsODMuNjMsMTExLjkzLDk3Ljk1LDExMS45MywxMTUuNjF6IiBzdHlsZT0iZmlsbDojM0VDM0E0OyIvPiYjeGE7CQk8Y2lyY2xlIHI9IjMxLjk4OSIgY3k9IjQ0LjEzMyIgY3g9IjE2NS4yOTciIHN0eWxlPSJmaWxsOiM2RkQ3QTM7Ii8+JiN4YTsJCTxwYXRoIGQ9Ik0xOTcuMjg5LDQ0LjEyOGMwLDE3LjY3LTE0LjMyLDMxLjk5LTMxLjk5LDMxLjk5Yy0zLjY4LDAtNy4yMS0wLjYyLTEwLjUtMS43NiYjMTA7JiM5OyYjOTsmIzk7YzEyLjUxLTQuMzUsMjEuNDktMTYuMjQsMjEuNDktMzAuMjNjMC0xMy45OC04Ljk4LTI1Ljg3LTIxLjQ5LTMwLjIyYzMuMjktMS4xNCw2LjgyLTEuNzYsMTAuNS0xLjc2JiMxMDsmIzk7JiM5OyYjOTtDMTgyLjk2OCwxMi4xNDgsMTk3LjI4OSwyNi40NjgsMTk3LjI4OSw0NC4xMjh6IiBzdHlsZT0iZmlsbDojM0VDM0E0OyIvPiYjeGE7CTwvZz4mI3hhOwk8Zz4mI3hhOwkJPHBhdGggZD0iTTI1Ny41NTIsMTUyLjU4VjUzLjkzYzAtMjUuMTYsMjAuNTgtNDYuNSw0NS43My00Ni40M2MyMS4yOCwwLjA2LDM5LjEyLDE0LjY5LDQ0LjA5LDM0LjQzYzAuNTgsMi4zLDIuOTcsMy42Myw1LjIsMi44NCYjMTA7JiM5OyYjOTsmIzk7YzcuNjEtMi43MiwxNS45My0zLjk3LDI0LjYxLTMuMzZjMzAuNDQsMi4xMyw1NC43NSwyNy4wNyw1Ni4xMyw1Ny41NWMwLjM1LDcuNy0wLjc0LDE1LjA5LTMuMDIsMjEuOTQmIzEwOyYjOTsmIzk7JiM5O2MtMC43OSwyLjM2LDAuNzQsNC44NiwzLjIxLDUuMjFjMzEsNC40Niw1NC44MywzMS4xMSw1NC44Myw2My4zNWMwLDE0LjM5LTQuNzUsMjcuNjYtMTIuNzcsMzguMzVjLTEuMjYsMS42OC0wLjk0LDQuMDQsMC42NCw1LjQxJiMxMDsmIzk7JiM5OyYjOTtjMTYuMDIsMTMuODMsMjYuMTYsMzQuMjcsMjYuMTYsNTcuMDljMCw5LjM2LTIuNDgsMTcuOTQtNi43MiwyNS42NCIgc3R5bGU9ImZpbGw6bm9uZTtzdHJva2U6IzAwMDAwMDtzdHJva2Utd2lkdGg6MTU7c3Ryb2tlLWxpbmVjYXA6cm91bmQ7c3Ryb2tlLWxpbmVqb2luOnJvdW5kO3N0cm9rZS1taXRlcmxpbWl0OjEwOyIvPiYjeGE7CQk8cGF0aCBkPSJNMjU3LjU1MiwzNTkuNDF2ODIuMDJjMCwzNC4zLDI4LjA2LDYzLjE4LDYyLjM3LDYzLjA3YzI1LjEyLTAuMDksNDYuNzMtMTUuMDksNTYuNDUtMzYuNjFjMC44NS0xLjg4LDIuOTUtMi44MSw0LjkyLTIuMTgmIzEwOyYjOTsmIzk7JiM5O2M1LjkyLDEuODgsMTIuMjIsMi45MSwxOC43NywyLjkxYzM0LjIyLDAsNjEuOTYtMjcuNzUsNjEuOTYtNjEuOTdjMC0xNC41NS0xMy40Mi0zMi4xMS0yMy45OS00My43NyYjMTA7JiM5OyYjOTsmIzk7Yy0xLjk4LTIuMTgtMC45OS01LjY2LDEuODItNi41YzExLjAxLTMuMzEsMjIuMDUtOC4zNywzMS43MS0xNS4wMSIgc3R5bGU9ImZpbGw6bm9uZTtzdHJva2U6IzAwMDAwMDtzdHJva2Utd2lkdGg6MTU7c3Ryb2tlLWxpbmVjYXA6cm91bmQ7c3Ryb2tlLWxpbmVqb2luOnJvdW5kO3N0cm9rZS1taXRlcmxpbWl0OjEwOyIvPiYjeGE7CQk8cGF0aCBkPSJNMzU2Ljk1MiwyODQuNjRjMTIuNDgsMC45LDM5LjIsNC40Niw0NC4xOCwxOC40OCIgc3R5bGU9ImZpbGw6bm9uZTtzdHJva2U6IzAwMDAwMDtzdHJva2Utd2lkdGg6MTU7c3Ryb2tlLWxpbmVjYXA6cm91bmQ7c3Ryb2tlLWxpbmVqb2luOnJvdW5kO3N0cm9rZS1taXRlcmxpbWl0OjEwOyIvPiYjeGE7CQk8cGF0aCBkPSJNMTgzLjI3MiwxNy42NmM3LjgzLTYuMzYsMTcuODEtMTAuMTYsMjguNjgtMTAuMTZjMjUuMTksMCw0NS42LDIwLjQxLDQ1LjYsNDUuNmMwLDguMTMsMCw0OC4wMywwLDk5LjQ4IiBzdHlsZT0iZmlsbDpub25lO3N0cm9rZTojMDAwMDAwO3N0cm9rZS13aWR0aDoxNTtzdHJva2UtbGluZWNhcDpyb3VuZDtzdHJva2UtbGluZWpvaW46cm91bmQ7c3Ryb2tlLW1pdGVybGltaXQ6MTA7Ii8+JiN4YTsJCTxwYXRoIGQ9Ik04NC40MTIsODMuOTNjNi43Ny0yMS45OCwyNS43My0zOC42Miw0OC45OC00Mi4wMiIgc3R5bGU9ImZpbGw6bm9uZTtzdHJva2U6IzAwMDAwMDtzdHJva2Utd2lkdGg6MTU7c3Ryb2tlLWxpbmVjYXA6cm91bmQ7c3Ryb2tlLWxpbmVqb2luOnJvdW5kO3N0cm9rZS1taXRlcmxpbWl0OjEwOyIvPiYjeGE7CQk8cGF0aCBkPSJNMjcuODMyLDIwMS4wM2MtMC42OS0zLjc1LTEuMDUtNy42Mi0xLjA1LTExLjU3YzAtMjIuMjcsMTEuMzctNDEuODcsMjguNjItNTMuMzQiIHN0eWxlPSJmaWxsOm5vbmU7c3Ryb2tlOiMwMDAwMDA7c3Ryb2tlLXdpZHRoOjE1O3N0cm9rZS1saW5lY2FwOnJvdW5kO3N0cm9rZS1saW5lam9pbjpyb3VuZDtzdHJva2UtbWl0ZXJsaW1pdDoxMDsiLz4mI3hhOwkJPHBhdGggZD0iTTIxLjYxMiwyNTQuODRjLTUuNjYsMTAuNTctOC44NywyMi42NC04Ljg3LDM1LjQ3YzAsMjAuNiwxMS45OSwzNy40MSwyOC41Miw0OS40NiIgc3R5bGU9ImZpbGw6bm9uZTtzdHJva2U6IzAwMDAwMDtzdHJva2Utd2lkdGg6MTU7c3Ryb2tlLWxpbmVjYXA6cm91bmQ7c3Ryb2tlLWxpbmVqb2luOnJvdW5kO3N0cm9rZS1taXRlcmxpbWl0OjEwOyIvPiYjeGE7CQk8cGF0aCBkPSJNNTYuNDYyLDM5Mi41M2MtMi4wOSw0LjgyLTMuMzgsOS42MS0zLjM4LDE0LjEyYzAsMzAuNzcsMjIuNDQsNTYuMzEsNTEuODQsNjEuMTQiIHN0eWxlPSJmaWxsOm5vbmU7c3Ryb2tlOiMwMDAwMDA7c3Ryb2tlLXdpZHRoOjE1O3N0cm9rZS1saW5lY2FwOnJvdW5kO3N0cm9rZS1saW5lam9pbjpyb3VuZDtzdHJva2UtbWl0ZXJsaW1pdDoxMDsiLz4mI3hhOwkJPHBhdGggZD0iTTE1OC43ODIsNDkyLjU2YzkuMTQsNi42OSwyMC4xOCwxMC45MywzMi4xNiwxMS43NyIgc3R5bGU9ImZpbGw6bm9uZTtzdHJva2U6IzAwMDAwMDtzdHJva2Utd2lkdGg6MTU7c3Ryb2tlLWxpbmVjYXA6cm91bmQ7c3Ryb2tlLWxpbmVqb2luOnJvdW5kO3N0cm9rZS1taXRlcmxpbWl0OjEwOyIvPiYjeGE7CQk8cGF0aCBkPSJNMjU3LjU1MiwzNTkuNDFjMCw0MS42OCwwLDczLjQ5LDAsODIuOTNjMCwyMy41My0xMy4wNyw0NC4wMS0zMi4zNiw1NC41NiIgc3R5bGU9ImZpbGw6bm9uZTtzdHJva2U6IzAwMDAwMDtzdHJva2Utd2lkdGg6MTU7c3Ryb2tlLWxpbmVjYXA6cm91bmQ7c3Ryb2tlLWxpbmVqb2luOnJvdW5kO3N0cm9rZS1taXRlcmxpbWl0OjEwOyIvPiYjeGE7CQk8cGF0aCBkPSJNMzcyLjQ3MiwxODAuNTZjMC4xNiwxNy4yMi0xNS45NiwxOS44Ni0yNy45NiwxOS40NCIgc3R5bGU9ImZpbGw6bm9uZTtzdHJva2U6IzAwMDAwMDtzdHJva2Utd2lkdGg6MTU7c3Ryb2tlLWxpbmVjYXA6cm91bmQ7c3Ryb2tlLWxpbmVqb2luOnJvdW5kO3N0cm9rZS1taXRlcmxpbWl0OjEwOyIvPiYjeGE7CQkmI3hhOwkJCTxjaXJjbGUgcj0iMzEuOTg5IiBjeT0iNDY5LjI0NyIgY3g9IjEzNi44ODMiIHN0eWxlPSJmaWxsOm5vbmU7c3Ryb2tlOiMwMDAwMDA7c3Ryb2tlLXdpZHRoOjE1O3N0cm9rZS1saW5lY2FwOnJvdW5kO3N0cm9rZS1saW5lam9pbjpyb3VuZDtzdHJva2UtbWl0ZXJsaW1pdDoxMDsiLz4mI3hhOwkJJiN4YTsJCQk8bGluZSB5Mj0iMTM1LjA5IiB4Mj0iMTA1LjMxMiIgeTE9IjE5MC41NCIgeDE9IjE3Ny41MDIiIHN0eWxlPSJmaWxsOm5vbmU7c3Ryb2tlOiMwMDAwMDA7c3Ryb2tlLXdpZHRoOjE1O3N0cm9rZS1saW5lY2FwOnJvdW5kO3N0cm9rZS1saW5lam9pbjpyb3VuZDtzdHJva2UtbWl0ZXJsaW1pdDoxMDsiLz4mI3hhOwkJJiN4YTsJCQk8bGluZSB5Mj0iMzQ2LjkzIiB4Mj0iOTMuMDcyIiB5MT0iMzA4LjEyIiB4MT0iMTY4LjIzMiIgc3R5bGU9ImZpbGw6bm9uZTtzdHJva2U6IzAwMDAwMDtzdHJva2Utd2lkdGg6MTU7c3Ryb2tlLWxpbmVjYXA6cm91bmQ7c3Ryb2tlLWxpbmVqb2luOnJvdW5kO3N0cm9rZS1taXRlcmxpbWl0OjEwOyIvPiYjeGE7CQkmI3hhOwkJCTxsaW5lIHkyPSIyMzQuMjEiIHgyPSI3My4zMjIiIHkxPSIyNDUuMjkiIHgxPSIxNTQuNjkyIiBzdHlsZT0iZmlsbDpub25lO3N0cm9rZTojMDAwMDAwO3N0cm9rZS13aWR0aDoxNTtzdHJva2UtbGluZWNhcDpyb3VuZDtzdHJva2UtbGluZWpvaW46cm91bmQ7c3Ryb2tlLW1pdGVybGltaXQ6MTA7Ii8+JiN4YTsJCTxwYXRoIGQ9Ik0yOTUuMDgyLDE1OS42YzguNzQtMTIuODIsMjUuMDgtMjcuMjEsNTQuMy0yNi43OCIgc3R5bGU9ImZpbGw6bm9uZTtzdHJva2U6IzAwMDAwMDtzdHJva2Utd2lkdGg6MTU7c3Ryb2tlLWxpbmVjYXA6cm91bmQ7c3Ryb2tlLWxpbmVqb2luOnJvdW5kO3N0cm9rZS1taXRlcmxpbWl0OjEwOyIvPiYjeGE7CQkmI3hhOwkJCTxsaW5lIHkyPSI0NDEuNyIgeDI9IjE1My4xNDIiIHkxPSIzNTAuODIiIHgxPSIyMTYuMjQyIiBzdHlsZT0iZmlsbDpub25lO3N0cm9rZTojMDAwMDAwO3N0cm9rZS13aWR0aDoxNTtzdHJva2UtbGluZWNhcDpyb3VuZDtzdHJva2UtbGluZWpvaW46cm91bmQ7c3Ryb2tlLW1pdGVybGltaXQ6MTA7Ii8+JiN4YTsJCSYjeGE7CQkJPGxpbmUgeTI9IjcyLjg2IiB4Mj0iMTc5LjM4MiIgeTE9IjE1OS4wMSIgeDE9IjIyMS41ODIiIHN0eWxlPSJmaWxsOm5vbmU7c3Ryb2tlOiMwMDAwMDA7c3Ryb2tlLXdpZHRoOjE1O3N0cm9rZS1saW5lY2FwOnJvdW5kO3N0cm9rZS1saW5lam9pbjpyb3VuZDtzdHJva2UtbWl0ZXJsaW1pdDoxMDsiLz4mI3hhOwkJJiN4YTsJCQk8Y2lyY2xlIHI9IjEwMy40MTYiIGN5PSIyNTUuOTk3IiBjeD0iMjU3LjU1NiIgc3R5bGU9ImZpbGw6bm9uZTtzdHJva2U6IzAwMDAwMDtzdHJva2Utd2lkdGg6MTU7c3Ryb2tlLWxpbmVjYXA6cm91bmQ7c3Ryb2tlLWxpbmVqb2luOnJvdW5kO3N0cm9rZS1taXRlcmxpbWl0OjEwOyIvPiYjeGE7CQk8cGF0aCBkPSJNMjU3LjU1NiwzOTUuNTYyYzAsMCw0NC4yMTcsMjkuNzM5LDczLjk1NywwIiBzdHlsZT0iZmlsbDpub25lO3N0cm9rZTojMDAwMDAwO3N0cm9rZS13aWR0aDoxNTtzdHJva2UtbGluZWNhcDpyb3VuZDtzdHJva2UtbGluZWpvaW46cm91bmQ7c3Ryb2tlLW1pdGVybGltaXQ6MTA7Ii8+JiN4YTsJCTxwYXRoIGQ9Ik00MDIuODEyLDE5Ni42OTFjMCwwLDIzLjc0OSwxMi44MzksMC43NzYsNDQuMTY3IiBzdHlsZT0iZmlsbDpub25lO3N0cm9rZTojMDAwMDAwO3N0cm9rZS13aWR0aDoxNTtzdHJva2UtbGluZWNhcDpyb3VuZDtzdHJva2UtbGluZWpvaW46cm91bmQ7c3Ryb2tlLW1pdGVybGltaXQ6MTA7Ii8+JiN4YTsJCTxwYXRoIGQ9Ik0zMDUuNzg2LDQwOC4zNDdjMy4xNywxNC40MiwxMy4zNiwzNS4zLDQ2LjA3LDMwLjc4IiBzdHlsZT0iZmlsbDpub25lO3N0cm9rZTojMDAwMDAwO3N0cm9rZS13aWR0aDoxNTtzdHJva2UtbGluZWNhcDpyb3VuZDtzdHJva2UtbGluZWpvaW46cm91bmQ7c3Ryb2tlLW1pdGVybGltaXQ6MTA7Ii8+JiN4YTsJCTxwYXRoIGQ9Ik0zODQuODI4LDM0MC4wMTljMCwwLTI2LjYwOSwxNC45MTgtOC4zNDgsNDguOTM3IiBzdHlsZT0iZmlsbDpub25lO3N0cm9rZTojMDAwMDAwO3N0cm9rZS13aWR0aDoxNTtzdHJva2UtbGluZWNhcDpyb3VuZDtzdHJva2UtbGluZWpvaW46cm91bmQ7c3Ryb2tlLW1pdGVybGltaXQ6MTA7Ii8+JiN4YTsJCTxwYXRoIGQ9Ik00MzMuOTQ2LDE5My4zODdjNC42NCwxNi43OC0xMS42NSwyMi44Ni0yMC40NiwyNC44OSIgc3R5bGU9ImZpbGw6bm9uZTtzdHJva2U6IzAwMDAwMDtzdHJva2Utd2lkdGg6MTU7c3Ryb2tlLWxpbmVjYXA6cm91bmQ7c3Ryb2tlLWxpbmVqb2luOnJvdW5kO3N0cm9rZS1taXRlcmxpbWl0OjEwOyIvPiYjeGE7CQk8Zz4mI3hhOwkJCTxwYXRoIGQ9Ik0yMDUuNDM0LDI5Ny45MjhsMzEuMDMxLTgxLjQ3NWMwLjYzNC0xLjU1LDIuODI5LTEuNTUyLDMuNDY2LTAuMDA0bDMwLjc0OSw4MS40NzkiIHN0eWxlPSJmaWxsOm5vbmU7c3Ryb2tlOiMwMDAwMDA7c3Ryb2tlLXdpZHRoOjE1O3N0cm9rZS1saW5lY2FwOnJvdW5kO3N0cm9rZS1saW5lam9pbjpyb3VuZDtzdHJva2UtbWl0ZXJsaW1pdDoxMDsiLz4mI3hhOwkJCSYjeGE7CQkJCTxsaW5lIHkyPSIyNzcuNjM2IiB4Mj0iMjYxLjE1OCIgeTE9IjI3Ny42MzYiIHgxPSIyMTUuMTExIiBzdHlsZT0iZmlsbDpub25lO3N0cm9rZTojMDAwMDAwO3N0cm9rZS13aWR0aDoxNTtzdHJva2UtbGluZWNhcDpyb3VuZDtzdHJva2UtbGluZWpvaW46cm91bmQ7c3Ryb2tlLW1pdGVybGltaXQ6MTA7Ii8+JiN4YTsJCTwvZz4mI3hhOwkJPGc+JiN4YTsJCQkmI3hhOwkJCQk8bGluZSB5Mj0iMjk2LjcwNiIgeDI9IjI5Ny42NzkiIHkxPSIyMTQuMDY3IiB4MT0iMjk3LjY3OSIgc3R5bGU9ImZpbGw6bm9uZTtzdHJva2U6IzAwMDAwMDtzdHJva2Utd2lkdGg6MTU7c3Ryb2tlLWxpbmVjYXA6cm91bmQ7c3Ryb2tlLWxpbmVqb2luOnJvdW5kO3N0cm9rZS1taXRlcmxpbWl0OjEwOyIvPiYjeGE7CQk8L2c+JiN4YTsJCTxwYXRoIGQ9Ik0yNTcuNTU2LDgzLjUxOWMwLDAsNTMuMTI1LDM2LjU2LDc5LjA0My0xMC41NjUiIHN0eWxlPSJmaWxsOm5vbmU7c3Ryb2tlOiMwMDAwMDA7c3Ryb2tlLXdpZHRoOjE1O3N0cm9rZS1saW5lY2FwOnJvdW5kO3N0cm9rZS1saW5lam9pbjpyb3VuZDtzdHJva2UtbWl0ZXJsaW1pdDoxMDsiLz4mI3hhOwkJPHBhdGggZD0iTTMwMC4yMjMsOTcuMDA1YzAsMCw5Ljg5OC0yNi4zOTktNy4zMTktMzkuNDQyIiBzdHlsZT0iZmlsbDpub25lO3N0cm9rZTojMDAwMDAwO3N0cm9rZS13aWR0aDoxNTtzdHJva2UtbGluZWNhcDpyb3VuZDtzdHJva2UtbGluZWpvaW46cm91bmQ7c3Ryb2tlLW1pdGVybGltaXQ6MTA7Ii8+JiN4YTsJCTxwYXRoIGQ9Ik0zMjYuMzg2LDg2LjM1NGMwLDAsMTIuOTUzLDE1LjAzNCwyMy42NDksMTEuOTA0IiBzdHlsZT0iZmlsbDpub25lO3N0cm9rZTojMDAwMDAwO3N0cm9rZS13aWR0aDoxNTtzdHJva2UtbGluZWNhcDpyb3VuZDtzdHJva2UtbGluZWpvaW46cm91bmQ7c3Ryb2tlLW1pdGVybGltaXQ6MTA7Ii8+JiN4YTsJCTxwYXRoIGQ9Ik0zOTUuOTY5LDI5Ni4wMjdjMCwwLDEyLjIwNy0xNy4xNjgsMjMuMTYzLTExLjY4OSIgc3R5bGU9ImZpbGw6bm9uZTtzdHJva2U6IzAwMDAwMDtzdHJva2Utd2lkdGg6MTU7c3Ryb2tlLWxpbmVjYXA6cm91bmQ7c3Ryb2tlLWxpbmVqb2luOnJvdW5kO3N0cm9rZS1taXRlcmxpbWl0OjEwOyIvPiYjeGE7CQk8cGF0aCBkPSJNNDE3LjQ5NSw0MDMuNzhjMCwwLDIuMDI2LDIxLjI0NC0zMC4xMzMsMjAuNDI2IiBzdHlsZT0iZmlsbDpub25lO3N0cm9rZTojMDAwMDAwO3N0cm9rZS13aWR0aDoxNTtzdHJva2UtbGluZWNhcDpyb3VuZDtzdHJva2UtbGluZWpvaW46cm91bmQ7c3Ryb2tlLW1pdGVybGltaXQ6MTA7Ii8+JiN4YTsJCTxwYXRoIGQ9Ik0zODkuMTMyLDEyMS43MzZjMCwwLTcuOTc1LDIzLjE1NCwyMS4xNDEsMzMuNzgzIiBzdHlsZT0iZmlsbDpub25lO3N0cm9rZTojMDAwMDAwO3N0cm9rZS13aWR0aDoxNTtzdHJva2UtbGluZWNhcDpyb3VuZDtzdHJva2UtbGluZWpvaW46cm91bmQ7c3Ryb2tlLW1pdGVybGltaXQ6MTA7Ii8+JiN4YTsJCSYjeGE7CQkJPGNpcmNsZSByPSIzMS45ODkiIGN5PSIzNjEuNjA2IiBjeD0iNjQuNjQzIiBzdHlsZT0iZmlsbDpub25lO3N0cm9rZTojMDAwMDAwO3N0cm9rZS13aWR0aDoxNTtzdHJva2UtbGluZWNhcDpyb3VuZDtzdHJva2UtbGluZWpvaW46cm91bmQ7c3Ryb2tlLW1pdGVybGltaXQ6MTA7Ii8+JiN4YTsJCSYjeGE7CQkJPGNpcmNsZSByPSIzMS45ODkiIGN5PSIyMjkuODk1IiBjeD0iNDEuNjI3IiBzdHlsZT0iZmlsbDpub25lO3N0cm9rZTojMDAwMDAwO3N0cm9rZS13aWR0aDoxNTtzdHJva2UtbGluZWNhcDpyb3VuZDtzdHJva2UtbGluZWpvaW46cm91bmQ7c3Ryb2tlLW1pdGVybGltaXQ6MTA7Ii8+JiN4YTsJCSYjeGE7CQkJPGNpcmNsZSByPSIzMS45ODkiIGN5PSIxMTUuNjA2IiBjeD0iNzkuOTQyIiBzdHlsZT0iZmlsbDpub25lO3N0cm9rZTojMDAwMDAwO3N0cm9rZS13aWR0aDoxNTtzdHJva2UtbGluZWNhcDpyb3VuZDtzdHJva2UtbGluZWpvaW46cm91bmQ7c3Ryb2tlLW1pdGVybGltaXQ6MTA7Ii8+JiN4YTsJCSYjeGE7CQkJPGNpcmNsZSByPSIzMS45ODkiIGN5PSI0NC4xMjgiIGN4PSIxNjUuMjk5IiBzdHlsZT0iZmlsbDpub25lO3N0cm9rZTojMDAwMDAwO3N0cm9rZS13aWR0aDoxNTtzdHJva2UtbGluZWNhcDpyb3VuZDtzdHJva2UtbGluZWpvaW46cm91bmQ7c3Ryb2tlLW1pdGVybGltaXQ6MTA7Ii8+JiN4YTsJPC9nPiYjeGE7PC9nPiYjeGE7JiN4YTsmI3hhOyYjeGE7JiN4YTsmI3hhOyYjeGE7JiN4YTsmI3hhOyYjeGE7JiN4YTsmI3hhOyYjeGE7JiN4YTsmI3hhOyYjeGE7PC9zdmc+;fontFamily=Poppins;fontSource=https%3A%2F%2Ffonts.googleapis.com%2Fcss%3Ffamily%3DPoppins;" vertex="1" parent="1">
          <mxGeometry x="210" y="311" width="54.56" height="55" as="geometry" />
        </mxCell>
        <mxCell id="boy779TEuCWVPhwvG-UE-4" value="MCP Client" style="shape=image;verticalLabelPosition=bottom;labelBackgroundColor=none;verticalAlign=top;aspect=fixed;imageAspect=0;editableCssRules=.*;image=data:image/svg+xml,PHN2ZyB4bWxucz0iaHR0cDovL3d3dy53My5vcmcvMjAwMC9zdmciIHZpZXdCb3g9IjIuMTMwMDAwNTkxMjc4MDc2IDguMzk5OTk5NjE4NTMwMjczIDU5Ljc0OTk5NjE4NTMwMjczNCA0Ny4xOTAwMDI0NDE0MDYyNSIgaWQ9IkxheWVyXzEiIHdpZHRoPSI1OS43NDk5OTYxODUzMDI3MzQiIGhlaWdodD0iNDcuMTkwMDAyNDQxNDA2MjUiPjxnPjxnPjxnPjxwYXRoIGZpbGw9IiNmZmViYTgiIGQ9Im02MC44NiAyNC40N2gtNTcuNzJ2LTEyLjU5YzAtMS4zNyAxLjExLTIuNDggMi40OC0yLjQ4aDUyLjc4YzEuMzcgMCAyLjQ4IDEuMTEgMi40OCAyLjQ4djEyLjU5eiIvPjwvZz48L2c+PGc+PGc+PGNpcmNsZSByPSIzLjIzIiBmaWxsPSIjYTRkZmZlIiBjeT0iMTYuOTQiIGN4PSI1MS44NyIvPjwvZz48L2c+PGc+PGc+PHBhdGggZmlsbD0iI2ZkM2Q2YyIgZD0ibTMuMTQgMjQuNDdoNTcuNzN2MTUuMDZoLTU3LjczeiIvPjwvZz48L2c+PGc+PGc+PGNpcmNsZSByPSIzLjIzIiBmaWxsPSIjYTRkZmZlIiBjeT0iMzIiIGN4PSI1MS44NyIvPjwvZz48L2c+PGc+PGc+PHBhdGggZmlsbD0iI2E0ZGZmZSIgZD0ibTU4LjM5IDU0LjU5aC01Mi43OGMtMS4zNyAwLTIuNDgtMS4xMS0yLjQ4LTIuNDh2LTEyLjU4aDU3LjczdjEyLjU5YzAgMS4zNi0xLjEgMi40Ny0yLjQ3IDIuNDd6Ii8+PC9nPjwvZz48Zz48Zz48Y2lyY2xlIHI9IjMuMjMiIGZpbGw9IiNmZmViYTgiIGN5PSI0Ny4wNiIgY3g9IjUxLjg3Ii8+PC9nPjwvZz48Zz48Zz48cGF0aCBkPSJtNjAuODcgMjUuNDdoLTU3LjczYy0uNTUgMC0xLS40NS0xLTF2LTEyLjU5YzAtMS45MiAxLjU2LTMuNDggMy40OC0zLjQ4aDUyLjc4YzEuOTIgMCAzLjQ4IDEuNTYgMy40OCAzLjQ4djEyLjU5Yy0uMDEuNTUtLjQ2IDEtMS4wMSAxem0tNTYuNzMtMmg1NS43M3YtMTEuNTljMC0uODEtLjY2LTEuNDgtMS40OC0xLjQ4aC01Mi43OGMtLjgxIDAtMS40OC42Ni0xLjQ4IDEuNDh2MTEuNTl6Ii8+PC9nPjwvZz48Zz48Zz48cGF0aCBkPSJtMzkuNjQgMTcuOTRoLTMwLjY2Yy0uNTUgMC0xLS40NS0xLTFzLjQ1LTEgMS0xaDMwLjY1Yy41NSAwIDEgLjQ1IDEgMXMtLjQ0IDEtLjk5IDF6Ii8+PC9nPjwvZz48Zz48Zz48cGF0aCBkPSJtNTEuODcgMjEuMTdjLTIuMzMgMC00LjIzLTEuOS00LjIzLTQuMjNzMS45LTQuMjMgNC4yMy00LjIzIDQuMjMgMS45IDQuMjMgNC4yMy0xLjg5IDQuMjMtNC4yMyA0LjIzem0wLTYuNDZjLTEuMjMgMC0yLjIzIDEtMi4yMyAyLjIzczEgMi4yMyAyLjIzIDIuMjMgMi4yMy0xIDIuMjMtMi4yMy0xLTIuMjMtMi4yMy0yLjIzeiIvPjwvZz48L2c+PGc+PGc+PHBhdGggZD0ibTYwLjg3IDQwLjUzaC01Ny43M2MtLjU1IDAtMS0uNDUtMS0xdi0xNS4wNmMwLS41NS40NS0xIDEtMWg1Ny43M2MuNTUgMCAxIC40NSAxIDF2MTUuMDZjMCAuNTUtLjQ1IDEtMSAxem0tNTYuNzMtMmg1NS43M3YtMTMuMDZoLTU1LjczeiIvPjwvZz48L2c+PGc+PGc+PHBhdGggZD0ibTM5LjY0IDMzaC0zMC42NmMtLjU1IDAtMS0uNDUtMS0xcy40NS0xIDEtMWgzMC42NWMuNTUgMCAxIC40NSAxIDFzLS40NCAxLS45OSAxeiIvPjwvZz48L2c+PGc+PGc+PHBhdGggZD0ibTUxLjg3IDM2LjIzYy0yLjMzIDAtNC4yMy0xLjktNC4yMy00LjIzczEuOS00LjIzIDQuMjMtNC4yMyA0LjIzIDEuOSA0LjIzIDQuMjMtMS44OSA0LjIzLTQuMjMgNC4yM3ptMC02LjQ2Yy0xLjIzIDAtMi4yMyAxLTIuMjMgMi4yM3MxIDIuMjMgMi4yMyAyLjIzIDIuMjMtMSAyLjIzLTIuMjMtMS0yLjIzLTIuMjMtMi4yM3oiLz48L2c+PC9nPjxnPjxnPjxwYXRoIGQ9Im01OC4zOSA1NS41OWgtNTIuNzhjLTEuOTIgMC0zLjQ4LTEuNTYtMy40OC0zLjQ4di0xMi41OGMwLS41NS40NS0xIDEtMWg1Ny43M2MuNTUgMCAxIC40NSAxIDF2MTIuNTljLjAxIDEuOTEtMS41NSAzLjQ3LTMuNDcgMy40N3ptLTU0LjI1LTE1LjA2djExLjU5YzAgLjgxLjY2IDEuNDggMS40OCAxLjQ4aDUyLjc4Yy44MSAwIDEuNDgtLjY2IDEuNDgtMS40OHYtMTEuNTl6Ii8+PC9nPjwvZz48Zz48Zz48cGF0aCBkPSJtMzkuNjQgNDguMDZoLTMwLjY2Yy0uNTUgMC0xLS40NS0xLTFzLjQ1LTEgMS0xaDMwLjY1Yy41NSAwIDEgLjQ1IDEgMXMtLjQ0IDEtLjk5IDF6Ii8+PC9nPjwvZz48Zz48Zz48cGF0aCBkPSJtNTEuODcgNTEuMjljLTIuMzMgMC00LjIzLTEuOS00LjIzLTQuMjNzMS45LTQuMjMgNC4yMy00LjIzIDQuMjMgMS45IDQuMjMgNC4yMy0xLjg5IDQuMjMtNC4yMyA0LjIzem0wLTYuNDZjLTEuMjMgMC0yLjIzIDEtMi4yMyAyLjIzczEgMi4yMyAyLjIzIDIuMjMgMi4yMy0xIDIuMjMtMi4yMy0xLTIuMjMtMi4yMy0yLjIzeiIvPjwvZz48L2c+PC9nPjwvc3ZnPg==;fontFamily=Poppins;fontSource=https%3A%2F%2Ffonts.googleapis.com%2Fcss%3Ffamily%3DPoppins;" vertex="1" parent="1">
          <mxGeometry x="330" y="315" width="60" height="47" as="geometry" />
        </mxCell>
        <mxCell id="boy779TEuCWVPhwvG-UE-6" value="Azure Function App" style="text;html=1;align=center;verticalAlign=middle;resizable=0;points=[];autosize=1;strokeColor=none;fillColor=none;fontSize=16;fontFamily=Poppins;fontSource=https%3A%2F%2Ffonts.googleapis.com%2Fcss%3Ffamily%3DPoppins;" vertex="1" parent="1">
          <mxGeometry x="533" y="146.5" width="180" height="30" as="geometry" />
        </mxCell>
        <mxCell id="boy779TEuCWVPhwvG-UE-7" value="" style="rounded=0;whiteSpace=wrap;html=1;fillColor=#bac8d3;strokeColor=#23445d;dashed=1;strokeWidth=2;" vertex="1" parent="1">
          <mxGeometry x="540" y="230" width="420" height="270" as="geometry" />
        </mxCell>
        <mxCell id="boy779TEuCWVPhwvG-UE-8" value="MCP Tools" style="shape=image;verticalLabelPosition=middle;labelBackgroundColor=none;verticalAlign=middle;aspect=fixed;imageAspect=0;editableCssRules=.*;image=data:image/svg+xml,PHN2ZyB4bWxuczp4bGluaz0iaHR0cDovL3d3dy53My5vcmcvMTk5OS94bGluayIgeG1sbnM9Imh0dHA6Ly93d3cudzMub3JnLzIwMDAvc3ZnIiB4bWw6c3BhY2U9InByZXNlcnZlIiBzdHlsZT0iZW5hYmxlLWJhY2tncm91bmQ6bmV3IDAgMCA1MTIgNTEyOyIgdmlld0JveD0iMCA2MC4xNzIwMDA4ODUwMDk3NjYgNTEyIDM5MS42NTUwMjkyOTY4NzUiIHk9IjBweCIgeD0iMHB4IiBpZD0iTGF5ZXJfMSIgdmVyc2lvbj0iMS4xIiB3aWR0aD0iNTEyIiBoZWlnaHQ9IjM5MS42NTUwMjkyOTY4NzUiPiYjeGE7PHBhdGggZD0iTTQ2MC41NDcsNDQ0LjU0MUg1MS40NTNjLTE0LjY4NywwLTI2LjU5My0xMS45MDYtMjYuNTkzLTI2LjU5M3YtMjAxLjloNDYyLjI3OXYyMDEuOSYjMTA7JiM5O0M0ODcuMTM5LDQzMi42MzUsNDc1LjIzMyw0NDQuNTQxLDQ2MC41NDcsNDQ0LjU0MXoiIHN0eWxlPSJmaWxsOiNEODE5NDI7Ii8+JiN4YTs8Zz4mI3hhOwk8cGF0aCBkPSJNNDU4LjQ0OSwyMTYuMDQ4djE3Ni40MzZjMCwxMi45MDUtMTAuNDYyLDIzLjM2Ny0yMy4zNjcsMjMuMzY3SDI0Ljg2MXYyLjA5NyYjMTA7JiM5OyYjOTtjMCwxNC42ODcsMTEuOTA2LDI2LjU5MywyNi41OTMsMjYuNTkzaDQwOS4wOTNjMTQuNjg3LDAsMjYuNTkzLTExLjkwNiwyNi41OTMtMjYuNTkzdi0yMDEuOUg0NTguNDQ5eiIgc3R5bGU9ImZpbGw6I0JDMEMzQTsiLz4mI3hhOwk8cmVjdCBoZWlnaHQ9IjM3LjU5MSIgd2lkdGg9IjQzMy41OSIgc3R5bGU9ImZpbGw6I0JDMEMzQTsiIHk9IjIxNi4wNSIgeD0iMjQuODYxIi8+JiN4YTs8L2c+JiN4YTs8cGF0aCBkPSJNNDk2LjkxOSwyMjguNjg2SDE1LjA4MWMtNC4zMDUsMC03Ljc5NS0zLjQ5LTcuNzk1LTcuNzk1VjE3My4xNCYjMTA7JiM5O2MwLTE0LjY4NywxMS45MDYtMjYuNTkzLDI2LjU5My0yNi41OTNINDc4LjEyYzE0LjY4NywwLDI2LjU5MywxMS45MDYsMjYuNTkzLDI2LjU5M3Y0Ny43NTEmIzEwOyYjOTtDNTA0LjcxMywyMjUuMTk2LDUwMS4yMjQsMjI4LjY4Niw0OTYuOTE5LDIyOC42ODZ6IiBzdHlsZT0iZmlsbDojRkYzOTVBOyIvPiYjeGE7PHBhdGggZD0iTTQ3OC4xMiwxNDYuNTQ3aC0yOC42OWMxNC42ODcsMCwyNi41OTMsMTEuOTA2LDI2LjU5MywyNi41OTN2NDcuNzUxYzAsNC4zMDUtMy40OSw3Ljc5NS03Ljc5NSw3Ljc5NSYjMTA7JiM5O2gyOC42OWM0LjMwNSwwLDcuNzk1LTMuNDksNy43OTUtNy43OTVWMTczLjE0QzUwNC43MTMsMTU4LjQ1Myw0OTIuODA3LDE0Ni41NDcsNDc4LjEyLDE0Ni41NDd6IiBzdHlsZT0iZmlsbDojRUQyNjAxOyIvPiYjeGE7PHBhdGggZD0iTTE4NS4xNTgsMTQ2LjU0N1Y5NC4zOTljMC0wLjU1MSwwLjQ0Ny0wLjk5OCwwLjk5OC0wLjk5OGgxMzkuNjg4YzAuNTUsMCwwLjk5OCwwLjQ0NywwLjk5OCwwLjk5OCYjMTA7JiM5O3Y1Mi4xNDhoMjUuOTQyVjk0LjM5OWMwLTE0Ljg3OC0xMi4wNjEtMjYuOTQtMjYuOTQtMjYuOTRIMTg2LjE1NmMtMTQuODc4LDAtMjYuOTQsMTIuMDYxLTI2Ljk0LDI2Ljk0djUyLjE0OEgxODUuMTU4eiIgc3R5bGU9ImZpbGw6I0NDQ0NDQzsiLz4mI3hhOzxnPiYjeGE7CTxwYXRoIGQ9Ik0xNDQuNzM0LDI3Ny4yMjVIMTEyLjMyYy02LjA2OCwwLTEwLjk4OC00LjkxOS0xMC45ODgtMTAuOTg3di01OS41NzUmIzEwOyYjOTsmIzk7YzAtNi4wNjgsNC45MTktMTAuOTg3LDEwLjk4OC0xMC45ODdoMzIuNDE0YzYuMDY4LDAsMTAuOTg4LDQuOTE5LDEwLjk4OCwxMC45ODd2NTkuNTc1JiMxMDsmIzk7JiM5O0MxNTUuNzIxLDI3Mi4zMDYsMTUwLjgwMiwyNzcuMjI1LDE0NC43MzQsMjc3LjIyNXoiIHN0eWxlPSJmaWxsOiNGRkEyMjc7Ii8+JiN4YTsJPHBhdGggZD0iTTM5OS42OCwyNzcuMjI1aC0zMi40MTRjLTYuMDY4LDAtMTAuOTg3LTQuOTE5LTEwLjk4Ny0xMC45ODd2LTU5LjU3NSYjMTA7JiM5OyYjOTtjMC02LjA2OCw0LjkxOS0xMC45ODcsMTAuOTg3LTEwLjk4N2gzMi40MTRjNi4wNjgsMCwxMC45ODgsNC45MTksMTAuOTg4LDEwLjk4N3Y1OS41NzUmIzEwOyYjOTsmIzk7QzQxMC42NjcsMjcyLjMwNiw0MDUuNzQ4LDI3Ny4yMjUsMzk5LjY4LDI3Ny4yMjV6IiBzdHlsZT0iZmlsbDojRkZBMjI3OyIvPiYjeGE7PC9nPiYjeGE7PGc+JiN4YTsJPHBhdGggZD0iTTM5OS42OCwxOTUuNjc1aC0xNy43MDJ2ODEuNTVoMTcuNzAyYzYuMDY4LDAsMTAuOTg4LTQuOTE5LDEwLjk4OC0xMC45ODd2LTU5LjU3NSYjMTA7JiM5OyYjOTtDNDEwLjY2NywyMDAuNTk1LDQwNS43NDgsMTk1LjY3NSwzOTkuNjgsMTk1LjY3NXoiIHN0eWxlPSJmaWxsOiNGNzhCMEI7Ii8+JiN4YTsJPHBhdGggZD0iTTE0NC43MzQsMTk1LjY3NWgtMTcuNzAydjgxLjU1aDE3LjcwMmM2LjA2OCwwLDEwLjk4OC00LjkxOSwxMC45ODgtMTAuOTg3di01OS41NzUmIzEwOyYjOTsmIzk7QzE1NS43MjEsMjAwLjU5NSwxNTAuODAyLDE5NS42NzUsMTQ0LjczNCwxOTUuNjc1eiIgc3R5bGU9ImZpbGw6I0Y3OEIwQjsiLz4mI3hhOzwvZz4mI3hhOzxwYXRoIGQ9Ik00NzguMTIxLDEzOS4yNmgtNDYuNzU4Yy00LjAyNCwwLTcuMjg2LDMuMjYyLTcuMjg2LDcuMjg2YzAsNC4wMjUsMy4yNjIsNy4yODcsNy4yODYsNy4yODdoNDYuNzU4JiMxMDsmIzk7YzEwLjY0NSwwLDE5LjMwNiw4LjY2MSwxOS4zMDYsMTkuMzA2djQ3Ljc1MWMwLDAuMjgxLTAuMjI4LDAuNTA5LTAuNTA5LDAuNTA5aC05Ljc3OWgtNjkuMTg2di0xNC43MzZ2LTAuMDAxJiMxMDsmIzk7YzAtNi4yOTctMy4yMDItMTEuODYxLTguMDY0LTE1LjE0OGMtMi45MTctMS45NzItNi40MzItMy4xMjUtMTAuMjEtMy4xMjVoLTMyLjQxM2gtMC4wMDFjLTEwLjA3NiwwLTE4LjI3Myw4LjE5OC0xOC4yNzMsMTguMjczJiMxMDsmIzk7djAuMDAxdjE0LjczNkgxNjMuMDA4di0xNC43MzZ2LTAuMDAxYzAtMTAuMDc2LTguMTk3LTE4LjI3My0xOC4yNzMtMTguMjczaC0wLjAwMWgtMzIuNDEzYy0zLjc3OSwwLTcuMjkzLDEuMTUzLTEwLjIxLDMuMTI1JiMxMDsmIzk7Yy00Ljg2MiwzLjI4Ny04LjA2NCw4Ljg1MS04LjA2NCwxNS4xNDh2MC4wMDF2MTQuNzM2SDI0Ljg2MWgtOS43NzljLTAuMjgxLDAtMC41MDktMC4yMjgtMC41MDktMC41MDl2LTQ3Ljc1MSYjMTA7JiM5O2MwLTEwLjY0NSw4LjY2MS0xOS4zMDYsMTkuMzA3LTE5LjMwNmgxMjUuMzM3aDI1Ljk0MmgxNDEuNjgzaDI1Ljk0Mmg0OS4xOGM0LjAyNSwwLDcuMjg3LTMuMjYyLDcuMjg3LTcuMjg3JiMxMDsmIzk7YzAtNC4wMjUtMy4yNjItNy4yODYtNy4yODctNy4yODZIMzYwLjA3Vjk0LjM5OWMwLTE4Ljg3My0xNS4zNTQtMzQuMjI3LTM0LjIyNy0zNC4yMjdIMTg2LjE1NiYjMTA7JiM5O2MtMTguODczLDAtMzQuMjI3LDE1LjM1NC0zNC4yMjcsMzQuMjI3djQ0Ljg2MUgzMy44OEMxNS4xOTgsMTM5LjI2LDAsMTU0LjQ1OCwwLDE3My4xMzl2NDcuNzUxYzAsOC4zMTYsNi43NjYsMTUuMDgyLDE1LjA4MiwxNS4wODImIzEwOyYjOTtoMi40OTJ2MTAyLjJjMCw0LjAyNSwzLjI2Miw3LjI4Nyw3LjI4Nyw3LjI4N3M3LjI4Ni0zLjI2Miw3LjI4Ni03LjI4N3YtMTAyLjJoNjEuOXYzMC4yNjZjMCwxMC4wNzcsOC4xOTcsMTguMjc0LDE4LjI3NCwxOC4yNzQmIzEwOyYjOTtoMzIuNDEzaDAuMDAxYzYuOTI3LDAsMTIuOTY2LTMuODc1LDE2LjA2NC05LjU3MWMxLjQwOC0yLjU4OSwyLjIwOS01LjU1NCwyLjIwOS04LjcwNHYtMzAuMjY2aDE4NS45ODV2MzAuMjY2JiMxMDsmIzk7YzAsMy4xNDksMC44MDEsNi4xMTUsMi4yMDksOC43MDRjMy4wOTgsNS42OTYsOS4xMzcsOS41NzEsMTYuMDY0LDkuNTcxaDAuMDAxaDMyLjQxM2MxMC4wNzcsMCwxOC4yNzQtOC4xOTcsMTguMjc0LTE4LjI3NHYtMzAuMjY2JiMxMDsmIzk7aDYxLjg5OXYxODEuOTc1YzAsMTAuNjQ2LTguNjYxLDE5LjMwNy0xOS4zMDcsMTkuMzA3SDUxLjQ1M2MtMTAuNjQ1LDAtMTkuMzA3LTguNjYtMTkuMzA3LTE5LjMwN3YtNTAuMTM0JiMxMDsmIzk7YzAtNC4wMjUtMy4yNjItNy4yODYtNy4yODYtNy4yODZzLTcuMjg3LDMuMjYyLTcuMjg3LDcuMjg2djUwLjEzNGMwLDE4LjY4MSwxNS4xOTgsMzMuODgsMzMuODgsMzMuODhoNDA5LjA5MyYjMTA7JiM5O2MxOC42ODEsMCwzMy44OC0xNS4xOTgsMzMuODgtMzMuODhWMjM1Ljk3MmgyLjQ5MmM4LjMxNiwwLDE1LjA4Mi02Ljc2NiwxNS4wODItMTUuMDgydi00Ny43NTEmIzEwOyYjOTtDNTEyLDE1NC40NTgsNDk2LjgwMiwxMzkuMjYsNDc4LjEyMSwxMzkuMjZ6IE0zMTkuNTU1LDEzOS4yNmgtMTI3LjExdi0zOC41NzJoMTI3LjExVjEzOS4yNnogTTE2Ni41MDMsOTQuMzk5JiMxMDsmIzk7YzAtMTAuODM3LDguODE3LTE5LjY1NCwxOS42NTQtMTkuNjU0aDEzOS42ODdjMTAuODM3LDAsMTkuNjU0LDguODE3LDE5LjY1NCwxOS42NTR2NDQuODYxaC0xMS4zNjlWOTQuMzk5JiMxMDsmIzk7YzAtNC41NjgtMy43MTctOC4yODUtOC4yODUtOC4yODVIMTg2LjE1NmMtNC41NjgsMC04LjI4NSwzLjcxNi04LjI4NSw4LjI4NXY0NC44NjFoLTExLjM2OVY5NC4zOTlIMTY2LjUwM3ogTTExMi4zMjEsMjY5LjkzOSYjMTA7JiM5O2MtMi4wNDEsMC0zLjcwMS0xLjY2LTMuNzAxLTMuNzAxdi0zNy41NTJ2LTIyLjAyM2MwLTIuMDQxLDEuNjYtMy43MDEsMy43MDEtMy43MDFoMzIuNDEzYzIuMDQxLDAsMy43MDEsMS42NiwzLjcwMSwzLjcwMXYyMi4wMjMmIzEwOyYjOTt2MzcuNTUyYzAsMC43NjUtMC4yMzQsMS40NzctMC42MzMsMi4wNjhjLTAuNjY2LDAuOTg1LTEuNzkzLDEuNjMzLTMuMDY4LDEuNjMzSDExMi4zMjF6IE00MDMuMzgsMjY2LjIzOCYjMTA7JiM5O2MwLDIuMDQxLTEuNjYsMy43MDEtMy43MDEsMy43MDFoLTMyLjQxM2MtMS4yNzUsMC0yLjQwMi0wLjY0OC0zLjA2OC0xLjYzM2MtMC40LTAuNTkxLTAuNjMzLTEuMzAzLTAuNjMzLTIuMDY4di0zNy41NTJ2LTIyLjAyMyYjMTA7JiM5O2MwLTIuMDQxLDEuNjYtMy43MDEsMy43MDEtMy43MDFoMzIuNDEzYzIuMDQxLDAsMy43MDEsMS42NiwzLjcwMSwzLjcwMXYyMi4wMjNWMjY2LjIzOHoiIHN0eWxlPSJmaWxsOiMwNTFDMUI7Ii8+JiN4YTs8Zz4mI3hhOzwvZz4mI3hhOzxnPiYjeGE7PC9nPiYjeGE7PGc+JiN4YTs8L2c+JiN4YTs8Zz4mI3hhOzwvZz4mI3hhOzxnPiYjeGE7PC9nPiYjeGE7PGc+JiN4YTs8L2c+JiN4YTs8Zz4mI3hhOzwvZz4mI3hhOzxnPiYjeGE7PC9nPiYjeGE7PGc+JiN4YTs8L2c+JiN4YTs8Zz4mI3hhOzwvZz4mI3hhOzxnPiYjeGE7PC9nPiYjeGE7PGc+JiN4YTs8L2c+JiN4YTs8Zz4mI3hhOzwvZz4mI3hhOzxnPiYjeGE7PC9nPiYjeGE7PGc+JiN4YTs8L2c+JiN4YTs8L3N2Zz4=;fontSize=16;labelPosition=right;align=left;fontFamily=Poppins;fontSource=https%3A%2F%2Ffonts.googleapis.com%2Fcss%3Ffamily%3DPoppins;spacing=5;" vertex="1" parent="1">
          <mxGeometry x="540" y="200" width="28.74" height="22" as="geometry" />
        </mxCell>
        <mxCell id="boy779TEuCWVPhwvG-UE-9" value="" style="image;aspect=fixed;html=1;points=[];align=center;fontSize=12;image=img/lib/azure2/compute/Function_Apps.svg;" vertex="1" parent="1">
          <mxGeometry x="520" y="153.5" width="22.67" height="20" as="geometry" />
        </mxCell>
        <mxCell id="boy779TEuCWVPhwvG-UE-11" value="SSE Endpoint" style="shape=image;verticalLabelPosition=bottom;labelBackgroundColor=none;verticalAlign=top;aspect=fixed;imageAspect=0;editableCssRules=.*;image=data:image/svg+xml,PHN2ZyB4bWxucz0iaHR0cDovL3d3dy53My5vcmcvMjAwMC9zdmciIHdpZHRoPSI0OTkuOTkwOTk3MzE0NDUzMSIgdmlld0JveD0iNi4wMDQ5OTcyNTM0MTc5NjkgMzMuNDkxOTgxNTA2MzQ3NjU2IDQ5OS45OTA5OTczMTQ0NTMxIDQ0NS4wMTQ5ODQxMzA4NTk0IiBoZWlnaHQ9IjQ0NS4wMTQ5ODQxMzA4NTk0IiBpZD0iTGF5ZXJfMSI+PHBhdGggZmlsbD0iIzRhYTVmZSIgZGlzcGxheT0ibm9uZSIgZD0ibS00MjgxLjc1My0yNDQ0LjM1NGg2MjU0LjUwMXYzMzYxLjM0NGgtNjI1NC41MDF6Ii8+PGc+PGcgZmlsbC1ydWxlPSJldmVub2RkIiBjbGlwLXJ1bGU9ImV2ZW5vZGQiPjxwYXRoIGZpbGw9IiNlZmQwNmYiIGQ9Im0yMzcuNjkzIDQyNy44NDRjMC05Ljk2MSA4LjE2OC0xOC4xMjcgMTguMjUtMTguMTI3IDEwLjA4NCAwIDE4LjI0NiA4LjE2NiAxOC4yNDYgMTguMTI3IDAgMTAuMDg4LTguMTYyIDE4LjI0OC0xOC4yNDYgMTguMjQ4LTEwLjA4MiAwLTE4LjI1LTguMTYtMTguMjUtMTguMjQ4eiIvPjxwYXRoIGZpbGw9IiNlZmQwNmYiIGQ9Im0xMDkuOTY1IDQ1NC4yNTZjMC0xMC4wODIgOC4xNjItMTguMjQ0IDE4LjI0NC0xOC4yNDQgMTAuMDkgMCAxOC4yNSA4LjE2MiAxOC4yNSAxOC4yNDRzLTguMTYgMTguMjQ0LTE4LjI1IDE4LjI0NGMtMTAuMDgyIDAtMTguMjQ0LTguMTYyLTE4LjI0NC0xOC4yNDR6Ii8+PHBhdGggZmlsbD0iI2VmZDA2ZiIgZD0ibTM2NS40MjIgNDU0LjI1NmMwLTEwLjA4MiA4LjE2Ni0xOC4yNDQgMTguMjQ4LTE4LjI0NCAxMC4wODQgMCAxOC4yNDYgOC4xNjIgMTguMjQ2IDE4LjI0NHMtOC4xNjIgMTguMjQ0LTE4LjI0NiAxOC4yNDRjLTEwLjA4MiAwLTE4LjI0OC04LjE2Mi0xOC4yNDgtMTguMjQ0eiIvPjxwYXRoIGZpbGw9IiNkY2VhZmMiIGQ9Im0xMDAuOTU5IDE1Ni43NzljMTMuMjA3IDAgMjUuODEzIDMuMDAyIDM3LjIxNSA4LjE2Ni0uMzU3LTMuMjQ0LS40NzktNi42MDktLjQ3OS05Ljk2NyAwLTYzLjc0NCA1MS42MjEtMTE1LjM2NSAxMTUuMzY1LTExNS4zNjUgNTEuOTggMCA5NS45MiAzNC4zMzIgMTEwLjMyIDgxLjYzMyA5LjAwNi0yLjQwNiAxOC4zNjktMy43MjMgMjcuOTczLTMuNzIzIDU5LjkgMCAxMDguNTIzIDQ4LjYyMSAxMDguNTIzIDEwOC41MjEgMCA1OS45MDQtNDguNjIzIDEwOC41MjctMTA4LjUyMyAxMDguNTI3aC0yOTAuMzk0Yy00OS4xIDAtODguOTUzLTM5LjczNi04OC45NTMtODguODM4IDAtNDkuMDk2IDM5Ljg1My04OC45NTQgODguOTUzLTg4Ljk1NHoiLz48cGF0aCBmaWxsPSIjYzZkM2UzIiBkPSJtMzEwLjQ0MyAxNzUuNTA0IDE3LjE2NC0xNy4xNjggMjYuMjkzIDI2LjI5NS0xNy4yODUgMTcuMTY2YzcuMTk5IDEwLjU2MyAxMi4zNjUgMjIuODA5IDE0Ljg4NSAzNS44OTNoMjQuMzcxdjM3LjA5NmgtMjQuMzcxYy0yLjUyIDEzLjA4NC03LjY4NiAyNS4yMTMtMTQuODg1IDM1Ljg5NWwxNy4yODUgMTcuMTY4LTI2LjI5MyAyNi4yOTEtMTcuMTY0LTE3LjE2OGMtMTAuNjg2IDcuMjAzLTIyLjgxNCAxMi4zNjUtMzUuODk1IDE0Ljg4NXYyNC4yNTJoLTM3LjA5MnYtMjQuMjUyYy0xMy4yMDktMi41Mi0yNS4zMzYtNy42ODItMzYuMDE4LTE0Ljg4NWwtMTcuMTcyIDE3LjE2OC0yNi4xNjQtMjYuMjkxIDE3LjE2OC0xNy4xNjhjLTcuMjA1LTEwLjY4Mi0xMi4zNjctMjIuODExLTE0Ljg4OS0zNS44OTVoLTI0LjM2OXYtMzcuMDk2aDI0LjM2OWMyLjUyMS0xMy4wODQgNy42ODQtMjUuMzMgMTQuODg5LTM1Ljg5M2wtMTcuMTY4LTE3LjE2NiAyNi4xNjQtMjYuMjk1IDE3LjE3MiAxNy4xNjhjMTAuNjgyLTcuMjAxIDIyLjgwOS0xMi4zNjMgMzYuMDE4LTE0Ljg4MXYtMjQuMjVoMzcuMDkydjI0LjI1YzEzLjA4MSAyLjUxOCAyNS4yMSA3LjY4IDM1Ljg5NSAxNC44ODF6Ii8+PHBhdGggZmlsbD0iI2VmZDA2ZiIgZD0ibTI1NS45NDMgMzE3Ljc2NmMzMy45NjkgMCA2MS41ODItMjcuNjEzIDYxLjU4Mi02MS41OSAwLTMzLjg1NC0yNy42MTMtNjEuNTg0LTYxLjU4Mi02MS41ODQtMzMuODU1IDAtNjEuNTkgMjcuNzMtNjEuNTkgNjEuNTg0LjAwMSAzMy45NzYgMjcuNzM1IDYxLjU5IDYxLjU5IDYxLjU5eiIvPjwvZz48cGF0aCBkPSJtMzIzLjI4OSAzNTguMzRjMi4zOTggMi4zOTYgNi4xMTkgMi4zOTYgOC41MTguMTE5bDE3Ljg5My0xNy44ODdoNDEuNzc1YzYzLjE0NSAwIDExNC41MjEtNTEuMzgzIDExNC41MjEtMTE0LjUyN3MtNTEuMzc3LTExNC41MjMtMTE0LjUyMS0xMTQuNTIzYy04LjI4NSAwLTE2LjMzMi44NDItMjQuMDA4IDIuNTIxLTE3LjI4Ny00OC4zNzktNjIuNjY4LTgwLjU1MS0xMTQuNDA2LTgwLjU1MS02Ni45ODYgMC0xMjEuNDg4IDU0LjUtMTIxLjQ4OCAxMjEuNDg2di44NDRjLTkuODQ0LTMuMzY3LTIwLjE2NC01LjE2NC0zMC42MTMtNS4xNjQtNTIuMzQgMC05NC45NTUgNDIuNjE1LTk0Ljk1NSA5NS4wNzYgMCA1Mi4zNCA0Mi42MTUgOTQuODM4IDk0Ljk1NSA5NC44MzhoNjEuMjI1bDE3Ljg4NSAxNy44ODdjMi40MDQgMi4yNzcgNi4yNDYgMi4yNzcgOC41MjktLjExOWw0LjY4LTQuNTYxdjExLjAzOWwtNjcuNTg0IDMwLjYxM2MtMi4xNjQuOTU5LTMuNjA1IDMuMTI1LTMuNjA1IDUuNTJ2MjkuODk2Yy0xMC40NDEgMi42NDEtMTguMTIzIDEyLjEyMy0xOC4xMjMgMjMuNDA4IDAgMTMuMzI0IDEwLjgwMSAyNC4yNTIgMjQuMjQ0IDI0LjI1MiAxMy4zMjQgMCAyNC4yNDgtMTAuOTI4IDI0LjI0OC0yNC4yNTIgMC0xMS4yODUtNy43OTktMjAuNzY4LTE4LjI0Ni0yMy40MDh2LTI2LjA1MWw2Ny41ODYtMzAuNDk2YzIuMTY0LS45NTkgMy42MDktMy4xMTMgMy42MDktNS41MTh2LTIyLjQ0OWM4LjE1OCA0LjY4IDE2LjgwMSA4LjE2NCAyNS45MjYgMTAuMzIydjE5LjQ1MWMwIDMuMzYxIDIuNzYyIDYgNi4xMjUgNmgxMi40OHYyMi4zMjhjLTEwLjQ0MSAyLjY0My0xOC4yNDYgMTIuMjQ2LTE4LjI0NiAyMy41MjkgMCAxMy4zMjQgMTAuOTI2IDI0LjEyOSAyNC4zNjkgMjQuMTI5IDEzLjMyNCAwIDI0LjEyNy0xMC44MDUgMjQuMTI3LTI0LjEyOSAwLTExLjI4My03LjY3Ni0yMC43NjYtMTguMTI1LTIzLjUyOXYtMjIuMzI4aDEyLjQ4NmMzLjI0IDAgNi4wMDItMi42MzkgNi4wMDItNnYtMTkuNDUxYzkuMTIzLTIuMTU4IDE3Ljg4Ny01Ljc2IDI2LjA1MS0xMC4zMjJ2MjIuNDQ5YzAgMi40MDQgMS40MzggNC41NTkgMy42MDIgNS41MThsNjcuNDY1IDMwLjQ5NnYyNi4wNTFjLTEwLjQ0MyAyLjY0MS0xOC4yNSAxMi4xMjMtMTguMjUgMjMuNDA4IDAgMTMuMzI0IDEwLjkyNiAyNC4yNTIgMjQuMzcxIDI0LjI1MiAxMy4zMjQgMCAyNC4xMzMtMTAuOTI4IDI0LjEzMy0yNC4yNTIgMC0xMS4yODUtNy42ODYtMjAuNzY4LTE4LjEzMS0yMy40MDh2LTI5Ljg5NmMwLTIuMzk1LTEuNDM5LTQuNTYxLTMuNTk4LTUuNTJsLTY3LjQ3My0zMC42MTN2LTEwLjkyMnptLTE4Mi45NTEgOTUuOTE2YzAgNi43MjUtNS40MDYgMTIuMTIzLTEyLjEyOSAxMi4xMjMtNi43MTkgMC0xMi4xMjEtNS4zOTgtMTIuMTIxLTEyLjEyMyAwLTYuNzIzIDUuNDAyLTEyLjEyMyAxMi4xMjEtMTIuMTIzIDYuNzIzIDAgMTIuMTI5IDUuNCAxMi4xMjkgMTIuMTIzem0xMjcuNzMtMjYuMjkxYzAgNi42MDQtNS40MDYgMTIuMDA2LTEyLjAwOCAxMi4wMDYtNi43MjUgMC0xMi4yNDYtNS40MDItMTIuMjQ2LTEyLjAwNiAwLTYuNzIzIDUuNTIxLTEyLjI0NCAxMi4yNDYtMTIuMjQ0IDYuNjAyIDAgMTIuMDA4IDUuNTIxIDEyLjAwOCAxMi4yNDR6bTEyNy43MjcgMjYuMjkxYzAgNi43MjUtNS4zOTggMTIuMTIzLTEyLjAwNiAxMi4xMjMtNi43MTkgMC0xMi4yNDgtNS4zOTgtMTIuMjQ4LTEyLjEyMyAwLTYuNzIzIDUuNTI5LTEyLjEyMyAxMi4yNDgtMTIuMTIzIDYuNjA3IDAgMTIuMDA2IDUuNCAxMi4wMDYgMTIuMTIzem0tMzc3LjY2Ni0yMDguNTIyYzAtNDUuNzM4IDM3LjA5NC04Mi45NTUgODIuODMtODIuOTU1IDExLjg4OSAwIDIzLjY0OCAyLjY0NSAzNC42OTUgNy42ODggMS45MTguODM4IDQuMTk3LjYgNS44NzktLjYwNCAxLjgwMS0xLjE5NyAyLjc2Mi0zLjI0IDIuNjQ2LTUuNC0uMjQtMy42MDQtLjQ4Mi02LjQ4Ni0uNDgyLTkuNDg0IDAtNjAuMjY0IDQ5LjEwMi0xMDkuMzY1IDEwOS4zNjMtMTA5LjM2NSA0OC4zNzkgMCA5MC4zOTUgMzEuMDk0IDEwNC41NjQgNzcuNDMuOTU1IDMuMTIzIDQuMzE2IDQuOTI2IDcuNDM4IDMuOTY1IDguMjgzLTIuMTYgMTcuMTY2LTMuMzYzIDI2LjQxMi0zLjM2MyA1Ni40MjQgMCAxMDIuMzk2IDQ1Ljk4IDEwMi4zOTYgMTAyLjQgMCA1Ni40MjYtNDUuOTczIDEwMi40LTEwMi4zOTYgMTAyLjRoLTMxLjY5M2MwLS4xMTkuMTIzLS4zNTkuMTIzLS40NzkgMC0xLjY4LS42MDItMy4xMjMtMS44MDEtNC4zMmwtMTMuNjg4LTEzLjY4OWM1LjUyMy05LjEyMyA5LjQ4NC0xOC44NDYgMTIuMDA2LTI5LjE2NmgxOS40NDljMy4yMzggMCA1Ljk5Ni0yLjY0NSA1Ljk5Ni02LjAwNnYtMzcuMDk2YzAtMy4zNjEtMi43NTgtNi4xMTktNS45OTYtNi4xMTloLTE5LjQ0OWMtMi40MDgtMTAuMjA1LTYuNDgyLTE5LjkyOC0xMi4wMDYtMjguOTM2bDEzLjY4OC0xMy44MDNjMS4xOTktMS4wODIgMS44MDEtMi42NDMgMS44MDEtNC4yMDEgMC0xLjY4NC0uNjAyLTMuMjQyLTEuODAxLTQuMzI0bC0yNi4yOTctMjYuMjg5Yy0yLjI3Ny0yLjM5OC02LjExOS0yLjM5OC04LjUxOCAwbC0xMy42OTEgMTMuNjg2Yy04Ljk5Ni01LjQtMTguODQyLTkuNDgyLTI5LjA0Ny0xMi4wMDR2LTE5LjMyNmMwLTMuMzYxLTIuNzYyLTYuMTI1LTYuMDAyLTYuMTI1aC0zNy4wOTJjLTMuMzYzIDAtNi4xMjUgMi43NjQtNi4xMjUgNi4xMjV2MTkuMzI2Yy0xMC4yMDMgMi41MjEtMTkuOTMyIDYuNDgtMjguOTMyIDEyLjAwNGwtMTMuODAzLTEzLjY4NmMtMi4yODMtMi4zOTgtNi4xMjUtMi4zOTgtOC41MjkgMGwtMjYuMjg3IDI2LjI4OWMtMi4zOTggMi40MDYtMi4zOTggNi4yNDggMCA4LjUyNWwxMy42ODQgMTMuODAzYy01LjUxOCA5LjAwOC05LjQ4MiAxOC43My0xMi4wMDYgMjguOTM2aC0xOS4zMjRjLTMuMzYzIDAtNi4xMjUgMi43NTgtNi4xMjUgNi4xMTl2MzcuMDk2YzAgMy4zNjEgMi43NjIgNi4wMDYgNi4xMjUgNi4wMDZoMTkuMzI0YzIuNTIzIDEwLjMyIDYuNDg4IDIwLjA0MyAxMi4wMDYgMjkuMTY2bC0xMy42ODQgMTMuNjg5Yy0xLjE5NyAxLjE5Ny0xLjgwMSAyLjY0MS0xLjgwMSA0LjMyIDAgLjExOS4xMjEuMzU5LjEyMS40NzloLTUxLjE0M2MtNDUuNzM0LS4wMDEtODIuODI4LTM3LjA5NC04Mi44MjgtODIuNzEyem0yNTUuMjE3IDEwMC4xMmMtMi44ODEuNi00LjkyMiAzLjEyMy00LjkyMiA2LjAwMnYxOC4xMjdoLTI0Ljk2N3YtMTguMTI3YzAtMi44NzktMi4wMzktNS40MDItNC45MjItNi4wMDItMTIuMDA0LTIuMjgxLTIzLjI4OS02Ljk2My0zMy42MTUtMTMuOTI2LTIuNC0xLjY4LTUuNjQxLTEuMzItNy42ODIuNzE3bC0xMi44NDYgMTIuODUtMTQuODg3LTE0Ljc2NGMtLjM1OS0uMzU5LS42LS42LS45NTktLjk2M2wtMS45Mi0xLjgwMSAxMi44NDktMTIuOTY3YzIuMDM3LTIuMDM3IDIuMzk4LTUuMTYuNzE5LTcuNTYzLTYuODQ0LTEwLjMyMi0xMS41MjctMjEuNzI1LTEzLjkzLTMzLjg1NC0uNDgtMi44ODMtMi45OTYtNC45Mi01Ljg4MS00LjkyaC0xOC4yNDZ2LTI0Ljk3M2gxOC4yNDZjMi44ODUgMCA1LjQtMi4wMzcgNS44ODEtNC45MTggMi4yODMtMTIuMDA2IDcuMDg2LTIzLjI5MSAxMy45My0zMy42MTMgMS42OC0yLjQwMiAxLjMxOC01LjY0Ni0uNzE5LTcuNjg2bC0xMi44NDgtMTIuODQ0IDE3Ljc2Ni0xNy43NjggMTIuODQ2IDEyLjg0NmMyLjA0MSAyLjE1OCA1LjI4MSAyLjQwMiA3LjY4Mi44MzggMTAuMzI2LTYuOTU3IDIxLjYxMS0xMS42NDEgMzMuNjE1LTE0LjA0MSAyLjg4My0uNDgyIDQuOTIyLTMuMDA4IDQuOTIyLTUuODgzdi0xOC4yNDhoMjQuOTY3djE4LjI0OGMwIDIuODc1IDIuMDQxIDUuNCA0LjkyMiA1Ljg4MyAxMi4wMDYgMi40IDIzLjY1IDcuMjAxIDMzLjYxNSAxMy45MjIgMi4zOTYgMS42ODQgNS42MzkgMS40MzkgNy42ODQtLjcxOWwxMi45NjMtMTIuODQ2IDE3LjY0OCAxNy43NjgtMTIuODQ0IDEyLjg0NGMtMi4wNDUgMi4wMzktMi40MDQgNS4yODMtLjcyMyA3LjY4NiA2Ljk2MyAxMC4zMjIgMTEuNjQzIDIxLjYwNyAxMy45MjIgMzMuNjEzLjYwNCAyLjg4MSAzLjAwNiA0LjkxOCA2LjAwOCA0LjkxOGgxOC4xMjd2MjQuOTczaC0xOC4xMjdjLTMuMDAyIDAtNS40MDQgMi4wMzctNi4wMDggNC45Mi0yLjI3OSAxMi4xMjktNy4wOCAyMy41MzEtMTMuOTIyIDMzLjg1NC0xLjY4MiAyLjQwMi0xLjMyMiA1LjUyNS43MjMgNy41NjNsMTIuODQ0IDEyLjk2Ny0xLjkyNCAxLjgwMWMtLjM1OS4zNjMtLjYuNjA0LS45NTkuOTYzbC0xNC43NjYgMTQuNzY0LTEwLjA4Mi05Ljk2NWMtLjM1Ny0uNDc5LS43MjMtLjk1Ny0xLjIwMS0xLjMyNGwtMS42OC0xLjU2MWMtMi4wNDUtMi4wMzctNS4yODctMi4zOTYtNy42ODQtLjcxNy05Ljk2NSA2LjgzOC0yMS42MDkgMTEuNjQ0LTMzLjYxNSAxMy45MjZ6bS0xNy4yODUtMTU3LjI2Yy0zNy4zMyAwLTY3LjcwNSAzMC4zNzEtNjcuNzA1IDY3LjcwNSAwIDM3LjIxMyAzMC4zNzUgNjcuNTg0IDY3LjcwNSA2Ny41ODQgMzcuMjE1IDAgNjcuNTgyLTMwLjM3MSA2Ny41ODItNjcuNTg0IDAtMzcuMzM0LTMwLjM2OC02Ny43MDUtNjcuNTgyLTY3LjcwNXptMCAxMjMuMTY2Yy0zMC42MTEgMC01NS41ODQtMjQuODUtNTUuNTg0LTU1LjQ2MSAwLTMwLjYxNSAyNC45NzMtNTUuNTggNTUuNTg0LTU1LjU4czU1LjQ2MSAyNC45NjUgNTUuNDYxIDU1LjU4Yy0uMDAxIDMwLjYxMS0yNC44NSA1NS40NjEtNTUuNDYxIDU1LjQ2MXptMzUuMTc3LTg3Ljc1NGMyLjYzOSAyLjAzOSAzLjIzNiA1Ljc2NCAxLjE5NyA4LjQwNGwtNDIuMDIxIDU0Ljk4Yy0xLjA3OCAxLjMyLTIuNTE0IDIuMTU4LTQuMDc2IDIuNC0uMjM4IDAtLjQ3NyAwLS43MTcgMC0xLjQ0NSAwLTIuNzY2LS40OC0zLjg0OC0xLjMyMmwtMjEuMjUtMTcuMTY2Yy0yLjYzOS0yLjE2LTIuOTk4LTUuODgxLS45NTktOC41MTggMi4xNjQtMi42NDUgNi4wMDYtMy4wMDIgOC41MjktLjk2NWwxNi40NDEgMTMuMzI0IDM4LjE3NC01MC4wNjFjMi4wNDItMi42MzUgNS44ODQtMy4xMTcgOC41My0xLjA3NnoiLz48L2c+PC9zdmc+;fontFamily=Poppins;fontSource=https%3A%2F%2Ffonts.googleapis.com%2Fcss%3Ffamily%3DPoppins;" vertex="1" parent="1">
          <mxGeometry x="560" y="311.75" width="63.48" height="56.5" as="geometry" />
        </mxCell>
        <mxCell id="boy779TEuCWVPhwvG-UE-12" value="Company Overview" style="shape=image;verticalLabelPosition=bottom;labelBackgroundColor=none;verticalAlign=top;aspect=fixed;imageAspect=0;editableCssRules=.*;image=data:image/svg+xml,PHN2ZyB4bWxucz0iaHR0cDovL3d3dy53My5vcmcvMjAwMC9zdmciIHZpZXdCb3g9IjkuOTk5NjMyODM1Mzg4MTg0IDEwLjU2MTU0MzQ2NDY2MDY0NSA2NjIuNjY3Nzg1NjQ0NTMxMiA2NjEuNTQzODIzMjQyMTg3NSIgaGVpZ2h0PSI2NjEuNTQzODIzMjQyMTg3NSIgd2lkdGg9IjY2Mi42Njc3ODU2NDQ1MzEyIiB4bWw6c3BhY2U9InByZXNlcnZlIiBpZD0ic3ZnNzE3IiB2ZXJzaW9uPSIxLjEiPjxkZWZzIGlkPSJkZWZzNzIxIj48Y2xpcFBhdGggaWQ9ImNsaXBQYXRoNzMxIiBjbGlwUGF0aFVuaXRzPSJ1c2VyU3BhY2VPblVzZSI+PHBhdGggaWQ9InBhdGg3MjkiIGQ9Ik0gMCw1MTIgSCA1MTIgViAwIEggMCBaIi8+PC9jbGlwUGF0aD48L2RlZnM+PGcgdHJhbnNmb3JtPSJtYXRyaXgoMS4zMzMzMzMzLDAsMCwtMS4zMzMzMzMzLDAsNjgyLjY2NjY3KSIgaWQ9Imc3MjMiPjxnIGlkPSJnNzI1Ij48ZyBjbGlwLXBhdGg9InVybCgjY2xpcFBhdGg3MzEpIiBpZD0iZzcyNyI+PGcgdHJhbnNmb3JtPSJ0cmFuc2xhdGUoOC45NDE0LDQzMy43NTQ0KSIgaWQ9Imc3MzMiPjxwYXRoIGlkPSJwYXRoNzM1IiBzdHlsZT0iZmlsbDojZGVlY2YwO2ZpbGwtb3BhY2l0eToxO2ZpbGwtcnVsZTpldmVub2RkO3N0cm9rZTpub25lIiBkPSJtIDAsMCBjIC00Ljg3OCwtMjUuNzMzIDIuNjI1LC01My40MDEgMjIuNDgxLC03My4yMTMgMjQuODc3LC0yNC44MjIgNjIuMTA3LC0zMC4yODcgOTIuNDA1LC0xNi4zOTYgbCAzMi45MjIsLTMyLjg0OSBoIDQzLjg0OCBsIC0xLjcxMiw0NS42NTkgLTMxLjA5NiwzMS4wNTUgYyAxMy45MjIsMzAuMjMgOC40NDQsNjcuMzc3IC0xNi40MzMsOTIuMTk5IEMgMTIyLjU2LDY2LjI2NyA5NC44Myw3My43NTMgNjkuMDQsNjguODg2IDQxLjk2Niw2My43OTEgNjIuNDQ5LDQ5LjU1OCA2NS4zNTksNDYuNjU0IGwgMzQuODM0LC0zNC43NTYgYyAxMi4xODIsLTEyLjE1NCAxMi42OTYsLTMxLjcxIDEuNTEyLC00NC40OTEgLTEyLjgwOSwtMTEuMTU4IC0zMi40MDgsLTEwLjY0NiAtNDQuNTksMS41MDkgTCAyMi4yODEsMy42NzIgQyAxOS4zNzEsNi41NzUgNS4xMDcsMjcuMDEzIDAsMCIvPjwvZz48ZyB0cmFuc2Zvcm09InRyYW5zbGF0ZSgyMjAuMTExMywyNDguMTA0KSIgaWQ9Imc3MzciPjxwYXRoIGlkPSJwYXRoNzM5IiBzdHlsZT0iZmlsbDojZGVlY2YwO2ZpbGwtb3BhY2l0eToxO2ZpbGwtcnVsZTpldmVub2RkO3N0cm9rZTpub25lIiBkPSJtIDAsMCAxOC4xMTUsLTUzLjQwMSA4MS4zOTMsLTQ1LjkxNCAyNC41OTIsLTI0LjUzOCBjIC0xMy45MjIsLTMwLjIzIC04LjQ0NiwtNjcuMzc2IDE2LjQzMiwtOTIuMTk4IDE5Ljg1NiwtMTkuODEyIDQ3LjU4NSwtMjcuMjk5IDczLjM3NSwtMjIuNDMxIDI3LjA3NCw1LjA5NSA2LjU5MSwxOS4zMjggMy42ODEsMjIuMjMyIGwgLTM0LjgzNCwzNC43NTUgYyAtMTIuMTgyLDEyLjE1NSAtMTIuNjk1LDMxLjcxMSAtMS41MTIsNDQuNDkyIDEyLjgxLDExLjE1OCAzMi40MDgsMTAuNjQ2IDQ0LjU5LC0xLjUwOSBsIDM0LjgzNCwtMzQuNzU2IGMgMi45MSwtMi45MDMgMTcuMTc0LC0yMy4zNDEgMjIuMjgxLDMuNjcyIDQuODc4LDI1LjczMyAtMi42MjUsNTMuNDAxIC0yMi40ODEsNzMuMjEzIC0yNC44NzcsMjQuODIxIC02Mi4xMDcsMzAuMjg3IC05Mi40MDQsMTYuMzk2IGwgLTI1LjMzMywyNS4yNzcgYyAtNy45NiwtMi4xMDcgLTE2Ljc3NSwtMC4wNTcgLTIyLjk2Niw2LjEyIC05LjI0Myw5LjIyMiAtOS4yNDMsMjQuMzA5IDAsMzMuNTMyIGwgMTQuOTIxLDE0LjkxNSBjIC0xMC41NTYsLTEwLjUzMSAtMjcuODQ0LC0xMC41MzEgLTM4LjQsMCBDIDg3Ljc1NCw4LjM2OSA4Ni4wOTksMjEuMjYzIDkxLjM3NywzMS40ODIgODEuNzM0LDE4Ljk1OCAzNS4zMTgsNjQuMzAzIDMzLjMyMSw2Ni4yOTUgMTMuMTgsODIuNDM1IC00MS43NjcsNDUuNDMxIDAsMCIvPjwvZz48ZyB0cmFuc2Zvcm09InRyYW5zbGF0ZSgzMzkuODc0LDIzMy4wNDU5KSIgaWQ9Imc3NDEiPjxwYXRoIGlkPSJwYXRoNzQzIiBzdHlsZT0iZmlsbDojZmVkMWEzO2ZpbGwtb3BhY2l0eToxO2ZpbGwtcnVsZTpldmVub2RkO3N0cm9rZTpub25lIiBkPSJtIDAsMCBjIC05LjI0MywtOS4yMjMgLTkuMjQzLC0yNC4zMSAwLC0zMy41MzIgNi4xOTEsLTYuMTc3IDE1LjAwNiwtOC4yMjcgMjIuOTY2LC02LjEyIDMuOTA4LDEuMDI1IDcuNTg5LDMuMDc0IDEwLjY0MSw2LjEyIEwgNjkuNTUzLDIuMzM0IGMgOS4yNDQsOS4yMjMgOS4yNDQsMjQuMzEgMCwzMy41MzIgLTkuMjQzLDkuMjIzIC0yNC4zNjQsOS4yMjMgLTMzLjYzNSwwIEwgMzUuMzc2LDM1LjMyNSAxNC45MjEsMTQuOTE2IFoiLz48L2c+PGcgdHJhbnNmb3JtPSJ0cmFuc2xhdGUoMjg1LjcyNjYsMzMyLjMwNDIpIiBpZD0iZzc0NSI+PHBhdGggaWQ9InBhdGg3NDciIHN0eWxlPSJmaWxsOiNmZWQxYTM7ZmlsbC1vcGFjaXR5OjE7ZmlsbC1ydWxlOmV2ZW5vZGQ7c3Ryb2tlOm5vbmUiIGQ9Im0gMCwwIC03LjgxNiwtNy44IC00Ljg3OSwtNy4wODcgQyAtMjMuNTkzLC0zMC42NTcgMi4zNCwtNjEuODg0IDI2LjY0NiwtNTEuMTUyIGwgMjEuODUzLDUuNTc5IDMuMTY3LDIwLjQ5NSA3LjE4OCw3LjE3MyBDIDY5LjQxLC03LjM3MyA2OS40MSw5Ljg3NyA1OC44NTQsMjAuNDEgNDguMywzMC45NDEgMzEuMDExLDMwLjk0MSAyMC40NTUsMjAuNDEgTCA2LjMwNSw2LjI5MSBaIi8+PC9nPjxnIHRyYW5zZm9ybT0idHJhbnNsYXRlKDI2Ny43ODIyLDM5MS4wMjc4KSIgaWQ9Imc3NDkiPjxwYXRoIGlkPSJwYXRoNzUxIiBzdHlsZT0iZmlsbDojZmVkMWEzO2ZpbGwtb3BhY2l0eToxO2ZpbGwtcnVsZTpldmVub2RkO3N0cm9rZTpub25lIiBkPSJtIDAsMCAtMjguMjcxLC0yOC4yMDkgYyAtMTkuNTQyLC0xOS40OTkgMTAuNzI2LC01MS41MjIgMzguMzk5LC0zOC4zMTQgbCAyMi43MDksNi43NzQgNS41NjIsMjEuNDM1IEMgNDguOTU1LC0yNy43ODIgNDguOTU1LC0xMC41MzIgMzguMzk5LDAgMjcuODQ0LDEwLjUzMiAxMC41NTYsMTAuNTMyIDAsMCIvPjwvZz48ZyB0cmFuc2Zvcm09InRyYW5zbGF0ZSgxNTEuMjQzMiwyODQuMDU1NykiIGlkPSJnNzUzIj48cGF0aCBpZD0icGF0aDc1NSIgc3R5bGU9ImZpbGw6I2ZmZTVjMTtmaWxsLW9wYWNpdHk6MTtmaWxsLXJ1bGU6ZXZlbm9kZDtzdHJva2U6bm9uZSIgZD0ibSAwLDAgYyAxLjI4MywtMjEuMTc4IC04LjU4OCwtNDIuNTg0IC0zNy44NTgsLTcxLjc2MSBsIC0zMS43ODEsLTMxLjcxIDE3LjU3NCwtNjkuODI1IDg4LjA2OCwtMzUuNTgyIDUwLjk1Miw1MC44MzkgYyAxOS4wODYsMTkuMDQzIDIyLjc5NCwxNC45NDQgNDUuMzMyLDExLjcyNyAxMC4wOTksLTEuNDUxIDI0LjUwNiwzLjkyOSAzNi4wODksMTEuMDQ1IGwgLTk5LjUwOCw5OS4zMTUgYyAxMi4xODIsMTkuMjE0IDEzLjQwOCw0MS4zNiAxLjk5Nyw1NS4yMjMgLTAuMTQzLDAuMTcgLTAuMDI5LDAuMjU2IDAuMDg1LDAuMTQyIDUuMTA3LC01LjA5NSAxNy4yNiwtMTcuMjIyIDE3LjY1OSwtMTcuNjIgMTYuOTE4LC0xNi4zMTEgNTMuMjY0LC0zMC4xNDUgNzEuNjM2LC02LjI2MiAwLjI4NSwwLjUxMiAwLjU3LDEuMDUzIDAuODg1LDEuNTY1IDIuNzY2LDcuNDMgLTEwLjQ0MywxOS4zNTcgLTIzLjk5MywzMi45MDYgbCAtMTAuNDcsMTAuNDQ3IC0zOC4zOTksMzguMzE0IC03LjA3Niw3LjA2IEMgNzUuNTQ0LDkxLjQ1OCA2Ni4yNDMsOTEuNDU4IDYwLjU2Niw4NS43OTQgTCA0Ny42NDMsNzIuODk5IDE0LjM3OCwzOS43MDkgQyAxMC43MjcsMzYuMDY1IDcuNzYsMzEuODI0IDUuNTA2LDI3LjI0MSAxLjI4MywxOC43MDIgLTAuNTQyLDkuMDIzIDAsMCIvPjwvZz48ZyB0cmFuc2Zvcm09InRyYW5zbGF0ZSgxMzEuOTAwNCw0NjQuMDEyNykiIGlkPSJnNzU3Ij48cGF0aCBpZD0icGF0aDc1OSIgc3R5bGU9ImZpbGw6I2EwY2NkMjtmaWxsLW9wYWNpdHk6MTtmaWxsLXJ1bGU6ZXZlbm9kZDtzdHJva2U6bm9uZSIgZD0ibSAwLDAgYyAyMy42NSwtMjMuNTk4IDI2LjU2MSwtNTUuMTY2IDE1LjEyLC04NC41NDIgLTIuMDU0LC01LjIwOSAwLjk0MiwtNy4zMTUgNC45NjQsLTExLjMyOSBsIDI3LjQ0NCwtMjcuMzU1IDAuMTE1LC0zLjEzMSAxOS4zNDIsMTkuMjk5IC0zMS4wOTYsMzEuMDU2IEMgNDkuODExLC00NS43NzIgNDQuMzMzLC04LjYyNSAxOS40NTYsMTYuMTk3IC0wLjM5OSwzNi4wMDkgLTI4LjEyOSw0My40OTUgLTUzLjkxOSwzOC42MjcgLTcwLjYwOCwzNS40OTYgLTY5LjIzOSwyOC44NjQgLTY1LjAxNywyMy41NjkgLTQxLjczNywyNS41NjIgLTE3Ljc0NSwxNy42NzcgMCwwIi8+PC9nPjxnIHRyYW5zZm9ybT0idHJhbnNsYXRlKDI2NC4wNzMyLDMzOC4zMTAxKSIgaWQ9Imc3NjEiPjxwYXRoIGlkPSJwYXRoNzYzIiBzdHlsZT0iZmlsbDojZmZiYzg1O2ZpbGwtb3BhY2l0eToxO2ZpbGwtcnVsZTpldmVub2RkO3N0cm9rZTpub25lIiBkPSJtIDAsMCAxMy44MzcsLTEzLjgwNiA3LjgxNiw3LjggNi4zMDUsNi4yOTEgMTQuMTUsMTQuMTE5IGMgMTAuNTU2LDEwLjUzMiAxMC41NTYsMjcuNzgyIDAsMzguMzE0IC00LjMzNiw0LjI5OCAtOS43NTYsNi44MzEgLTE1LjQwNSw3LjYyOSA4LjMzLC0xMC42MTggNy41ODksLTI2LjEwMyAtMi4xNjgsLTM1Ljg2NyBMIDEwLjM4NSwxMC4zOSBaIi8+PC9nPjxnIHRyYW5zZm9ybT0idHJhbnNsYXRlKDMyNi4yMDksMzI2LjIxMjQpIiBpZD0iZzc2NSI+PHBhdGggaWQ9InBhdGg3NjciIHN0eWxlPSJmaWxsOiNmZmJjODU7ZmlsbC1vcGFjaXR5OjE7ZmlsbC1ydWxlOmV2ZW5vZGQ7c3Ryb2tlOm5vbmUiIGQ9Im0gMCwwIC0yNS4wNDgsLTI0Ljk5MiBjIDcuNzYsLTguMTEzIDEzLjA2NiwtMTUuMTE1IDExLjIxMiwtMjAuMDY5IDEuMTEyLDEuODIyIDIuNDUzLDMuNTU5IDQuMDIzLDUuMTI0IGwgMjguMTg1LDI4LjEyNCBjIDEwLjU1NiwxMC41MzIgMTAuNTU2LDI3Ljc4MiAwLDM4LjMxNCBDIDE0LjE3OSwzMC42NTcgOC45MywzMy4xOSAzLjQ4LDM0LjA0NCAxMC4zODUsMjMuNTY5IDkuMjQzLDkuMjIzIDAsMCIvPjwvZz48ZyB0cmFuc2Zvcm09InRyYW5zbGF0ZSgzMzQuODUzNSwyMDYuODg2MikiIGlkPSJnNzY5Ij48cGF0aCBpZD0icGF0aDc3MSIgc3R5bGU9ImZpbGw6I2ZmYmM4NTtmaWxsLW9wYWNpdHk6MTtmaWxsLXJ1bGU6ZXZlbm9kZDtzdHJva2U6bm9uZSIgZD0ibSAwLDAgYyAxLjE0MSwtMi42NzYgMi44MjQsLTUuMTgxIDUuMDIxLC03LjM3MyA2LjE5MSwtNi4xNzYgMTUuMDA1LC04LjIyNiAyMi45NjUsLTYuMTIgMy45MDksMS4wMjUgNy41ODksMy4wNzUgMTAuNjQyLDYuMTIgbCAzNS45NDUsMzUuODY3IGMgOS4yNDQsOS4yMjIgOS4yNDQsMjQuMzA5IDAsMzMuNTMyIC0zLjMzOCwzLjMzIC03LjQxNyw1LjQ2NSAtMTEuNzI0LDYuMzc2IDMuNzA4LC04LjY1MyAyLjA1MywtMTkuMTI5IC01LjAyMiwtMjYuMTYgTCAyMS44ODEsNi4zNzYgQyAxOC44NTcsMy4zMzEgMTUuMTQ4LDEuMjgxIDExLjI0LDAuMjU2IDcuNTYsLTAuNzExIDMuNzA4LC0wLjc5NyAwLDAiLz48L2c+PGcgdHJhbnNmb3JtPSJ0cmFuc2xhdGUoMzkwLjU5ODYsMTQ0LjQwNTMpIiBpZD0iZzc3MyI+PHBhdGggaWQ9InBhdGg3NzUiIHN0eWxlPSJmaWxsOiNhMGNjZDI7ZmlsbC1vcGFjaXR5OjE7ZmlsbC1ydWxlOmV2ZW5vZGQ7c3Ryb2tlOm5vbmUiIGQ9Im0gMCwwIGMgNTMuNjYyLDE0Ljc3MyA5MC42NjQsLTEzLjg5MSAxMTIuNDYsLTY1Ljg5NyA0Ljg3OCwyNS43MzIgLTIuNjI1LDUzLjQgLTIyLjQ4MSw3My4yMTIgQyA2NS4xMDIsMzIuMTM3IDI3Ljg3MiwzNy42MDMgLTIuNDI2LDIzLjcxMSBsIC0yNS4zMzMsMjUuMjc3IGMgLTcuOTYsLTIuMTA2IC0xNi43NzQsLTAuMDU2IC0yMi45NjYsNi4xMiAtMi4xOTYsMi4xOTIgLTMuODc5LDQuNjk3IC01LjAyLDcuMzczIC0zLjcwOSw4LjY1MyAtMi4wNTUsMTkuMTI4IDUuMDIsMjYuMTYgbCAxNC45MjEsMTQuOTE1IGMgLTEwLjU1NSwtMTAuNTMyIC0yNy44NDMsLTEwLjUzMiAtMzguMzk5LDAgLTEuNDI3LDEuNDIzIC0yLjY1MywyLjkzMiAtMy42ODEsNC41NTUgLTUuMjIsOC4xNjkgLTUuNjIsMTguNTU5IC0xLjIyNiwyNy4wNyAtMTguMzcyLC0yMy44ODIgLTg3LjgxMiwyMy4yODUgLTcxLjYzNiw2LjI2MiBMIC0yNS43MDUsMTAuMDc3IEMgLTEyLjIzOSwtNC4wNzEgLTE2Ljk3NSwtNC42NjggMCwwIi8+PC9nPjxnIHRyYW5zZm9ybT0idHJhbnNsYXRlKDIzOS44NTI1LDI4NS44NDg2KSIgaWQ9Imc3NzciPjxwYXRoIGlkPSJwYXRoNzc5IiBzdHlsZT0iZmlsbDojZmVkMWEzO2ZpbGwtb3BhY2l0eToxO2ZpbGwtcnVsZTpldmVub2RkO3N0cm9rZTpub25lIiBkPSJtIDAsMCBjIDE2LjkxOCwtMTYuMzExIDUzLjI2NCwtMzAuMTQ1IDcxLjYzNiwtNi4yNjIgMC4yODUsMC41MTIgMC41NywxLjA1MyAwLjg4NSwxLjU2NSBDIDc0LjM3NCwwLjI1NiA2OS4wNjgsNy4yNTkgNjEuMzA5LDE1LjM3MiA1NC40MzMsOS41MDcgNDUuOTYsNy4zNDQgMzcuMjAxLDcuNjU3IDM2LjgzMSw3LjY4NiAzNi40ODgsNy42ODYgMzYuMTE3LDcuNzE0IDIwLjU2OSw4LjY1NCA0LjI1MSwxNy4yNzkgLTUuNTM0LDI2LjcyOSBjIC0wLjExNCwwLjExNCAtMS41OTgsMS41OTQgLTMuNjgxLDMuNjcyIC0yLjUxLDIuNDc2IC0yLjg1MiwyLjg3NSAtNS45MDUsNS44OTIgLTEuODU1LDIuMzA2IC01LjQsMC40MTkgLTUuOTgzLC0wLjc0MSAtMi4wNTIsLTQuMDgyIC0xLjkzNCwtNS44MDUgLTEuMjUsLTEwLjEwNCAwLjU3MSwtMy43MjkgMy4zMjUsLTYuNDkgNC43OCwtNy44MjggQyAtMTEuODExLDExLjg5OCAtMC4zNDIsMC4zNDIgMCwwIi8+PC9nPjxnIHRyYW5zZm9ybT0idHJhbnNsYXRlKDE5LjE4MzYsMTE4LjMwMjIpIiBpZD0iZzc4MSI+PHBhdGggaWQ9InBhdGg3ODMiIHN0eWxlPSJmaWxsOiM2YmQ5ZTc7ZmlsbC1vcGFjaXR5OjE7ZmlsbC1ydWxlOmV2ZW5vZGQ7c3Ryb2tlOm5vbmUiIGQ9Im0gMCwwIDEwNS42NDIsLTEwNS40MDcgYyAyLjY1MywtMi42NDcgNS45OTEsLTQuMjQxIDkuNDQzLC00Ljc1MyBoIDUuMjc3IGMgMy40ODEsMC41MTIgNi43OSwyLjEwNiA5LjQ0NCw0Ljc1MyBsIDM4LjI1NiwzOC4xNzIgYyA2LjY0OCw2LjYzMiA2LjY0OCwxNy40NzggMCwyNC4xMSBMIDYyLjQyMSw2Mi4yODIgYyAtNi42NDgsNi42MzMgLTE3LjUxNyw2LjYzMyAtMjQuMTY0LDAgTCAwLDI0LjExIEMgLTYuNjQ3LDE3LjQ3OCAtNi42NDcsNi42MzIgMCwwIi8+PC9nPjxnIHRyYW5zZm9ybT0idHJhbnNsYXRlKDk0LjQ0MjQsNDMuMjEwOSkiIGlkPSJnNzg1Ij48cGF0aCBpZD0icGF0aDc4NyIgc3R5bGU9ImZpbGw6IzAwYzdkZDtmaWxsLW9wYWNpdHk6MTtmaWxsLXJ1bGU6ZXZlbm9kZDtzdHJva2U6bm9uZSIgZD0ibSAwLDAgMzAuMzgzLC0zMC4zMTUgYyAyLjY1MywtMi42NDcgNS45OTEsLTQuMjQyIDkuNDQzLC00Ljc1NCBoIDUuMjc4IGMgMy40OCwwLjUxMiA2Ljc5LDIuMTA3IDkuNDQzLDQuNzU0IEwgOTIuODA0LDcuODU2IGMgNi42NDcsNi42MzMgNi42NDcsMTcuNDc4IDAsMjQuMTExIEwgNjIuMzkyLDYyLjMxMSBjIDYuNjQ3LC02LjYzMyA2LjY0NywtMTcuNDc4IDAsLTI0LjExIEwgMjQuMTM1LDAuMDI5IEMgMjEuNDgxLC0yLjYxOSAxOC4xNzMsLTQuMjEzIDE0LjcyMSwtNC43NTMgSCA5LjQxNCBDIDUuOTYyLC00LjIxMyAyLjY1MywtMi42MTkgMCwwIi8+PC9nPjxnIHRyYW5zZm9ybT0idHJhbnNsYXRlKDIxNC43NDcxLDE0OS4zODYyKSIgaWQ9Imc3ODkiPjxwYXRoIGlkPSJwYXRoNzkxIiBzdHlsZT0iZmlsbDojZmVkMWEzO2ZpbGwtb3BhY2l0eToxO2ZpbGwtcnVsZTpldmVub2RkO3N0cm9rZTpub25lIiBkPSJtIDAsMCAtNTAuOTUyLC01MC44MzkgMjMuNDUxLC0yMy4zNjkgNTAuOTUyLDUwLjgzOCBjIDE5LjA4NiwxOS4wNDMgMjIuNzk0LDE0Ljk0NSA0NS4zMzIsMTEuNzI4IDEwLjA5OSwtMS40NTIgMjQuNTA2LDMuOTI4IDM2LjA4OSwxMS4wNDQgTCA4MS40NSwyMi44MDEgQyA3OC41MTIsMjEuMDA3IDc1LjQwMSwxOS4zIDcyLjIzNSwxNy44MTkgNjIuODQ5LDEzLjQwNyA1Mi44OTMsMTAuNjc1IDQ1LjMzMywxMS43NTYgMjIuODIzLDE0Ljk3MyAxOS4wODYsMTkuMDQzIDAsMCIvPjwvZz48ZyB0cmFuc2Zvcm09InRyYW5zbGF0ZSgyNzcuOTEwMiwzMjQuNTA0NCkiIGlkPSJnNzkzIj48cGF0aCBpZD0icGF0aDc5NSIgc3R5bGU9ImZpbGw6bm9uZTtzdHJva2U6IzAwMDAwMDtzdHJva2Utd2lkdGg6MTU7c3Ryb2tlLWxpbmVjYXA6cm91bmQ7c3Ryb2tlLWxpbmVqb2luOnJvdW5kO3N0cm9rZS1taXRlcmxpbWl0OjEwO3N0cm9rZS1kYXNoYXJyYXk6bm9uZTtzdHJva2Utb3BhY2l0eToxIiBkPSJtIDAsMCA3LjgxNiw3LjggMjAuNDU1LDIwLjQwOSBjIDEwLjU1NiwxMC41MzIgMTAuNTU2LDI3Ljc4MiAwLDM4LjMxNCAtMTAuNTU1LDEwLjUzMyAtMjcuODQzLDEwLjUzMyAtMzguMzk5LDAgTCAtMzguMzk5LDM4LjMxNCIvPjwvZz48ZyB0cmFuc2Zvcm09InRyYW5zbGF0ZSg0MDkuNDI2OCwyNjguOTEyMSkiIGlkPSJnNzk3Ij48cGF0aCBpZD0icGF0aDc5OSIgc3R5bGU9ImZpbGw6bm9uZTtzdHJva2U6IzAwMDAwMDtzdHJva2Utd2lkdGg6MTU7c3Ryb2tlLWxpbmVjYXA6cm91bmQ7c3Ryb2tlLWxpbmVqb2luOnJvdW5kO3N0cm9rZS1taXRlcmxpbWl0OjEwO3N0cm9rZS1kYXNoYXJyYXk6bm9uZTtzdHJva2Utb3BhY2l0eToxIiBkPSJtIDAsMCBjIC05LjI0Myw5LjIyMyAtMjQuMzkyLDkuMjIzIC0zMy42MzUsMCBsIC0zNS45MTgsLTM1Ljg2NiBjIC05LjI0MywtOS4yMjMgLTkuMjQzLC0yNC4zMSAwLC0zMy41MzIgOS4yNDMsLTkuMjIzIDI0LjM2NCwtOS4yMjMgMzMuNjA4LDAgTCAwLC0zMy41MzIgQyA5LjI0NCwtMjQuMzEgOS4yNDQsLTkuMjIzIDAsMCBaIi8+PC9nPjxnIHRyYW5zZm9ybT0idHJhbnNsYXRlKDM0MC45ODczLDMxMC44MTMpIiBpZD0iZzgwMSI+PHBhdGggaWQ9InBhdGg4MDMiIHN0eWxlPSJmaWxsOm5vbmU7c3Ryb2tlOiMwMDAwMDA7c3Ryb2tlLXdpZHRoOjE1O3N0cm9rZS1saW5lY2FwOnJvdW5kO3N0cm9rZS1saW5lam9pbjpyb3VuZDtzdHJva2UtbWl0ZXJsaW1pdDoxMDtzdHJva2UtZGFzaGFycmF5Om5vbmU7c3Ryb2tlLW9wYWNpdHk6MSIgZD0ibSAwLDAgYyAtMy41OTUsLTMuNTg3IDMuNzk0LDMuNzg2IDMuOTA4LDMuODk5IDEwLjI0MSwxMC41NjEgMTAuMTI4LDI3LjU1NSAtMC4zMTQsMzguMDAyIC0xMC41NTUsMTAuNTMyIC0yNy44NDQsMTAuNTMyIC0zOC40LDAgbCAtMTQuMTUsLTE0LjExOSIvPjwvZz48ZyB0cmFuc2Zvcm09InRyYW5zbGF0ZSgzMzYuNzkzLDg2LjM5MzEpIiBpZD0iZzgwNSI+PHBhdGggaWQ9InBhdGg4MDciIHN0eWxlPSJmaWxsOm5vbmU7c3Ryb2tlOiMwMDAwMDA7c3Ryb2tlLXdpZHRoOjE1O3N0cm9rZS1saW5lY2FwOnJvdW5kO3N0cm9rZS1saW5lam9pbjpyb3VuZDtzdHJva2UtbWl0ZXJsaW1pdDoxMDtzdHJva2UtZGFzaGFycmF5Om5vbmU7c3Ryb2tlLW9wYWNpdHk6MSIgZD0ibSAwLDAgYyAtMC41NDIsMTIuODk1IDEuOTExLDI1LjkzMiA3LjQxOCwzNy44NTggbCAtMTI0LjEsMTIzLjg1MyBNIDI2LjA0NywxMDcgNTEuMzgsODEuNzI0IGMgMzAuMjk4LDEzLjg5MSA2Ny41MjcsOC40MjUgOTIuNDA0LC0xNi4zOTYgMTkuODU3LC0xOS44MTIgMjcuMzYsLTQ3LjQ4IDIyLjQ4MiwtNzMuMjEzIC01LjEwOCwtMjcuMDEzIC0xOS4zNzEsLTYuNTc1IC0yMi4yODIsLTMuNjcyIEwgMTA5LjE1LDIzLjE5OSBDIDk2Ljk2OSwzNS4zNTQgNzcuMzcsMzUuODY2IDY0LjU2MSwyNC43MDggNTMuMzc3LDExLjkyNyA1My44OTEsLTcuNjI5IDY2LjA3MiwtMTkuNzg0IGwgMzQuODM0LC0zNC43NTYgYyAyLjkxLC0yLjkwMyAyMy4zOTQsLTE3LjEzNiAtMy42OCwtMjIuMjMxIC0yNS43OSwtNC44NjggLTUzLjUyLDIuNjE5IC03My4zNzUsMjIuNDMxIC02LjE5Miw2LjIwNSAtMTEuMTg0LDEzLjE1MSAtMTQuOTc4LDIwLjU1MSBtIC0xNDYuNzgsMzA0LjM1MSAtMzEuMDk3LDMxLjA1NiBjIDEzLjkyMiwzMC4yMyA4LjQ0NCw2Ny4zNzcgLTE2LjQzMyw5Mi4xOTggLTE5Ljg1NSwxOS44MTIgLTQ3LjU4NCwyNy4yOTkgLTczLjM3NSwyMi40MzEgLTI3LjA3NCwtNS4wOTUgLTYuNTksLTE5LjMyOCAtMy42OCwtMjIuMjMxIGwgMzQuODM0LC0zNC43NTYgYyAxMi4xODEsLTEyLjE1NSAxMi42OTUsLTMxLjcxMSAxLjUxMiwtNDQuNDkxIC0xMi44MSwtMTEuMTU5IC0zMi40MDksLTEwLjY0NiAtNDQuNTksMS41MDggbCAtMzQuODM0LDM0Ljc1NiBjIC0yLjkxLDIuOTA0IC0xNy4xNzQsMjMuMzQyIC0yMi4yODIsLTMuNjcyIC00Ljg3NywtMjUuNzMzIDIuNjI1LC01My40MDEgMjIuNDgyLC03My4yMTMgMjQuODc3LC0yNC44MjEgNjIuMTA2LC0zMC4yODcgOTIuNDA0LC0xNi4zOTYgbCAzMi45MjIsLTMyLjg0OCIvPjwvZz48ZyB0cmFuc2Zvcm09InRyYW5zbGF0ZSgxNDQuMjI0NiwxMTguMTAzKSIgaWQ9Imc4MDkiPjxwYXRoIGlkPSJwYXRoODExIiBzdHlsZT0iZmlsbDpub25lO3N0cm9rZTojMDAwMDAwO3N0cm9rZS13aWR0aDoxNTtzdHJva2UtbGluZWNhcDpyb3VuZDtzdHJva2UtbGluZWpvaW46cm91bmQ7c3Ryb2tlLW1pdGVybGltaXQ6MTA7c3Ryb2tlLWRhc2hhcnJheTpub25lO3N0cm9rZS1vcGFjaXR5OjEiIGQ9Im0gMCwwIDQzLjAyMSwtNDIuOTI1IGMgNi42NDgsLTYuNjMzIDYuNjQ4LC0xNy40NzggMCwtMjQuMTExIEwgNC43NjUsLTEwNS4yMDggYyAtNi42NDgsLTYuNjMyIC0xNy41MTcsLTYuNjMyIC0yNC4xNjQsMCBMIC0xMjUuMDQxLDAuMTk5IGMgLTYuNjQ3LDYuNjMzIC02LjY0NywxNy40NzggMCwyNC4xMTEgbCAzOC4yNTcsMzguMTcxIGMgNi42NDcsNi42MzMgMTcuNTE2LDYuNjMzIDI0LjE2NCwwIGwgMzcuODI5LC0zNy43NDUiLz48L2c+PGcgdHJhbnNmb3JtPSJ0cmFuc2xhdGUoMTg3LjI0NjEsNzUuMTc3NykiIGlkPSJnODEzIj48cGF0aCBpZD0icGF0aDgxNSIgc3R5bGU9ImZpbGw6bm9uZTtzdHJva2U6IzAwMDAwMDtzdHJva2Utd2lkdGg6MTU7c3Ryb2tlLWxpbmVjYXA6cm91bmQ7c3Ryb2tlLWxpbmVqb2luOnJvdW5kO3N0cm9rZS1taXRlcmxpbWl0OjEwO3N0cm9rZS1kYXNoYXJyYXk6bm9uZTtzdHJva2Utb3BhY2l0eToxIiBkPSJtIDAsMCA1MC45NTIsNTAuODM5IGMgMTkuMDg2LDE5LjA0MyAyMi43OTQsMTQuOTQ0IDQ1LjMzMiwxMS43MjcgMTAuMDk5LC0xLjQ1MSAyNC41MDYsMy45MjkgMzYuMDg5LDExLjA0NSIvPjwvZz48ZyB0cmFuc2Zvcm09InRyYW5zbGF0ZSgzMDQuMzI3MSwyNzIuNDEzMSkiIGlkPSJnODE3Ij48cGF0aCBpZD0icGF0aDgxOSIgc3R5bGU9ImZpbGw6I2ZlZDFhMztmaWxsLW9wYWNpdHk6MTtmaWxsLXJ1bGU6ZXZlbm9kZDtzdHJva2U6bm9uZSIgZD0ibSAwLDAgYyAtNS4yNzcsLTEwLjE5IC0zLjY1MSwtMjMuMDg1IDQuOTA3LC0zMS41OTYgMTAuNTU2LC0xMC41NjEgMjcuODQ0LC0xMC41NjEgMzguNCwwIGwgMTkuNTcxLDYuNjMyIDguNTg3LDIxLjQ2MyBjIDEwLjU4NCwxMC41MzIgMTAuNTg0LDI3Ljc4MiAwLDM4LjMxNCAtMTAuNTU2LDEwLjUzMiAtMjcuODQ0LDEwLjUzMiAtMzguNCwwIEwgNC45MDcsNi43MTggQyAzLjMxLDUuMTI0IDEuOTY5LDMuNDE2IDAuODU2LDEuNTY2IDAuNjU2LDEuMDI1IDAuMzcxLDAuNTEzIDAsMCIvPjwvZz48ZyB0cmFuc2Zvcm09InRyYW5zbGF0ZSgzNTkuMTU5MiwzMTUuMDI1OSkiIGlkPSJnODIxIj48cGF0aCBpZD0icGF0aDgyMyIgc3R5bGU9ImZpbGw6I2ZmYmM4NTtmaWxsLW9wYWNpdHk6MTtmaWxsLXJ1bGU6ZXZlbm9kZDtzdHJva2U6bm9uZSIgZD0ibSAwLDAgYyA2LjcwNSwtMTAuNDc2IDUuNDc4LC0yNC42MjMgLTMuNjgsLTMzLjc2IGwgLTI4LjE1OCwtMjguMTI0IGMgLTUuOTMzLC01Ljg5MiAtMTMuOTc4LC04LjUxMSAtMjEuNzY2LC03Ljc3MSAxLjAyNiwtMS42MjIgMi4yNTIsLTMuMTU5IDMuNjc5LC00LjU1NCAxMC41NTYsLTEwLjU2MSAyNy44NDQsLTEwLjU2MSAzOC40LDAgbCAyOC4xNTgsMjguMDk1IGMgMTAuNTg0LDEwLjUzMiAxMC41ODQsMjcuNzgyIDAsMzguMzE0IEMgMTIuMDExLC0zLjE2IDYuMTA1LC0wLjU2OSAwLDAiLz48L2c+PGcgdHJhbnNmb3JtPSJ0cmFuc2xhdGUoMzc1Ljc5MiwzMDcuMjI2MSkiIGlkPSJnODI1Ij48cGF0aCBpZD0icGF0aDgyNyIgc3R5bGU9ImZpbGw6bm9uZTtzdHJva2U6IzAwMDAwMDtzdHJva2Utd2lkdGg6MTU7c3Ryb2tlLWxpbmVjYXA6cm91bmQ7c3Ryb2tlLWxpbmVqb2luOnJvdW5kO3N0cm9rZS1taXRlcmxpbWl0OjEwO3N0cm9rZS1kYXNoYXJyYXk6bm9uZTtzdHJva2Utb3BhY2l0eToxIiBkPSJtIDAsMCBjIC0xMC41NTYsMTAuNTMyIC0yNy44NDQsMTAuNTMyIC0zOC4zOTksMCBsIC0yOC4xNTksLTI4LjA5NSBjIC0xMC41ODQsLTEwLjU2MSAtMTAuNTg0LC0yNy43ODIgMCwtMzguMzE0IDEwLjU1NiwtMTAuNTYxIDI3Ljg0NCwtMTAuNTYxIDM4LjQsMCBMIDAsLTM4LjMxNCBDIDEwLjU4NCwtMjcuNzgyIDEwLjU4NCwtMTAuNTMyIDAsMCBaIi8+PC9nPjxnIHRyYW5zZm9ybT0idHJhbnNsYXRlKDMxMi43MTQ4LDI4Mi41NzUyKSIgaWQ9Imc4MjkiPjxwYXRoIGlkPSJwYXRoODMxIiBzdHlsZT0iZmlsbDpub25lO3N0cm9rZTojMDAwMDAwO3N0cm9rZS13aWR0aDoxNTtzdHJva2UtbGluZWNhcDpyb3VuZDtzdHJva2UtbGluZWpvaW46cm91bmQ7c3Ryb2tlLW1pdGVybGltaXQ6MTA7c3Ryb2tlLWRhc2hhcnJheTpub25lO3N0cm9rZS1vcGFjaXR5OjEiIGQ9Im0gMCwwIGMgMC43NzEsNy40ODYgLTExLjYxMSwxOC43ODcgLTI0LjMzNSwzMS40ODMgbCAtNTUuOTQ0LDU1LjgyIGMgLTUuNjQ5LDUuNjM2IC0xNC45NSw1LjYzNiAtMjAuNjI2LC0wLjAyOSBMIC0xNDcuMDk0LDQxLjE4OSBDIC0xNTcuNTkyLDMwLjcxNCAtMTYyLjMsMTUuMzE0IC0xNjEuNDcyLDEuNDggYyAxLjI4NCwtMjEuMTc4IC04LjU4OCwtNDIuNTg0IC0zNy44NTgsLTcxLjc2MSBsIC0zMS43OCwtMzEuNzEgTSAtOTIuNzQ2LDIzLjExNCBjIDAuNDg0LC0wLjUxMiAxOS4zOTksLTE5LjM1NyAxOS44ODQsLTE5Ljg0MSAxNC45NzcsLTE0LjQ2IDQ1LjE4OSwtMjYuOTI3IDY0LjY3NCwtMTMuMDM3Ii8+PC9nPjxnIHRyYW5zZm9ybT0idHJhbnNsYXRlKDIxOS45Njg3LDMwNS42ODkpIiBpZD0iZzgzMyI+PHBhdGggaWQ9InBhdGg4MzUiIHN0eWxlPSJmaWxsOm5vbmU7c3Ryb2tlOiMwMDAwMDA7c3Ryb2tlLXdpZHRoOjE1O3N0cm9rZS1saW5lY2FwOnJvdW5kO3N0cm9rZS1saW5lam9pbjpyb3VuZDtzdHJva2UtbWl0ZXJsaW1pdDoxMDtzdHJva2UtZGFzaGFycmF5Om5vbmU7c3Ryb2tlLW9wYWNpdHk6MSIgZD0iTSAwLDAgQyAxNi42ODgsLTE2LjY1MiAxMi4wNjcsLTQ4LjI0OSAtMTAuMjk5LC03MC41NjUiLz48L2c+PC9nPjwvZz48L2c+PC9zdmc+;fontFamily=Poppins;fontSource=https%3A%2F%2Ffonts.googleapis.com%2Fcss%3Ffamily%3DPoppins;" vertex="1" parent="1">
          <mxGeometry x="694.96" y="250" width="50.08" height="50" as="geometry" />
        </mxCell>
        <mxCell id="boy779TEuCWVPhwvG-UE-13" value="Income Statement" style="shape=image;verticalLabelPosition=bottom;labelBackgroundColor=none;verticalAlign=top;aspect=fixed;imageAspect=0;editableCssRules=.*;image=data:image/svg+xml,PHN2ZyB4bWxucz0iaHR0cDovL3d3dy53My5vcmcvMjAwMC9zdmciIHZpZXdCb3g9IjkuOTk5NjMyODM1Mzg4MTg0IDEwLjU2MTU0MzQ2NDY2MDY0NSA2NjIuNjY3Nzg1NjQ0NTMxMiA2NjEuNTQzODIzMjQyMTg3NSIgaGVpZ2h0PSI2NjEuNTQzODIzMjQyMTg3NSIgd2lkdGg9IjY2Mi42Njc3ODU2NDQ1MzEyIiB4bWw6c3BhY2U9InByZXNlcnZlIiBpZD0ic3ZnNzE3IiB2ZXJzaW9uPSIxLjEiPjxkZWZzIGlkPSJkZWZzNzIxIj48Y2xpcFBhdGggaWQ9ImNsaXBQYXRoNzMxIiBjbGlwUGF0aFVuaXRzPSJ1c2VyU3BhY2VPblVzZSI+PHBhdGggaWQ9InBhdGg3MjkiIGQ9Ik0gMCw1MTIgSCA1MTIgViAwIEggMCBaIi8+PC9jbGlwUGF0aD48L2RlZnM+PGcgdHJhbnNmb3JtPSJtYXRyaXgoMS4zMzMzMzMzLDAsMCwtMS4zMzMzMzMzLDAsNjgyLjY2NjY3KSIgaWQ9Imc3MjMiPjxnIGlkPSJnNzI1Ij48ZyBjbGlwLXBhdGg9InVybCgjY2xpcFBhdGg3MzEpIiBpZD0iZzcyNyI+PGcgdHJhbnNmb3JtPSJ0cmFuc2xhdGUoOC45NDE0LDQzMy43NTQ0KSIgaWQ9Imc3MzMiPjxwYXRoIGlkPSJwYXRoNzM1IiBzdHlsZT0iZmlsbDojZGVlY2YwO2ZpbGwtb3BhY2l0eToxO2ZpbGwtcnVsZTpldmVub2RkO3N0cm9rZTpub25lIiBkPSJtIDAsMCBjIC00Ljg3OCwtMjUuNzMzIDIuNjI1LC01My40MDEgMjIuNDgxLC03My4yMTMgMjQuODc3LC0yNC44MjIgNjIuMTA3LC0zMC4yODcgOTIuNDA1LC0xNi4zOTYgbCAzMi45MjIsLTMyLjg0OSBoIDQzLjg0OCBsIC0xLjcxMiw0NS42NTkgLTMxLjA5NiwzMS4wNTUgYyAxMy45MjIsMzAuMjMgOC40NDQsNjcuMzc3IC0xNi40MzMsOTIuMTk5IEMgMTIyLjU2LDY2LjI2NyA5NC44Myw3My43NTMgNjkuMDQsNjguODg2IDQxLjk2Niw2My43OTEgNjIuNDQ5LDQ5LjU1OCA2NS4zNTksNDYuNjU0IGwgMzQuODM0LC0zNC43NTYgYyAxMi4xODIsLTEyLjE1NCAxMi42OTYsLTMxLjcxIDEuNTEyLC00NC40OTEgLTEyLjgwOSwtMTEuMTU4IC0zMi40MDgsLTEwLjY0NiAtNDQuNTksMS41MDkgTCAyMi4yODEsMy42NzIgQyAxOS4zNzEsNi41NzUgNS4xMDcsMjcuMDEzIDAsMCIvPjwvZz48ZyB0cmFuc2Zvcm09InRyYW5zbGF0ZSgyMjAuMTExMywyNDguMTA0KSIgaWQ9Imc3MzciPjxwYXRoIGlkPSJwYXRoNzM5IiBzdHlsZT0iZmlsbDojZGVlY2YwO2ZpbGwtb3BhY2l0eToxO2ZpbGwtcnVsZTpldmVub2RkO3N0cm9rZTpub25lIiBkPSJtIDAsMCAxOC4xMTUsLTUzLjQwMSA4MS4zOTMsLTQ1LjkxNCAyNC41OTIsLTI0LjUzOCBjIC0xMy45MjIsLTMwLjIzIC04LjQ0NiwtNjcuMzc2IDE2LjQzMiwtOTIuMTk4IDE5Ljg1NiwtMTkuODEyIDQ3LjU4NSwtMjcuMjk5IDczLjM3NSwtMjIuNDMxIDI3LjA3NCw1LjA5NSA2LjU5MSwxOS4zMjggMy42ODEsMjIuMjMyIGwgLTM0LjgzNCwzNC43NTUgYyAtMTIuMTgyLDEyLjE1NSAtMTIuNjk1LDMxLjcxMSAtMS41MTIsNDQuNDkyIDEyLjgxLDExLjE1OCAzMi40MDgsMTAuNjQ2IDQ0LjU5LC0xLjUwOSBsIDM0LjgzNCwtMzQuNzU2IGMgMi45MSwtMi45MDMgMTcuMTc0LC0yMy4zNDEgMjIuMjgxLDMuNjcyIDQuODc4LDI1LjczMyAtMi42MjUsNTMuNDAxIC0yMi40ODEsNzMuMjEzIC0yNC44NzcsMjQuODIxIC02Mi4xMDcsMzAuMjg3IC05Mi40MDQsMTYuMzk2IGwgLTI1LjMzMywyNS4yNzcgYyAtNy45NiwtMi4xMDcgLTE2Ljc3NSwtMC4wNTcgLTIyLjk2Niw2LjEyIC05LjI0Myw5LjIyMiAtOS4yNDMsMjQuMzA5IDAsMzMuNTMyIGwgMTQuOTIxLDE0LjkxNSBjIC0xMC41NTYsLTEwLjUzMSAtMjcuODQ0LC0xMC41MzEgLTM4LjQsMCBDIDg3Ljc1NCw4LjM2OSA4Ni4wOTksMjEuMjYzIDkxLjM3NywzMS40ODIgODEuNzM0LDE4Ljk1OCAzNS4zMTgsNjQuMzAzIDMzLjMyMSw2Ni4yOTUgMTMuMTgsODIuNDM1IC00MS43NjcsNDUuNDMxIDAsMCIvPjwvZz48ZyB0cmFuc2Zvcm09InRyYW5zbGF0ZSgzMzkuODc0LDIzMy4wNDU5KSIgaWQ9Imc3NDEiPjxwYXRoIGlkPSJwYXRoNzQzIiBzdHlsZT0iZmlsbDojZmVkMWEzO2ZpbGwtb3BhY2l0eToxO2ZpbGwtcnVsZTpldmVub2RkO3N0cm9rZTpub25lIiBkPSJtIDAsMCBjIC05LjI0MywtOS4yMjMgLTkuMjQzLC0yNC4zMSAwLC0zMy41MzIgNi4xOTEsLTYuMTc3IDE1LjAwNiwtOC4yMjcgMjIuOTY2LC02LjEyIDMuOTA4LDEuMDI1IDcuNTg5LDMuMDc0IDEwLjY0MSw2LjEyIEwgNjkuNTUzLDIuMzM0IGMgOS4yNDQsOS4yMjMgOS4yNDQsMjQuMzEgMCwzMy41MzIgLTkuMjQzLDkuMjIzIC0yNC4zNjQsOS4yMjMgLTMzLjYzNSwwIEwgMzUuMzc2LDM1LjMyNSAxNC45MjEsMTQuOTE2IFoiLz48L2c+PGcgdHJhbnNmb3JtPSJ0cmFuc2xhdGUoMjg1LjcyNjYsMzMyLjMwNDIpIiBpZD0iZzc0NSI+PHBhdGggaWQ9InBhdGg3NDciIHN0eWxlPSJmaWxsOiNmZWQxYTM7ZmlsbC1vcGFjaXR5OjE7ZmlsbC1ydWxlOmV2ZW5vZGQ7c3Ryb2tlOm5vbmUiIGQ9Im0gMCwwIC03LjgxNiwtNy44IC00Ljg3OSwtNy4wODcgQyAtMjMuNTkzLC0zMC42NTcgMi4zNCwtNjEuODg0IDI2LjY0NiwtNTEuMTUyIGwgMjEuODUzLDUuNTc5IDMuMTY3LDIwLjQ5NSA3LjE4OCw3LjE3MyBDIDY5LjQxLC03LjM3MyA2OS40MSw5Ljg3NyA1OC44NTQsMjAuNDEgNDguMywzMC45NDEgMzEuMDExLDMwLjk0MSAyMC40NTUsMjAuNDEgTCA2LjMwNSw2LjI5MSBaIi8+PC9nPjxnIHRyYW5zZm9ybT0idHJhbnNsYXRlKDI2Ny43ODIyLDM5MS4wMjc4KSIgaWQ9Imc3NDkiPjxwYXRoIGlkPSJwYXRoNzUxIiBzdHlsZT0iZmlsbDojZmVkMWEzO2ZpbGwtb3BhY2l0eToxO2ZpbGwtcnVsZTpldmVub2RkO3N0cm9rZTpub25lIiBkPSJtIDAsMCAtMjguMjcxLC0yOC4yMDkgYyAtMTkuNTQyLC0xOS40OTkgMTAuNzI2LC01MS41MjIgMzguMzk5LC0zOC4zMTQgbCAyMi43MDksNi43NzQgNS41NjIsMjEuNDM1IEMgNDguOTU1LC0yNy43ODIgNDguOTU1LC0xMC41MzIgMzguMzk5LDAgMjcuODQ0LDEwLjUzMiAxMC41NTYsMTAuNTMyIDAsMCIvPjwvZz48ZyB0cmFuc2Zvcm09InRyYW5zbGF0ZSgxNTEuMjQzMiwyODQuMDU1NykiIGlkPSJnNzUzIj48cGF0aCBpZD0icGF0aDc1NSIgc3R5bGU9ImZpbGw6I2ZmZTVjMTtmaWxsLW9wYWNpdHk6MTtmaWxsLXJ1bGU6ZXZlbm9kZDtzdHJva2U6bm9uZSIgZD0ibSAwLDAgYyAxLjI4MywtMjEuMTc4IC04LjU4OCwtNDIuNTg0IC0zNy44NTgsLTcxLjc2MSBsIC0zMS43ODEsLTMxLjcxIDE3LjU3NCwtNjkuODI1IDg4LjA2OCwtMzUuNTgyIDUwLjk1Miw1MC44MzkgYyAxOS4wODYsMTkuMDQzIDIyLjc5NCwxNC45NDQgNDUuMzMyLDExLjcyNyAxMC4wOTksLTEuNDUxIDI0LjUwNiwzLjkyOSAzNi4wODksMTEuMDQ1IGwgLTk5LjUwOCw5OS4zMTUgYyAxMi4xODIsMTkuMjE0IDEzLjQwOCw0MS4zNiAxLjk5Nyw1NS4yMjMgLTAuMTQzLDAuMTcgLTAuMDI5LDAuMjU2IDAuMDg1LDAuMTQyIDUuMTA3LC01LjA5NSAxNy4yNiwtMTcuMjIyIDE3LjY1OSwtMTcuNjIgMTYuOTE4LC0xNi4zMTEgNTMuMjY0LC0zMC4xNDUgNzEuNjM2LC02LjI2MiAwLjI4NSwwLjUxMiAwLjU3LDEuMDUzIDAuODg1LDEuNTY1IDIuNzY2LDcuNDMgLTEwLjQ0MywxOS4zNTcgLTIzLjk5MywzMi45MDYgbCAtMTAuNDcsMTAuNDQ3IC0zOC4zOTksMzguMzE0IC03LjA3Niw3LjA2IEMgNzUuNTQ0LDkxLjQ1OCA2Ni4yNDMsOTEuNDU4IDYwLjU2Niw4NS43OTQgTCA0Ny42NDMsNzIuODk5IDE0LjM3OCwzOS43MDkgQyAxMC43MjcsMzYuMDY1IDcuNzYsMzEuODI0IDUuNTA2LDI3LjI0MSAxLjI4MywxOC43MDIgLTAuNTQyLDkuMDIzIDAsMCIvPjwvZz48ZyB0cmFuc2Zvcm09InRyYW5zbGF0ZSgxMzEuOTAwNCw0NjQuMDEyNykiIGlkPSJnNzU3Ij48cGF0aCBpZD0icGF0aDc1OSIgc3R5bGU9ImZpbGw6I2EwY2NkMjtmaWxsLW9wYWNpdHk6MTtmaWxsLXJ1bGU6ZXZlbm9kZDtzdHJva2U6bm9uZSIgZD0ibSAwLDAgYyAyMy42NSwtMjMuNTk4IDI2LjU2MSwtNTUuMTY2IDE1LjEyLC04NC41NDIgLTIuMDU0LC01LjIwOSAwLjk0MiwtNy4zMTUgNC45NjQsLTExLjMyOSBsIDI3LjQ0NCwtMjcuMzU1IDAuMTE1LC0zLjEzMSAxOS4zNDIsMTkuMjk5IC0zMS4wOTYsMzEuMDU2IEMgNDkuODExLC00NS43NzIgNDQuMzMzLC04LjYyNSAxOS40NTYsMTYuMTk3IC0wLjM5OSwzNi4wMDkgLTI4LjEyOSw0My40OTUgLTUzLjkxOSwzOC42MjcgLTcwLjYwOCwzNS40OTYgLTY5LjIzOSwyOC44NjQgLTY1LjAxNywyMy41NjkgLTQxLjczNywyNS41NjIgLTE3Ljc0NSwxNy42NzcgMCwwIi8+PC9nPjxnIHRyYW5zZm9ybT0idHJhbnNsYXRlKDI2NC4wNzMyLDMzOC4zMTAxKSIgaWQ9Imc3NjEiPjxwYXRoIGlkPSJwYXRoNzYzIiBzdHlsZT0iZmlsbDojZmZiYzg1O2ZpbGwtb3BhY2l0eToxO2ZpbGwtcnVsZTpldmVub2RkO3N0cm9rZTpub25lIiBkPSJtIDAsMCAxMy44MzcsLTEzLjgwNiA3LjgxNiw3LjggNi4zMDUsNi4yOTEgMTQuMTUsMTQuMTE5IGMgMTAuNTU2LDEwLjUzMiAxMC41NTYsMjcuNzgyIDAsMzguMzE0IC00LjMzNiw0LjI5OCAtOS43NTYsNi44MzEgLTE1LjQwNSw3LjYyOSA4LjMzLC0xMC42MTggNy41ODksLTI2LjEwMyAtMi4xNjgsLTM1Ljg2NyBMIDEwLjM4NSwxMC4zOSBaIi8+PC9nPjxnIHRyYW5zZm9ybT0idHJhbnNsYXRlKDMyNi4yMDksMzI2LjIxMjQpIiBpZD0iZzc2NSI+PHBhdGggaWQ9InBhdGg3NjciIHN0eWxlPSJmaWxsOiNmZmJjODU7ZmlsbC1vcGFjaXR5OjE7ZmlsbC1ydWxlOmV2ZW5vZGQ7c3Ryb2tlOm5vbmUiIGQ9Im0gMCwwIC0yNS4wNDgsLTI0Ljk5MiBjIDcuNzYsLTguMTEzIDEzLjA2NiwtMTUuMTE1IDExLjIxMiwtMjAuMDY5IDEuMTEyLDEuODIyIDIuNDUzLDMuNTU5IDQuMDIzLDUuMTI0IGwgMjguMTg1LDI4LjEyNCBjIDEwLjU1NiwxMC41MzIgMTAuNTU2LDI3Ljc4MiAwLDM4LjMxNCBDIDE0LjE3OSwzMC42NTcgOC45MywzMy4xOSAzLjQ4LDM0LjA0NCAxMC4zODUsMjMuNTY5IDkuMjQzLDkuMjIzIDAsMCIvPjwvZz48ZyB0cmFuc2Zvcm09InRyYW5zbGF0ZSgzMzQuODUzNSwyMDYuODg2MikiIGlkPSJnNzY5Ij48cGF0aCBpZD0icGF0aDc3MSIgc3R5bGU9ImZpbGw6I2ZmYmM4NTtmaWxsLW9wYWNpdHk6MTtmaWxsLXJ1bGU6ZXZlbm9kZDtzdHJva2U6bm9uZSIgZD0ibSAwLDAgYyAxLjE0MSwtMi42NzYgMi44MjQsLTUuMTgxIDUuMDIxLC03LjM3MyA2LjE5MSwtNi4xNzYgMTUuMDA1LC04LjIyNiAyMi45NjUsLTYuMTIgMy45MDksMS4wMjUgNy41ODksMy4wNzUgMTAuNjQyLDYuMTIgbCAzNS45NDUsMzUuODY3IGMgOS4yNDQsOS4yMjIgOS4yNDQsMjQuMzA5IDAsMzMuNTMyIC0zLjMzOCwzLjMzIC03LjQxNyw1LjQ2NSAtMTEuNzI0LDYuMzc2IDMuNzA4LC04LjY1MyAyLjA1MywtMTkuMTI5IC01LjAyMiwtMjYuMTYgTCAyMS44ODEsNi4zNzYgQyAxOC44NTcsMy4zMzEgMTUuMTQ4LDEuMjgxIDExLjI0LDAuMjU2IDcuNTYsLTAuNzExIDMuNzA4LC0wLjc5NyAwLDAiLz48L2c+PGcgdHJhbnNmb3JtPSJ0cmFuc2xhdGUoMzkwLjU5ODYsMTQ0LjQwNTMpIiBpZD0iZzc3MyI+PHBhdGggaWQ9InBhdGg3NzUiIHN0eWxlPSJmaWxsOiNhMGNjZDI7ZmlsbC1vcGFjaXR5OjE7ZmlsbC1ydWxlOmV2ZW5vZGQ7c3Ryb2tlOm5vbmUiIGQ9Im0gMCwwIGMgNTMuNjYyLDE0Ljc3MyA5MC42NjQsLTEzLjg5MSAxMTIuNDYsLTY1Ljg5NyA0Ljg3OCwyNS43MzIgLTIuNjI1LDUzLjQgLTIyLjQ4MSw3My4yMTIgQyA2NS4xMDIsMzIuMTM3IDI3Ljg3MiwzNy42MDMgLTIuNDI2LDIzLjcxMSBsIC0yNS4zMzMsMjUuMjc3IGMgLTcuOTYsLTIuMTA2IC0xNi43NzQsLTAuMDU2IC0yMi45NjYsNi4xMiAtMi4xOTYsMi4xOTIgLTMuODc5LDQuNjk3IC01LjAyLDcuMzczIC0zLjcwOSw4LjY1MyAtMi4wNTUsMTkuMTI4IDUuMDIsMjYuMTYgbCAxNC45MjEsMTQuOTE1IGMgLTEwLjU1NSwtMTAuNTMyIC0yNy44NDMsLTEwLjUzMiAtMzguMzk5LDAgLTEuNDI3LDEuNDIzIC0yLjY1MywyLjkzMiAtMy42ODEsNC41NTUgLTUuMjIsOC4xNjkgLTUuNjIsMTguNTU5IC0xLjIyNiwyNy4wNyAtMTguMzcyLC0yMy44ODIgLTg3LjgxMiwyMy4yODUgLTcxLjYzNiw2LjI2MiBMIC0yNS43MDUsMTAuMDc3IEMgLTEyLjIzOSwtNC4wNzEgLTE2Ljk3NSwtNC42NjggMCwwIi8+PC9nPjxnIHRyYW5zZm9ybT0idHJhbnNsYXRlKDIzOS44NTI1LDI4NS44NDg2KSIgaWQ9Imc3NzciPjxwYXRoIGlkPSJwYXRoNzc5IiBzdHlsZT0iZmlsbDojZmVkMWEzO2ZpbGwtb3BhY2l0eToxO2ZpbGwtcnVsZTpldmVub2RkO3N0cm9rZTpub25lIiBkPSJtIDAsMCBjIDE2LjkxOCwtMTYuMzExIDUzLjI2NCwtMzAuMTQ1IDcxLjYzNiwtNi4yNjIgMC4yODUsMC41MTIgMC41NywxLjA1MyAwLjg4NSwxLjU2NSBDIDc0LjM3NCwwLjI1NiA2OS4wNjgsNy4yNTkgNjEuMzA5LDE1LjM3MiA1NC40MzMsOS41MDcgNDUuOTYsNy4zNDQgMzcuMjAxLDcuNjU3IDM2LjgzMSw3LjY4NiAzNi40ODgsNy42ODYgMzYuMTE3LDcuNzE0IDIwLjU2OSw4LjY1NCA0LjI1MSwxNy4yNzkgLTUuNTM0LDI2LjcyOSBjIC0wLjExNCwwLjExNCAtMS41OTgsMS41OTQgLTMuNjgxLDMuNjcyIC0yLjUxLDIuNDc2IC0yLjg1MiwyLjg3NSAtNS45MDUsNS44OTIgLTEuODU1LDIuMzA2IC01LjQsMC40MTkgLTUuOTgzLC0wLjc0MSAtMi4wNTIsLTQuMDgyIC0xLjkzNCwtNS44MDUgLTEuMjUsLTEwLjEwNCAwLjU3MSwtMy43MjkgMy4zMjUsLTYuNDkgNC43OCwtNy44MjggQyAtMTEuODExLDExLjg5OCAtMC4zNDIsMC4zNDIgMCwwIi8+PC9nPjxnIHRyYW5zZm9ybT0idHJhbnNsYXRlKDE5LjE4MzYsMTE4LjMwMjIpIiBpZD0iZzc4MSI+PHBhdGggaWQ9InBhdGg3ODMiIHN0eWxlPSJmaWxsOiM2YmQ5ZTc7ZmlsbC1vcGFjaXR5OjE7ZmlsbC1ydWxlOmV2ZW5vZGQ7c3Ryb2tlOm5vbmUiIGQ9Im0gMCwwIDEwNS42NDIsLTEwNS40MDcgYyAyLjY1MywtMi42NDcgNS45OTEsLTQuMjQxIDkuNDQzLC00Ljc1MyBoIDUuMjc3IGMgMy40ODEsMC41MTIgNi43OSwyLjEwNiA5LjQ0NCw0Ljc1MyBsIDM4LjI1NiwzOC4xNzIgYyA2LjY0OCw2LjYzMiA2LjY0OCwxNy40NzggMCwyNC4xMSBMIDYyLjQyMSw2Mi4yODIgYyAtNi42NDgsNi42MzMgLTE3LjUxNyw2LjYzMyAtMjQuMTY0LDAgTCAwLDI0LjExIEMgLTYuNjQ3LDE3LjQ3OCAtNi42NDcsNi42MzIgMCwwIi8+PC9nPjxnIHRyYW5zZm9ybT0idHJhbnNsYXRlKDk0LjQ0MjQsNDMuMjEwOSkiIGlkPSJnNzg1Ij48cGF0aCBpZD0icGF0aDc4NyIgc3R5bGU9ImZpbGw6IzAwYzdkZDtmaWxsLW9wYWNpdHk6MTtmaWxsLXJ1bGU6ZXZlbm9kZDtzdHJva2U6bm9uZSIgZD0ibSAwLDAgMzAuMzgzLC0zMC4zMTUgYyAyLjY1MywtMi42NDcgNS45OTEsLTQuMjQyIDkuNDQzLC00Ljc1NCBoIDUuMjc4IGMgMy40OCwwLjUxMiA2Ljc5LDIuMTA3IDkuNDQzLDQuNzU0IEwgOTIuODA0LDcuODU2IGMgNi42NDcsNi42MzMgNi42NDcsMTcuNDc4IDAsMjQuMTExIEwgNjIuMzkyLDYyLjMxMSBjIDYuNjQ3LC02LjYzMyA2LjY0NywtMTcuNDc4IDAsLTI0LjExIEwgMjQuMTM1LDAuMDI5IEMgMjEuNDgxLC0yLjYxOSAxOC4xNzMsLTQuMjEzIDE0LjcyMSwtNC43NTMgSCA5LjQxNCBDIDUuOTYyLC00LjIxMyAyLjY1MywtMi42MTkgMCwwIi8+PC9nPjxnIHRyYW5zZm9ybT0idHJhbnNsYXRlKDIxNC43NDcxLDE0OS4zODYyKSIgaWQ9Imc3ODkiPjxwYXRoIGlkPSJwYXRoNzkxIiBzdHlsZT0iZmlsbDojZmVkMWEzO2ZpbGwtb3BhY2l0eToxO2ZpbGwtcnVsZTpldmVub2RkO3N0cm9rZTpub25lIiBkPSJtIDAsMCAtNTAuOTUyLC01MC44MzkgMjMuNDUxLC0yMy4zNjkgNTAuOTUyLDUwLjgzOCBjIDE5LjA4NiwxOS4wNDMgMjIuNzk0LDE0Ljk0NSA0NS4zMzIsMTEuNzI4IDEwLjA5OSwtMS40NTIgMjQuNTA2LDMuOTI4IDM2LjA4OSwxMS4wNDQgTCA4MS40NSwyMi44MDEgQyA3OC41MTIsMjEuMDA3IDc1LjQwMSwxOS4zIDcyLjIzNSwxNy44MTkgNjIuODQ5LDEzLjQwNyA1Mi44OTMsMTAuNjc1IDQ1LjMzMywxMS43NTYgMjIuODIzLDE0Ljk3MyAxOS4wODYsMTkuMDQzIDAsMCIvPjwvZz48ZyB0cmFuc2Zvcm09InRyYW5zbGF0ZSgyNzcuOTEwMiwzMjQuNTA0NCkiIGlkPSJnNzkzIj48cGF0aCBpZD0icGF0aDc5NSIgc3R5bGU9ImZpbGw6bm9uZTtzdHJva2U6IzAwMDAwMDtzdHJva2Utd2lkdGg6MTU7c3Ryb2tlLWxpbmVjYXA6cm91bmQ7c3Ryb2tlLWxpbmVqb2luOnJvdW5kO3N0cm9rZS1taXRlcmxpbWl0OjEwO3N0cm9rZS1kYXNoYXJyYXk6bm9uZTtzdHJva2Utb3BhY2l0eToxIiBkPSJtIDAsMCA3LjgxNiw3LjggMjAuNDU1LDIwLjQwOSBjIDEwLjU1NiwxMC41MzIgMTAuNTU2LDI3Ljc4MiAwLDM4LjMxNCAtMTAuNTU1LDEwLjUzMyAtMjcuODQzLDEwLjUzMyAtMzguMzk5LDAgTCAtMzguMzk5LDM4LjMxNCIvPjwvZz48ZyB0cmFuc2Zvcm09InRyYW5zbGF0ZSg0MDkuNDI2OCwyNjguOTEyMSkiIGlkPSJnNzk3Ij48cGF0aCBpZD0icGF0aDc5OSIgc3R5bGU9ImZpbGw6bm9uZTtzdHJva2U6IzAwMDAwMDtzdHJva2Utd2lkdGg6MTU7c3Ryb2tlLWxpbmVjYXA6cm91bmQ7c3Ryb2tlLWxpbmVqb2luOnJvdW5kO3N0cm9rZS1taXRlcmxpbWl0OjEwO3N0cm9rZS1kYXNoYXJyYXk6bm9uZTtzdHJva2Utb3BhY2l0eToxIiBkPSJtIDAsMCBjIC05LjI0Myw5LjIyMyAtMjQuMzkyLDkuMjIzIC0zMy42MzUsMCBsIC0zNS45MTgsLTM1Ljg2NiBjIC05LjI0MywtOS4yMjMgLTkuMjQzLC0yNC4zMSAwLC0zMy41MzIgOS4yNDMsLTkuMjIzIDI0LjM2NCwtOS4yMjMgMzMuNjA4LDAgTCAwLC0zMy41MzIgQyA5LjI0NCwtMjQuMzEgOS4yNDQsLTkuMjIzIDAsMCBaIi8+PC9nPjxnIHRyYW5zZm9ybT0idHJhbnNsYXRlKDM0MC45ODczLDMxMC44MTMpIiBpZD0iZzgwMSI+PHBhdGggaWQ9InBhdGg4MDMiIHN0eWxlPSJmaWxsOm5vbmU7c3Ryb2tlOiMwMDAwMDA7c3Ryb2tlLXdpZHRoOjE1O3N0cm9rZS1saW5lY2FwOnJvdW5kO3N0cm9rZS1saW5lam9pbjpyb3VuZDtzdHJva2UtbWl0ZXJsaW1pdDoxMDtzdHJva2UtZGFzaGFycmF5Om5vbmU7c3Ryb2tlLW9wYWNpdHk6MSIgZD0ibSAwLDAgYyAtMy41OTUsLTMuNTg3IDMuNzk0LDMuNzg2IDMuOTA4LDMuODk5IDEwLjI0MSwxMC41NjEgMTAuMTI4LDI3LjU1NSAtMC4zMTQsMzguMDAyIC0xMC41NTUsMTAuNTMyIC0yNy44NDQsMTAuNTMyIC0zOC40LDAgbCAtMTQuMTUsLTE0LjExOSIvPjwvZz48ZyB0cmFuc2Zvcm09InRyYW5zbGF0ZSgzMzYuNzkzLDg2LjM5MzEpIiBpZD0iZzgwNSI+PHBhdGggaWQ9InBhdGg4MDciIHN0eWxlPSJmaWxsOm5vbmU7c3Ryb2tlOiMwMDAwMDA7c3Ryb2tlLXdpZHRoOjE1O3N0cm9rZS1saW5lY2FwOnJvdW5kO3N0cm9rZS1saW5lam9pbjpyb3VuZDtzdHJva2UtbWl0ZXJsaW1pdDoxMDtzdHJva2UtZGFzaGFycmF5Om5vbmU7c3Ryb2tlLW9wYWNpdHk6MSIgZD0ibSAwLDAgYyAtMC41NDIsMTIuODk1IDEuOTExLDI1LjkzMiA3LjQxOCwzNy44NTggbCAtMTI0LjEsMTIzLjg1MyBNIDI2LjA0NywxMDcgNTEuMzgsODEuNzI0IGMgMzAuMjk4LDEzLjg5MSA2Ny41MjcsOC40MjUgOTIuNDA0LC0xNi4zOTYgMTkuODU3LC0xOS44MTIgMjcuMzYsLTQ3LjQ4IDIyLjQ4MiwtNzMuMjEzIC01LjEwOCwtMjcuMDEzIC0xOS4zNzEsLTYuNTc1IC0yMi4yODIsLTMuNjcyIEwgMTA5LjE1LDIzLjE5OSBDIDk2Ljk2OSwzNS4zNTQgNzcuMzcsMzUuODY2IDY0LjU2MSwyNC43MDggNTMuMzc3LDExLjkyNyA1My44OTEsLTcuNjI5IDY2LjA3MiwtMTkuNzg0IGwgMzQuODM0LC0zNC43NTYgYyAyLjkxLC0yLjkwMyAyMy4zOTQsLTE3LjEzNiAtMy42OCwtMjIuMjMxIC0yNS43OSwtNC44NjggLTUzLjUyLDIuNjE5IC03My4zNzUsMjIuNDMxIC02LjE5Miw2LjIwNSAtMTEuMTg0LDEzLjE1MSAtMTQuOTc4LDIwLjU1MSBtIC0xNDYuNzgsMzA0LjM1MSAtMzEuMDk3LDMxLjA1NiBjIDEzLjkyMiwzMC4yMyA4LjQ0NCw2Ny4zNzcgLTE2LjQzMyw5Mi4xOTggLTE5Ljg1NSwxOS44MTIgLTQ3LjU4NCwyNy4yOTkgLTczLjM3NSwyMi40MzEgLTI3LjA3NCwtNS4wOTUgLTYuNTksLTE5LjMyOCAtMy42OCwtMjIuMjMxIGwgMzQuODM0LC0zNC43NTYgYyAxMi4xODEsLTEyLjE1NSAxMi42OTUsLTMxLjcxMSAxLjUxMiwtNDQuNDkxIC0xMi44MSwtMTEuMTU5IC0zMi40MDksLTEwLjY0NiAtNDQuNTksMS41MDggbCAtMzQuODM0LDM0Ljc1NiBjIC0yLjkxLDIuOTA0IC0xNy4xNzQsMjMuMzQyIC0yMi4yODIsLTMuNjcyIC00Ljg3NywtMjUuNzMzIDIuNjI1LC01My40MDEgMjIuNDgyLC03My4yMTMgMjQuODc3LC0yNC44MjEgNjIuMTA2LC0zMC4yODcgOTIuNDA0LC0xNi4zOTYgbCAzMi45MjIsLTMyLjg0OCIvPjwvZz48ZyB0cmFuc2Zvcm09InRyYW5zbGF0ZSgxNDQuMjI0NiwxMTguMTAzKSIgaWQ9Imc4MDkiPjxwYXRoIGlkPSJwYXRoODExIiBzdHlsZT0iZmlsbDpub25lO3N0cm9rZTojMDAwMDAwO3N0cm9rZS13aWR0aDoxNTtzdHJva2UtbGluZWNhcDpyb3VuZDtzdHJva2UtbGluZWpvaW46cm91bmQ7c3Ryb2tlLW1pdGVybGltaXQ6MTA7c3Ryb2tlLWRhc2hhcnJheTpub25lO3N0cm9rZS1vcGFjaXR5OjEiIGQ9Im0gMCwwIDQzLjAyMSwtNDIuOTI1IGMgNi42NDgsLTYuNjMzIDYuNjQ4LC0xNy40NzggMCwtMjQuMTExIEwgNC43NjUsLTEwNS4yMDggYyAtNi42NDgsLTYuNjMyIC0xNy41MTcsLTYuNjMyIC0yNC4xNjQsMCBMIC0xMjUuMDQxLDAuMTk5IGMgLTYuNjQ3LDYuNjMzIC02LjY0NywxNy40NzggMCwyNC4xMTEgbCAzOC4yNTcsMzguMTcxIGMgNi42NDcsNi42MzMgMTcuNTE2LDYuNjMzIDI0LjE2NCwwIGwgMzcuODI5LC0zNy43NDUiLz48L2c+PGcgdHJhbnNmb3JtPSJ0cmFuc2xhdGUoMTg3LjI0NjEsNzUuMTc3NykiIGlkPSJnODEzIj48cGF0aCBpZD0icGF0aDgxNSIgc3R5bGU9ImZpbGw6bm9uZTtzdHJva2U6IzAwMDAwMDtzdHJva2Utd2lkdGg6MTU7c3Ryb2tlLWxpbmVjYXA6cm91bmQ7c3Ryb2tlLWxpbmVqb2luOnJvdW5kO3N0cm9rZS1taXRlcmxpbWl0OjEwO3N0cm9rZS1kYXNoYXJyYXk6bm9uZTtzdHJva2Utb3BhY2l0eToxIiBkPSJtIDAsMCA1MC45NTIsNTAuODM5IGMgMTkuMDg2LDE5LjA0MyAyMi43OTQsMTQuOTQ0IDQ1LjMzMiwxMS43MjcgMTAuMDk5LC0xLjQ1MSAyNC41MDYsMy45MjkgMzYuMDg5LDExLjA0NSIvPjwvZz48ZyB0cmFuc2Zvcm09InRyYW5zbGF0ZSgzMDQuMzI3MSwyNzIuNDEzMSkiIGlkPSJnODE3Ij48cGF0aCBpZD0icGF0aDgxOSIgc3R5bGU9ImZpbGw6I2ZlZDFhMztmaWxsLW9wYWNpdHk6MTtmaWxsLXJ1bGU6ZXZlbm9kZDtzdHJva2U6bm9uZSIgZD0ibSAwLDAgYyAtNS4yNzcsLTEwLjE5IC0zLjY1MSwtMjMuMDg1IDQuOTA3LC0zMS41OTYgMTAuNTU2LC0xMC41NjEgMjcuODQ0LC0xMC41NjEgMzguNCwwIGwgMTkuNTcxLDYuNjMyIDguNTg3LDIxLjQ2MyBjIDEwLjU4NCwxMC41MzIgMTAuNTg0LDI3Ljc4MiAwLDM4LjMxNCAtMTAuNTU2LDEwLjUzMiAtMjcuODQ0LDEwLjUzMiAtMzguNCwwIEwgNC45MDcsNi43MTggQyAzLjMxLDUuMTI0IDEuOTY5LDMuNDE2IDAuODU2LDEuNTY2IDAuNjU2LDEuMDI1IDAuMzcxLDAuNTEzIDAsMCIvPjwvZz48ZyB0cmFuc2Zvcm09InRyYW5zbGF0ZSgzNTkuMTU5MiwzMTUuMDI1OSkiIGlkPSJnODIxIj48cGF0aCBpZD0icGF0aDgyMyIgc3R5bGU9ImZpbGw6I2ZmYmM4NTtmaWxsLW9wYWNpdHk6MTtmaWxsLXJ1bGU6ZXZlbm9kZDtzdHJva2U6bm9uZSIgZD0ibSAwLDAgYyA2LjcwNSwtMTAuNDc2IDUuNDc4LC0yNC42MjMgLTMuNjgsLTMzLjc2IGwgLTI4LjE1OCwtMjguMTI0IGMgLTUuOTMzLC01Ljg5MiAtMTMuOTc4LC04LjUxMSAtMjEuNzY2LC03Ljc3MSAxLjAyNiwtMS42MjIgMi4yNTIsLTMuMTU5IDMuNjc5LC00LjU1NCAxMC41NTYsLTEwLjU2MSAyNy44NDQsLTEwLjU2MSAzOC40LDAgbCAyOC4xNTgsMjguMDk1IGMgMTAuNTg0LDEwLjUzMiAxMC41ODQsMjcuNzgyIDAsMzguMzE0IEMgMTIuMDExLC0zLjE2IDYuMTA1LC0wLjU2OSAwLDAiLz48L2c+PGcgdHJhbnNmb3JtPSJ0cmFuc2xhdGUoMzc1Ljc5MiwzMDcuMjI2MSkiIGlkPSJnODI1Ij48cGF0aCBpZD0icGF0aDgyNyIgc3R5bGU9ImZpbGw6bm9uZTtzdHJva2U6IzAwMDAwMDtzdHJva2Utd2lkdGg6MTU7c3Ryb2tlLWxpbmVjYXA6cm91bmQ7c3Ryb2tlLWxpbmVqb2luOnJvdW5kO3N0cm9rZS1taXRlcmxpbWl0OjEwO3N0cm9rZS1kYXNoYXJyYXk6bm9uZTtzdHJva2Utb3BhY2l0eToxIiBkPSJtIDAsMCBjIC0xMC41NTYsMTAuNTMyIC0yNy44NDQsMTAuNTMyIC0zOC4zOTksMCBsIC0yOC4xNTksLTI4LjA5NSBjIC0xMC41ODQsLTEwLjU2MSAtMTAuNTg0LC0yNy43ODIgMCwtMzguMzE0IDEwLjU1NiwtMTAuNTYxIDI3Ljg0NCwtMTAuNTYxIDM4LjQsMCBMIDAsLTM4LjMxNCBDIDEwLjU4NCwtMjcuNzgyIDEwLjU4NCwtMTAuNTMyIDAsMCBaIi8+PC9nPjxnIHRyYW5zZm9ybT0idHJhbnNsYXRlKDMxMi43MTQ4LDI4Mi41NzUyKSIgaWQ9Imc4MjkiPjxwYXRoIGlkPSJwYXRoODMxIiBzdHlsZT0iZmlsbDpub25lO3N0cm9rZTojMDAwMDAwO3N0cm9rZS13aWR0aDoxNTtzdHJva2UtbGluZWNhcDpyb3VuZDtzdHJva2UtbGluZWpvaW46cm91bmQ7c3Ryb2tlLW1pdGVybGltaXQ6MTA7c3Ryb2tlLWRhc2hhcnJheTpub25lO3N0cm9rZS1vcGFjaXR5OjEiIGQ9Im0gMCwwIGMgMC43NzEsNy40ODYgLTExLjYxMSwxOC43ODcgLTI0LjMzNSwzMS40ODMgbCAtNTUuOTQ0LDU1LjgyIGMgLTUuNjQ5LDUuNjM2IC0xNC45NSw1LjYzNiAtMjAuNjI2LC0wLjAyOSBMIC0xNDcuMDk0LDQxLjE4OSBDIC0xNTcuNTkyLDMwLjcxNCAtMTYyLjMsMTUuMzE0IC0xNjEuNDcyLDEuNDggYyAxLjI4NCwtMjEuMTc4IC04LjU4OCwtNDIuNTg0IC0zNy44NTgsLTcxLjc2MSBsIC0zMS43OCwtMzEuNzEgTSAtOTIuNzQ2LDIzLjExNCBjIDAuNDg0LC0wLjUxMiAxOS4zOTksLTE5LjM1NyAxOS44ODQsLTE5Ljg0MSAxNC45NzcsLTE0LjQ2IDQ1LjE4OSwtMjYuOTI3IDY0LjY3NCwtMTMuMDM3Ii8+PC9nPjxnIHRyYW5zZm9ybT0idHJhbnNsYXRlKDIxOS45Njg3LDMwNS42ODkpIiBpZD0iZzgzMyI+PHBhdGggaWQ9InBhdGg4MzUiIHN0eWxlPSJmaWxsOm5vbmU7c3Ryb2tlOiMwMDAwMDA7c3Ryb2tlLXdpZHRoOjE1O3N0cm9rZS1saW5lY2FwOnJvdW5kO3N0cm9rZS1saW5lam9pbjpyb3VuZDtzdHJva2UtbWl0ZXJsaW1pdDoxMDtzdHJva2UtZGFzaGFycmF5Om5vbmU7c3Ryb2tlLW9wYWNpdHk6MSIgZD0iTSAwLDAgQyAxNi42ODgsLTE2LjY1MiAxMi4wNjcsLTQ4LjI0OSAtMTAuMjk5LC03MC41NjUiLz48L2c+PC9nPjwvZz48L2c+PC9zdmc+;fontFamily=Poppins;fontSource=https%3A%2F%2Ffonts.googleapis.com%2Fcss%3Ffamily%3DPoppins;" vertex="1" parent="1">
          <mxGeometry x="694.96" y="330.75" width="50.08" height="50" as="geometry" />
        </mxCell>
        <mxCell id="boy779TEuCWVPhwvG-UE-14" value="Earning Report" style="shape=image;verticalLabelPosition=bottom;labelBackgroundColor=none;verticalAlign=top;aspect=fixed;imageAspect=0;editableCssRules=.*;image=data:image/svg+xml,PHN2ZyB4bWxucz0iaHR0cDovL3d3dy53My5vcmcvMjAwMC9zdmciIHZpZXdCb3g9IjkuOTk5NjMyODM1Mzg4MTg0IDEwLjU2MTU0MzQ2NDY2MDY0NSA2NjIuNjY3Nzg1NjQ0NTMxMiA2NjEuNTQzODIzMjQyMTg3NSIgaGVpZ2h0PSI2NjEuNTQzODIzMjQyMTg3NSIgd2lkdGg9IjY2Mi42Njc3ODU2NDQ1MzEyIiB4bWw6c3BhY2U9InByZXNlcnZlIiBpZD0ic3ZnNzE3IiB2ZXJzaW9uPSIxLjEiPjxkZWZzIGlkPSJkZWZzNzIxIj48Y2xpcFBhdGggaWQ9ImNsaXBQYXRoNzMxIiBjbGlwUGF0aFVuaXRzPSJ1c2VyU3BhY2VPblVzZSI+PHBhdGggaWQ9InBhdGg3MjkiIGQ9Ik0gMCw1MTIgSCA1MTIgViAwIEggMCBaIi8+PC9jbGlwUGF0aD48L2RlZnM+PGcgdHJhbnNmb3JtPSJtYXRyaXgoMS4zMzMzMzMzLDAsMCwtMS4zMzMzMzMzLDAsNjgyLjY2NjY3KSIgaWQ9Imc3MjMiPjxnIGlkPSJnNzI1Ij48ZyBjbGlwLXBhdGg9InVybCgjY2xpcFBhdGg3MzEpIiBpZD0iZzcyNyI+PGcgdHJhbnNmb3JtPSJ0cmFuc2xhdGUoOC45NDE0LDQzMy43NTQ0KSIgaWQ9Imc3MzMiPjxwYXRoIGlkPSJwYXRoNzM1IiBzdHlsZT0iZmlsbDojZGVlY2YwO2ZpbGwtb3BhY2l0eToxO2ZpbGwtcnVsZTpldmVub2RkO3N0cm9rZTpub25lIiBkPSJtIDAsMCBjIC00Ljg3OCwtMjUuNzMzIDIuNjI1LC01My40MDEgMjIuNDgxLC03My4yMTMgMjQuODc3LC0yNC44MjIgNjIuMTA3LC0zMC4yODcgOTIuNDA1LC0xNi4zOTYgbCAzMi45MjIsLTMyLjg0OSBoIDQzLjg0OCBsIC0xLjcxMiw0NS42NTkgLTMxLjA5NiwzMS4wNTUgYyAxMy45MjIsMzAuMjMgOC40NDQsNjcuMzc3IC0xNi40MzMsOTIuMTk5IEMgMTIyLjU2LDY2LjI2NyA5NC44Myw3My43NTMgNjkuMDQsNjguODg2IDQxLjk2Niw2My43OTEgNjIuNDQ5LDQ5LjU1OCA2NS4zNTksNDYuNjU0IGwgMzQuODM0LC0zNC43NTYgYyAxMi4xODIsLTEyLjE1NCAxMi42OTYsLTMxLjcxIDEuNTEyLC00NC40OTEgLTEyLjgwOSwtMTEuMTU4IC0zMi40MDgsLTEwLjY0NiAtNDQuNTksMS41MDkgTCAyMi4yODEsMy42NzIgQyAxOS4zNzEsNi41NzUgNS4xMDcsMjcuMDEzIDAsMCIvPjwvZz48ZyB0cmFuc2Zvcm09InRyYW5zbGF0ZSgyMjAuMTExMywyNDguMTA0KSIgaWQ9Imc3MzciPjxwYXRoIGlkPSJwYXRoNzM5IiBzdHlsZT0iZmlsbDojZGVlY2YwO2ZpbGwtb3BhY2l0eToxO2ZpbGwtcnVsZTpldmVub2RkO3N0cm9rZTpub25lIiBkPSJtIDAsMCAxOC4xMTUsLTUzLjQwMSA4MS4zOTMsLTQ1LjkxNCAyNC41OTIsLTI0LjUzOCBjIC0xMy45MjIsLTMwLjIzIC04LjQ0NiwtNjcuMzc2IDE2LjQzMiwtOTIuMTk4IDE5Ljg1NiwtMTkuODEyIDQ3LjU4NSwtMjcuMjk5IDczLjM3NSwtMjIuNDMxIDI3LjA3NCw1LjA5NSA2LjU5MSwxOS4zMjggMy42ODEsMjIuMjMyIGwgLTM0LjgzNCwzNC43NTUgYyAtMTIuMTgyLDEyLjE1NSAtMTIuNjk1LDMxLjcxMSAtMS41MTIsNDQuNDkyIDEyLjgxLDExLjE1OCAzMi40MDgsMTAuNjQ2IDQ0LjU5LC0xLjUwOSBsIDM0LjgzNCwtMzQuNzU2IGMgMi45MSwtMi45MDMgMTcuMTc0LC0yMy4zNDEgMjIuMjgxLDMuNjcyIDQuODc4LDI1LjczMyAtMi42MjUsNTMuNDAxIC0yMi40ODEsNzMuMjEzIC0yNC44NzcsMjQuODIxIC02Mi4xMDcsMzAuMjg3IC05Mi40MDQsMTYuMzk2IGwgLTI1LjMzMywyNS4yNzcgYyAtNy45NiwtMi4xMDcgLTE2Ljc3NSwtMC4wNTcgLTIyLjk2Niw2LjEyIC05LjI0Myw5LjIyMiAtOS4yNDMsMjQuMzA5IDAsMzMuNTMyIGwgMTQuOTIxLDE0LjkxNSBjIC0xMC41NTYsLTEwLjUzMSAtMjcuODQ0LC0xMC41MzEgLTM4LjQsMCBDIDg3Ljc1NCw4LjM2OSA4Ni4wOTksMjEuMjYzIDkxLjM3NywzMS40ODIgODEuNzM0LDE4Ljk1OCAzNS4zMTgsNjQuMzAzIDMzLjMyMSw2Ni4yOTUgMTMuMTgsODIuNDM1IC00MS43NjcsNDUuNDMxIDAsMCIvPjwvZz48ZyB0cmFuc2Zvcm09InRyYW5zbGF0ZSgzMzkuODc0LDIzMy4wNDU5KSIgaWQ9Imc3NDEiPjxwYXRoIGlkPSJwYXRoNzQzIiBzdHlsZT0iZmlsbDojZmVkMWEzO2ZpbGwtb3BhY2l0eToxO2ZpbGwtcnVsZTpldmVub2RkO3N0cm9rZTpub25lIiBkPSJtIDAsMCBjIC05LjI0MywtOS4yMjMgLTkuMjQzLC0yNC4zMSAwLC0zMy41MzIgNi4xOTEsLTYuMTc3IDE1LjAwNiwtOC4yMjcgMjIuOTY2LC02LjEyIDMuOTA4LDEuMDI1IDcuNTg5LDMuMDc0IDEwLjY0MSw2LjEyIEwgNjkuNTUzLDIuMzM0IGMgOS4yNDQsOS4yMjMgOS4yNDQsMjQuMzEgMCwzMy41MzIgLTkuMjQzLDkuMjIzIC0yNC4zNjQsOS4yMjMgLTMzLjYzNSwwIEwgMzUuMzc2LDM1LjMyNSAxNC45MjEsMTQuOTE2IFoiLz48L2c+PGcgdHJhbnNmb3JtPSJ0cmFuc2xhdGUoMjg1LjcyNjYsMzMyLjMwNDIpIiBpZD0iZzc0NSI+PHBhdGggaWQ9InBhdGg3NDciIHN0eWxlPSJmaWxsOiNmZWQxYTM7ZmlsbC1vcGFjaXR5OjE7ZmlsbC1ydWxlOmV2ZW5vZGQ7c3Ryb2tlOm5vbmUiIGQ9Im0gMCwwIC03LjgxNiwtNy44IC00Ljg3OSwtNy4wODcgQyAtMjMuNTkzLC0zMC42NTcgMi4zNCwtNjEuODg0IDI2LjY0NiwtNTEuMTUyIGwgMjEuODUzLDUuNTc5IDMuMTY3LDIwLjQ5NSA3LjE4OCw3LjE3MyBDIDY5LjQxLC03LjM3MyA2OS40MSw5Ljg3NyA1OC44NTQsMjAuNDEgNDguMywzMC45NDEgMzEuMDExLDMwLjk0MSAyMC40NTUsMjAuNDEgTCA2LjMwNSw2LjI5MSBaIi8+PC9nPjxnIHRyYW5zZm9ybT0idHJhbnNsYXRlKDI2Ny43ODIyLDM5MS4wMjc4KSIgaWQ9Imc3NDkiPjxwYXRoIGlkPSJwYXRoNzUxIiBzdHlsZT0iZmlsbDojZmVkMWEzO2ZpbGwtb3BhY2l0eToxO2ZpbGwtcnVsZTpldmVub2RkO3N0cm9rZTpub25lIiBkPSJtIDAsMCAtMjguMjcxLC0yOC4yMDkgYyAtMTkuNTQyLC0xOS40OTkgMTAuNzI2LC01MS41MjIgMzguMzk5LC0zOC4zMTQgbCAyMi43MDksNi43NzQgNS41NjIsMjEuNDM1IEMgNDguOTU1LC0yNy43ODIgNDguOTU1LC0xMC41MzIgMzguMzk5LDAgMjcuODQ0LDEwLjUzMiAxMC41NTYsMTAuNTMyIDAsMCIvPjwvZz48ZyB0cmFuc2Zvcm09InRyYW5zbGF0ZSgxNTEuMjQzMiwyODQuMDU1NykiIGlkPSJnNzUzIj48cGF0aCBpZD0icGF0aDc1NSIgc3R5bGU9ImZpbGw6I2ZmZTVjMTtmaWxsLW9wYWNpdHk6MTtmaWxsLXJ1bGU6ZXZlbm9kZDtzdHJva2U6bm9uZSIgZD0ibSAwLDAgYyAxLjI4MywtMjEuMTc4IC04LjU4OCwtNDIuNTg0IC0zNy44NTgsLTcxLjc2MSBsIC0zMS43ODEsLTMxLjcxIDE3LjU3NCwtNjkuODI1IDg4LjA2OCwtMzUuNTgyIDUwLjk1Miw1MC44MzkgYyAxOS4wODYsMTkuMDQzIDIyLjc5NCwxNC45NDQgNDUuMzMyLDExLjcyNyAxMC4wOTksLTEuNDUxIDI0LjUwNiwzLjkyOSAzNi4wODksMTEuMDQ1IGwgLTk5LjUwOCw5OS4zMTUgYyAxMi4xODIsMTkuMjE0IDEzLjQwOCw0MS4zNiAxLjk5Nyw1NS4yMjMgLTAuMTQzLDAuMTcgLTAuMDI5LDAuMjU2IDAuMDg1LDAuMTQyIDUuMTA3LC01LjA5NSAxNy4yNiwtMTcuMjIyIDE3LjY1OSwtMTcuNjIgMTYuOTE4LC0xNi4zMTEgNTMuMjY0LC0zMC4xNDUgNzEuNjM2LC02LjI2MiAwLjI4NSwwLjUxMiAwLjU3LDEuMDUzIDAuODg1LDEuNTY1IDIuNzY2LDcuNDMgLTEwLjQ0MywxOS4zNTcgLTIzLjk5MywzMi45MDYgbCAtMTAuNDcsMTAuNDQ3IC0zOC4zOTksMzguMzE0IC03LjA3Niw3LjA2IEMgNzUuNTQ0LDkxLjQ1OCA2Ni4yNDMsOTEuNDU4IDYwLjU2Niw4NS43OTQgTCA0Ny42NDMsNzIuODk5IDE0LjM3OCwzOS43MDkgQyAxMC43MjcsMzYuMDY1IDcuNzYsMzEuODI0IDUuNTA2LDI3LjI0MSAxLjI4MywxOC43MDIgLTAuNTQyLDkuMDIzIDAsMCIvPjwvZz48ZyB0cmFuc2Zvcm09InRyYW5zbGF0ZSgxMzEuOTAwNCw0NjQuMDEyNykiIGlkPSJnNzU3Ij48cGF0aCBpZD0icGF0aDc1OSIgc3R5bGU9ImZpbGw6I2EwY2NkMjtmaWxsLW9wYWNpdHk6MTtmaWxsLXJ1bGU6ZXZlbm9kZDtzdHJva2U6bm9uZSIgZD0ibSAwLDAgYyAyMy42NSwtMjMuNTk4IDI2LjU2MSwtNTUuMTY2IDE1LjEyLC04NC41NDIgLTIuMDU0LC01LjIwOSAwLjk0MiwtNy4zMTUgNC45NjQsLTExLjMyOSBsIDI3LjQ0NCwtMjcuMzU1IDAuMTE1LC0zLjEzMSAxOS4zNDIsMTkuMjk5IC0zMS4wOTYsMzEuMDU2IEMgNDkuODExLC00NS43NzIgNDQuMzMzLC04LjYyNSAxOS40NTYsMTYuMTk3IC0wLjM5OSwzNi4wMDkgLTI4LjEyOSw0My40OTUgLTUzLjkxOSwzOC42MjcgLTcwLjYwOCwzNS40OTYgLTY5LjIzOSwyOC44NjQgLTY1LjAxNywyMy41NjkgLTQxLjczNywyNS41NjIgLTE3Ljc0NSwxNy42NzcgMCwwIi8+PC9nPjxnIHRyYW5zZm9ybT0idHJhbnNsYXRlKDI2NC4wNzMyLDMzOC4zMTAxKSIgaWQ9Imc3NjEiPjxwYXRoIGlkPSJwYXRoNzYzIiBzdHlsZT0iZmlsbDojZmZiYzg1O2ZpbGwtb3BhY2l0eToxO2ZpbGwtcnVsZTpldmVub2RkO3N0cm9rZTpub25lIiBkPSJtIDAsMCAxMy44MzcsLTEzLjgwNiA3LjgxNiw3LjggNi4zMDUsNi4yOTEgMTQuMTUsMTQuMTE5IGMgMTAuNTU2LDEwLjUzMiAxMC41NTYsMjcuNzgyIDAsMzguMzE0IC00LjMzNiw0LjI5OCAtOS43NTYsNi44MzEgLTE1LjQwNSw3LjYyOSA4LjMzLC0xMC42MTggNy41ODksLTI2LjEwMyAtMi4xNjgsLTM1Ljg2NyBMIDEwLjM4NSwxMC4zOSBaIi8+PC9nPjxnIHRyYW5zZm9ybT0idHJhbnNsYXRlKDMyNi4yMDksMzI2LjIxMjQpIiBpZD0iZzc2NSI+PHBhdGggaWQ9InBhdGg3NjciIHN0eWxlPSJmaWxsOiNmZmJjODU7ZmlsbC1vcGFjaXR5OjE7ZmlsbC1ydWxlOmV2ZW5vZGQ7c3Ryb2tlOm5vbmUiIGQ9Im0gMCwwIC0yNS4wNDgsLTI0Ljk5MiBjIDcuNzYsLTguMTEzIDEzLjA2NiwtMTUuMTE1IDExLjIxMiwtMjAuMDY5IDEuMTEyLDEuODIyIDIuNDUzLDMuNTU5IDQuMDIzLDUuMTI0IGwgMjguMTg1LDI4LjEyNCBjIDEwLjU1NiwxMC41MzIgMTAuNTU2LDI3Ljc4MiAwLDM4LjMxNCBDIDE0LjE3OSwzMC42NTcgOC45MywzMy4xOSAzLjQ4LDM0LjA0NCAxMC4zODUsMjMuNTY5IDkuMjQzLDkuMjIzIDAsMCIvPjwvZz48ZyB0cmFuc2Zvcm09InRyYW5zbGF0ZSgzMzQuODUzNSwyMDYuODg2MikiIGlkPSJnNzY5Ij48cGF0aCBpZD0icGF0aDc3MSIgc3R5bGU9ImZpbGw6I2ZmYmM4NTtmaWxsLW9wYWNpdHk6MTtmaWxsLXJ1bGU6ZXZlbm9kZDtzdHJva2U6bm9uZSIgZD0ibSAwLDAgYyAxLjE0MSwtMi42NzYgMi44MjQsLTUuMTgxIDUuMDIxLC03LjM3MyA2LjE5MSwtNi4xNzYgMTUuMDA1LC04LjIyNiAyMi45NjUsLTYuMTIgMy45MDksMS4wMjUgNy41ODksMy4wNzUgMTAuNjQyLDYuMTIgbCAzNS45NDUsMzUuODY3IGMgOS4yNDQsOS4yMjIgOS4yNDQsMjQuMzA5IDAsMzMuNTMyIC0zLjMzOCwzLjMzIC03LjQxNyw1LjQ2NSAtMTEuNzI0LDYuMzc2IDMuNzA4LC04LjY1MyAyLjA1MywtMTkuMTI5IC01LjAyMiwtMjYuMTYgTCAyMS44ODEsNi4zNzYgQyAxOC44NTcsMy4zMzEgMTUuMTQ4LDEuMjgxIDExLjI0LDAuMjU2IDcuNTYsLTAuNzExIDMuNzA4LC0wLjc5NyAwLDAiLz48L2c+PGcgdHJhbnNmb3JtPSJ0cmFuc2xhdGUoMzkwLjU5ODYsMTQ0LjQwNTMpIiBpZD0iZzc3MyI+PHBhdGggaWQ9InBhdGg3NzUiIHN0eWxlPSJmaWxsOiNhMGNjZDI7ZmlsbC1vcGFjaXR5OjE7ZmlsbC1ydWxlOmV2ZW5vZGQ7c3Ryb2tlOm5vbmUiIGQ9Im0gMCwwIGMgNTMuNjYyLDE0Ljc3MyA5MC42NjQsLTEzLjg5MSAxMTIuNDYsLTY1Ljg5NyA0Ljg3OCwyNS43MzIgLTIuNjI1LDUzLjQgLTIyLjQ4MSw3My4yMTIgQyA2NS4xMDIsMzIuMTM3IDI3Ljg3MiwzNy42MDMgLTIuNDI2LDIzLjcxMSBsIC0yNS4zMzMsMjUuMjc3IGMgLTcuOTYsLTIuMTA2IC0xNi43NzQsLTAuMDU2IC0yMi45NjYsNi4xMiAtMi4xOTYsMi4xOTIgLTMuODc5LDQuNjk3IC01LjAyLDcuMzczIC0zLjcwOSw4LjY1MyAtMi4wNTUsMTkuMTI4IDUuMDIsMjYuMTYgbCAxNC45MjEsMTQuOTE1IGMgLTEwLjU1NSwtMTAuNTMyIC0yNy44NDMsLTEwLjUzMiAtMzguMzk5LDAgLTEuNDI3LDEuNDIzIC0yLjY1MywyLjkzMiAtMy42ODEsNC41NTUgLTUuMjIsOC4xNjkgLTUuNjIsMTguNTU5IC0xLjIyNiwyNy4wNyAtMTguMzcyLC0yMy44ODIgLTg3LjgxMiwyMy4yODUgLTcxLjYzNiw2LjI2MiBMIC0yNS43MDUsMTAuMDc3IEMgLTEyLjIzOSwtNC4wNzEgLTE2Ljk3NSwtNC42NjggMCwwIi8+PC9nPjxnIHRyYW5zZm9ybT0idHJhbnNsYXRlKDIzOS44NTI1LDI4NS44NDg2KSIgaWQ9Imc3NzciPjxwYXRoIGlkPSJwYXRoNzc5IiBzdHlsZT0iZmlsbDojZmVkMWEzO2ZpbGwtb3BhY2l0eToxO2ZpbGwtcnVsZTpldmVub2RkO3N0cm9rZTpub25lIiBkPSJtIDAsMCBjIDE2LjkxOCwtMTYuMzExIDUzLjI2NCwtMzAuMTQ1IDcxLjYzNiwtNi4yNjIgMC4yODUsMC41MTIgMC41NywxLjA1MyAwLjg4NSwxLjU2NSBDIDc0LjM3NCwwLjI1NiA2OS4wNjgsNy4yNTkgNjEuMzA5LDE1LjM3MiA1NC40MzMsOS41MDcgNDUuOTYsNy4zNDQgMzcuMjAxLDcuNjU3IDM2LjgzMSw3LjY4NiAzNi40ODgsNy42ODYgMzYuMTE3LDcuNzE0IDIwLjU2OSw4LjY1NCA0LjI1MSwxNy4yNzkgLTUuNTM0LDI2LjcyOSBjIC0wLjExNCwwLjExNCAtMS41OTgsMS41OTQgLTMuNjgxLDMuNjcyIC0yLjUxLDIuNDc2IC0yLjg1MiwyLjg3NSAtNS45MDUsNS44OTIgLTEuODU1LDIuMzA2IC01LjQsMC40MTkgLTUuOTgzLC0wLjc0MSAtMi4wNTIsLTQuMDgyIC0xLjkzNCwtNS44MDUgLTEuMjUsLTEwLjEwNCAwLjU3MSwtMy43MjkgMy4zMjUsLTYuNDkgNC43OCwtNy44MjggQyAtMTEuODExLDExLjg5OCAtMC4zNDIsMC4zNDIgMCwwIi8+PC9nPjxnIHRyYW5zZm9ybT0idHJhbnNsYXRlKDE5LjE4MzYsMTE4LjMwMjIpIiBpZD0iZzc4MSI+PHBhdGggaWQ9InBhdGg3ODMiIHN0eWxlPSJmaWxsOiM2YmQ5ZTc7ZmlsbC1vcGFjaXR5OjE7ZmlsbC1ydWxlOmV2ZW5vZGQ7c3Ryb2tlOm5vbmUiIGQ9Im0gMCwwIDEwNS42NDIsLTEwNS40MDcgYyAyLjY1MywtMi42NDcgNS45OTEsLTQuMjQxIDkuNDQzLC00Ljc1MyBoIDUuMjc3IGMgMy40ODEsMC41MTIgNi43OSwyLjEwNiA5LjQ0NCw0Ljc1MyBsIDM4LjI1NiwzOC4xNzIgYyA2LjY0OCw2LjYzMiA2LjY0OCwxNy40NzggMCwyNC4xMSBMIDYyLjQyMSw2Mi4yODIgYyAtNi42NDgsNi42MzMgLTE3LjUxNyw2LjYzMyAtMjQuMTY0LDAgTCAwLDI0LjExIEMgLTYuNjQ3LDE3LjQ3OCAtNi42NDcsNi42MzIgMCwwIi8+PC9nPjxnIHRyYW5zZm9ybT0idHJhbnNsYXRlKDk0LjQ0MjQsNDMuMjEwOSkiIGlkPSJnNzg1Ij48cGF0aCBpZD0icGF0aDc4NyIgc3R5bGU9ImZpbGw6IzAwYzdkZDtmaWxsLW9wYWNpdHk6MTtmaWxsLXJ1bGU6ZXZlbm9kZDtzdHJva2U6bm9uZSIgZD0ibSAwLDAgMzAuMzgzLC0zMC4zMTUgYyAyLjY1MywtMi42NDcgNS45OTEsLTQuMjQyIDkuNDQzLC00Ljc1NCBoIDUuMjc4IGMgMy40OCwwLjUxMiA2Ljc5LDIuMTA3IDkuNDQzLDQuNzU0IEwgOTIuODA0LDcuODU2IGMgNi42NDcsNi42MzMgNi42NDcsMTcuNDc4IDAsMjQuMTExIEwgNjIuMzkyLDYyLjMxMSBjIDYuNjQ3LC02LjYzMyA2LjY0NywtMTcuNDc4IDAsLTI0LjExIEwgMjQuMTM1LDAuMDI5IEMgMjEuNDgxLC0yLjYxOSAxOC4xNzMsLTQuMjEzIDE0LjcyMSwtNC43NTMgSCA5LjQxNCBDIDUuOTYyLC00LjIxMyAyLjY1MywtMi42MTkgMCwwIi8+PC9nPjxnIHRyYW5zZm9ybT0idHJhbnNsYXRlKDIxNC43NDcxLDE0OS4zODYyKSIgaWQ9Imc3ODkiPjxwYXRoIGlkPSJwYXRoNzkxIiBzdHlsZT0iZmlsbDojZmVkMWEzO2ZpbGwtb3BhY2l0eToxO2ZpbGwtcnVsZTpldmVub2RkO3N0cm9rZTpub25lIiBkPSJtIDAsMCAtNTAuOTUyLC01MC44MzkgMjMuNDUxLC0yMy4zNjkgNTAuOTUyLDUwLjgzOCBjIDE5LjA4NiwxOS4wNDMgMjIuNzk0LDE0Ljk0NSA0NS4zMzIsMTEuNzI4IDEwLjA5OSwtMS40NTIgMjQuNTA2LDMuOTI4IDM2LjA4OSwxMS4wNDQgTCA4MS40NSwyMi44MDEgQyA3OC41MTIsMjEuMDA3IDc1LjQwMSwxOS4zIDcyLjIzNSwxNy44MTkgNjIuODQ5LDEzLjQwNyA1Mi44OTMsMTAuNjc1IDQ1LjMzMywxMS43NTYgMjIuODIzLDE0Ljk3MyAxOS4wODYsMTkuMDQzIDAsMCIvPjwvZz48ZyB0cmFuc2Zvcm09InRyYW5zbGF0ZSgyNzcuOTEwMiwzMjQuNTA0NCkiIGlkPSJnNzkzIj48cGF0aCBpZD0icGF0aDc5NSIgc3R5bGU9ImZpbGw6bm9uZTtzdHJva2U6IzAwMDAwMDtzdHJva2Utd2lkdGg6MTU7c3Ryb2tlLWxpbmVjYXA6cm91bmQ7c3Ryb2tlLWxpbmVqb2luOnJvdW5kO3N0cm9rZS1taXRlcmxpbWl0OjEwO3N0cm9rZS1kYXNoYXJyYXk6bm9uZTtzdHJva2Utb3BhY2l0eToxIiBkPSJtIDAsMCA3LjgxNiw3LjggMjAuNDU1LDIwLjQwOSBjIDEwLjU1NiwxMC41MzIgMTAuNTU2LDI3Ljc4MiAwLDM4LjMxNCAtMTAuNTU1LDEwLjUzMyAtMjcuODQzLDEwLjUzMyAtMzguMzk5LDAgTCAtMzguMzk5LDM4LjMxNCIvPjwvZz48ZyB0cmFuc2Zvcm09InRyYW5zbGF0ZSg0MDkuNDI2OCwyNjguOTEyMSkiIGlkPSJnNzk3Ij48cGF0aCBpZD0icGF0aDc5OSIgc3R5bGU9ImZpbGw6bm9uZTtzdHJva2U6IzAwMDAwMDtzdHJva2Utd2lkdGg6MTU7c3Ryb2tlLWxpbmVjYXA6cm91bmQ7c3Ryb2tlLWxpbmVqb2luOnJvdW5kO3N0cm9rZS1taXRlcmxpbWl0OjEwO3N0cm9rZS1kYXNoYXJyYXk6bm9uZTtzdHJva2Utb3BhY2l0eToxIiBkPSJtIDAsMCBjIC05LjI0Myw5LjIyMyAtMjQuMzkyLDkuMjIzIC0zMy42MzUsMCBsIC0zNS45MTgsLTM1Ljg2NiBjIC05LjI0MywtOS4yMjMgLTkuMjQzLC0yNC4zMSAwLC0zMy41MzIgOS4yNDMsLTkuMjIzIDI0LjM2NCwtOS4yMjMgMzMuNjA4LDAgTCAwLC0zMy41MzIgQyA5LjI0NCwtMjQuMzEgOS4yNDQsLTkuMjIzIDAsMCBaIi8+PC9nPjxnIHRyYW5zZm9ybT0idHJhbnNsYXRlKDM0MC45ODczLDMxMC44MTMpIiBpZD0iZzgwMSI+PHBhdGggaWQ9InBhdGg4MDMiIHN0eWxlPSJmaWxsOm5vbmU7c3Ryb2tlOiMwMDAwMDA7c3Ryb2tlLXdpZHRoOjE1O3N0cm9rZS1saW5lY2FwOnJvdW5kO3N0cm9rZS1saW5lam9pbjpyb3VuZDtzdHJva2UtbWl0ZXJsaW1pdDoxMDtzdHJva2UtZGFzaGFycmF5Om5vbmU7c3Ryb2tlLW9wYWNpdHk6MSIgZD0ibSAwLDAgYyAtMy41OTUsLTMuNTg3IDMuNzk0LDMuNzg2IDMuOTA4LDMuODk5IDEwLjI0MSwxMC41NjEgMTAuMTI4LDI3LjU1NSAtMC4zMTQsMzguMDAyIC0xMC41NTUsMTAuNTMyIC0yNy44NDQsMTAuNTMyIC0zOC40LDAgbCAtMTQuMTUsLTE0LjExOSIvPjwvZz48ZyB0cmFuc2Zvcm09InRyYW5zbGF0ZSgzMzYuNzkzLDg2LjM5MzEpIiBpZD0iZzgwNSI+PHBhdGggaWQ9InBhdGg4MDciIHN0eWxlPSJmaWxsOm5vbmU7c3Ryb2tlOiMwMDAwMDA7c3Ryb2tlLXdpZHRoOjE1O3N0cm9rZS1saW5lY2FwOnJvdW5kO3N0cm9rZS1saW5lam9pbjpyb3VuZDtzdHJva2UtbWl0ZXJsaW1pdDoxMDtzdHJva2UtZGFzaGFycmF5Om5vbmU7c3Ryb2tlLW9wYWNpdHk6MSIgZD0ibSAwLDAgYyAtMC41NDIsMTIuODk1IDEuOTExLDI1LjkzMiA3LjQxOCwzNy44NTggbCAtMTI0LjEsMTIzLjg1MyBNIDI2LjA0NywxMDcgNTEuMzgsODEuNzI0IGMgMzAuMjk4LDEzLjg5MSA2Ny41MjcsOC40MjUgOTIuNDA0LC0xNi4zOTYgMTkuODU3LC0xOS44MTIgMjcuMzYsLTQ3LjQ4IDIyLjQ4MiwtNzMuMjEzIC01LjEwOCwtMjcuMDEzIC0xOS4zNzEsLTYuNTc1IC0yMi4yODIsLTMuNjcyIEwgMTA5LjE1LDIzLjE5OSBDIDk2Ljk2OSwzNS4zNTQgNzcuMzcsMzUuODY2IDY0LjU2MSwyNC43MDggNTMuMzc3LDExLjkyNyA1My44OTEsLTcuNjI5IDY2LjA3MiwtMTkuNzg0IGwgMzQuODM0LC0zNC43NTYgYyAyLjkxLC0yLjkwMyAyMy4zOTQsLTE3LjEzNiAtMy42OCwtMjIuMjMxIC0yNS43OSwtNC44NjggLTUzLjUyLDIuNjE5IC03My4zNzUsMjIuNDMxIC02LjE5Miw2LjIwNSAtMTEuMTg0LDEzLjE1MSAtMTQuOTc4LDIwLjU1MSBtIC0xNDYuNzgsMzA0LjM1MSAtMzEuMDk3LDMxLjA1NiBjIDEzLjkyMiwzMC4yMyA4LjQ0NCw2Ny4zNzcgLTE2LjQzMyw5Mi4xOTggLTE5Ljg1NSwxOS44MTIgLTQ3LjU4NCwyNy4yOTkgLTczLjM3NSwyMi40MzEgLTI3LjA3NCwtNS4wOTUgLTYuNTksLTE5LjMyOCAtMy42OCwtMjIuMjMxIGwgMzQuODM0LC0zNC43NTYgYyAxMi4xODEsLTEyLjE1NSAxMi42OTUsLTMxLjcxMSAxLjUxMiwtNDQuNDkxIC0xMi44MSwtMTEuMTU5IC0zMi40MDksLTEwLjY0NiAtNDQuNTksMS41MDggbCAtMzQuODM0LDM0Ljc1NiBjIC0yLjkxLDIuOTA0IC0xNy4xNzQsMjMuMzQyIC0yMi4yODIsLTMuNjcyIC00Ljg3NywtMjUuNzMzIDIuNjI1LC01My40MDEgMjIuNDgyLC03My4yMTMgMjQuODc3LC0yNC44MjEgNjIuMTA2LC0zMC4yODcgOTIuNDA0LC0xNi4zOTYgbCAzMi45MjIsLTMyLjg0OCIvPjwvZz48ZyB0cmFuc2Zvcm09InRyYW5zbGF0ZSgxNDQuMjI0NiwxMTguMTAzKSIgaWQ9Imc4MDkiPjxwYXRoIGlkPSJwYXRoODExIiBzdHlsZT0iZmlsbDpub25lO3N0cm9rZTojMDAwMDAwO3N0cm9rZS13aWR0aDoxNTtzdHJva2UtbGluZWNhcDpyb3VuZDtzdHJva2UtbGluZWpvaW46cm91bmQ7c3Ryb2tlLW1pdGVybGltaXQ6MTA7c3Ryb2tlLWRhc2hhcnJheTpub25lO3N0cm9rZS1vcGFjaXR5OjEiIGQ9Im0gMCwwIDQzLjAyMSwtNDIuOTI1IGMgNi42NDgsLTYuNjMzIDYuNjQ4LC0xNy40NzggMCwtMjQuMTExIEwgNC43NjUsLTEwNS4yMDggYyAtNi42NDgsLTYuNjMyIC0xNy41MTcsLTYuNjMyIC0yNC4xNjQsMCBMIC0xMjUuMDQxLDAuMTk5IGMgLTYuNjQ3LDYuNjMzIC02LjY0NywxNy40NzggMCwyNC4xMTEgbCAzOC4yNTcsMzguMTcxIGMgNi42NDcsNi42MzMgMTcuNTE2LDYuNjMzIDI0LjE2NCwwIGwgMzcuODI5LC0zNy43NDUiLz48L2c+PGcgdHJhbnNmb3JtPSJ0cmFuc2xhdGUoMTg3LjI0NjEsNzUuMTc3NykiIGlkPSJnODEzIj48cGF0aCBpZD0icGF0aDgxNSIgc3R5bGU9ImZpbGw6bm9uZTtzdHJva2U6IzAwMDAwMDtzdHJva2Utd2lkdGg6MTU7c3Ryb2tlLWxpbmVjYXA6cm91bmQ7c3Ryb2tlLWxpbmVqb2luOnJvdW5kO3N0cm9rZS1taXRlcmxpbWl0OjEwO3N0cm9rZS1kYXNoYXJyYXk6bm9uZTtzdHJva2Utb3BhY2l0eToxIiBkPSJtIDAsMCA1MC45NTIsNTAuODM5IGMgMTkuMDg2LDE5LjA0MyAyMi43OTQsMTQuOTQ0IDQ1LjMzMiwxMS43MjcgMTAuMDk5LC0xLjQ1MSAyNC41MDYsMy45MjkgMzYuMDg5LDExLjA0NSIvPjwvZz48ZyB0cmFuc2Zvcm09InRyYW5zbGF0ZSgzMDQuMzI3MSwyNzIuNDEzMSkiIGlkPSJnODE3Ij48cGF0aCBpZD0icGF0aDgxOSIgc3R5bGU9ImZpbGw6I2ZlZDFhMztmaWxsLW9wYWNpdHk6MTtmaWxsLXJ1bGU6ZXZlbm9kZDtzdHJva2U6bm9uZSIgZD0ibSAwLDAgYyAtNS4yNzcsLTEwLjE5IC0zLjY1MSwtMjMuMDg1IDQuOTA3LC0zMS41OTYgMTAuNTU2LC0xMC41NjEgMjcuODQ0LC0xMC41NjEgMzguNCwwIGwgMTkuNTcxLDYuNjMyIDguNTg3LDIxLjQ2MyBjIDEwLjU4NCwxMC41MzIgMTAuNTg0LDI3Ljc4MiAwLDM4LjMxNCAtMTAuNTU2LDEwLjUzMiAtMjcuODQ0LDEwLjUzMiAtMzguNCwwIEwgNC45MDcsNi43MTggQyAzLjMxLDUuMTI0IDEuOTY5LDMuNDE2IDAuODU2LDEuNTY2IDAuNjU2LDEuMDI1IDAuMzcxLDAuNTEzIDAsMCIvPjwvZz48ZyB0cmFuc2Zvcm09InRyYW5zbGF0ZSgzNTkuMTU5MiwzMTUuMDI1OSkiIGlkPSJnODIxIj48cGF0aCBpZD0icGF0aDgyMyIgc3R5bGU9ImZpbGw6I2ZmYmM4NTtmaWxsLW9wYWNpdHk6MTtmaWxsLXJ1bGU6ZXZlbm9kZDtzdHJva2U6bm9uZSIgZD0ibSAwLDAgYyA2LjcwNSwtMTAuNDc2IDUuNDc4LC0yNC42MjMgLTMuNjgsLTMzLjc2IGwgLTI4LjE1OCwtMjguMTI0IGMgLTUuOTMzLC01Ljg5MiAtMTMuOTc4LC04LjUxMSAtMjEuNzY2LC03Ljc3MSAxLjAyNiwtMS42MjIgMi4yNTIsLTMuMTU5IDMuNjc5LC00LjU1NCAxMC41NTYsLTEwLjU2MSAyNy44NDQsLTEwLjU2MSAzOC40LDAgbCAyOC4xNTgsMjguMDk1IGMgMTAuNTg0LDEwLjUzMiAxMC41ODQsMjcuNzgyIDAsMzguMzE0IEMgMTIuMDExLC0zLjE2IDYuMTA1LC0wLjU2OSAwLDAiLz48L2c+PGcgdHJhbnNmb3JtPSJ0cmFuc2xhdGUoMzc1Ljc5MiwzMDcuMjI2MSkiIGlkPSJnODI1Ij48cGF0aCBpZD0icGF0aDgyNyIgc3R5bGU9ImZpbGw6bm9uZTtzdHJva2U6IzAwMDAwMDtzdHJva2Utd2lkdGg6MTU7c3Ryb2tlLWxpbmVjYXA6cm91bmQ7c3Ryb2tlLWxpbmVqb2luOnJvdW5kO3N0cm9rZS1taXRlcmxpbWl0OjEwO3N0cm9rZS1kYXNoYXJyYXk6bm9uZTtzdHJva2Utb3BhY2l0eToxIiBkPSJtIDAsMCBjIC0xMC41NTYsMTAuNTMyIC0yNy44NDQsMTAuNTMyIC0zOC4zOTksMCBsIC0yOC4xNTksLTI4LjA5NSBjIC0xMC41ODQsLTEwLjU2MSAtMTAuNTg0LC0yNy43ODIgMCwtMzguMzE0IDEwLjU1NiwtMTAuNTYxIDI3Ljg0NCwtMTAuNTYxIDM4LjQsMCBMIDAsLTM4LjMxNCBDIDEwLjU4NCwtMjcuNzgyIDEwLjU4NCwtMTAuNTMyIDAsMCBaIi8+PC9nPjxnIHRyYW5zZm9ybT0idHJhbnNsYXRlKDMxMi43MTQ4LDI4Mi41NzUyKSIgaWQ9Imc4MjkiPjxwYXRoIGlkPSJwYXRoODMxIiBzdHlsZT0iZmlsbDpub25lO3N0cm9rZTojMDAwMDAwO3N0cm9rZS13aWR0aDoxNTtzdHJva2UtbGluZWNhcDpyb3VuZDtzdHJva2UtbGluZWpvaW46cm91bmQ7c3Ryb2tlLW1pdGVybGltaXQ6MTA7c3Ryb2tlLWRhc2hhcnJheTpub25lO3N0cm9rZS1vcGFjaXR5OjEiIGQ9Im0gMCwwIGMgMC43NzEsNy40ODYgLTExLjYxMSwxOC43ODcgLTI0LjMzNSwzMS40ODMgbCAtNTUuOTQ0LDU1LjgyIGMgLTUuNjQ5LDUuNjM2IC0xNC45NSw1LjYzNiAtMjAuNjI2LC0wLjAyOSBMIC0xNDcuMDk0LDQxLjE4OSBDIC0xNTcuNTkyLDMwLjcxNCAtMTYyLjMsMTUuMzE0IC0xNjEuNDcyLDEuNDggYyAxLjI4NCwtMjEuMTc4IC04LjU4OCwtNDIuNTg0IC0zNy44NTgsLTcxLjc2MSBsIC0zMS43OCwtMzEuNzEgTSAtOTIuNzQ2LDIzLjExNCBjIDAuNDg0LC0wLjUxMiAxOS4zOTksLTE5LjM1NyAxOS44ODQsLTE5Ljg0MSAxNC45NzcsLTE0LjQ2IDQ1LjE4OSwtMjYuOTI3IDY0LjY3NCwtMTMuMDM3Ii8+PC9nPjxnIHRyYW5zZm9ybT0idHJhbnNsYXRlKDIxOS45Njg3LDMwNS42ODkpIiBpZD0iZzgzMyI+PHBhdGggaWQ9InBhdGg4MzUiIHN0eWxlPSJmaWxsOm5vbmU7c3Ryb2tlOiMwMDAwMDA7c3Ryb2tlLXdpZHRoOjE1O3N0cm9rZS1saW5lY2FwOnJvdW5kO3N0cm9rZS1saW5lam9pbjpyb3VuZDtzdHJva2UtbWl0ZXJsaW1pdDoxMDtzdHJva2UtZGFzaGFycmF5Om5vbmU7c3Ryb2tlLW9wYWNpdHk6MSIgZD0iTSAwLDAgQyAxNi42ODgsLTE2LjY1MiAxMi4wNjcsLTQ4LjI0OSAtMTAuMjk5LC03MC41NjUiLz48L2c+PC9nPjwvZz48L2c+PC9zdmc+;fontFamily=Poppins;fontSource=https%3A%2F%2Ffonts.googleapis.com%2Fcss%3Ffamily%3DPoppins;" vertex="1" parent="1">
          <mxGeometry x="840" y="250" width="50.08" height="50" as="geometry" />
        </mxCell>
        <mxCell id="boy779TEuCWVPhwvG-UE-15" value="Balance Sheet" style="shape=image;verticalLabelPosition=bottom;labelBackgroundColor=none;verticalAlign=top;aspect=fixed;imageAspect=0;editableCssRules=.*;image=data:image/svg+xml,PHN2ZyB4bWxucz0iaHR0cDovL3d3dy53My5vcmcvMjAwMC9zdmciIHZpZXdCb3g9IjkuOTk5NjMyODM1Mzg4MTg0IDEwLjU2MTU0MzQ2NDY2MDY0NSA2NjIuNjY3Nzg1NjQ0NTMxMiA2NjEuNTQzODIzMjQyMTg3NSIgaGVpZ2h0PSI2NjEuNTQzODIzMjQyMTg3NSIgd2lkdGg9IjY2Mi42Njc3ODU2NDQ1MzEyIiB4bWw6c3BhY2U9InByZXNlcnZlIiBpZD0ic3ZnNzE3IiB2ZXJzaW9uPSIxLjEiPjxkZWZzIGlkPSJkZWZzNzIxIj48Y2xpcFBhdGggaWQ9ImNsaXBQYXRoNzMxIiBjbGlwUGF0aFVuaXRzPSJ1c2VyU3BhY2VPblVzZSI+PHBhdGggaWQ9InBhdGg3MjkiIGQ9Ik0gMCw1MTIgSCA1MTIgViAwIEggMCBaIi8+PC9jbGlwUGF0aD48L2RlZnM+PGcgdHJhbnNmb3JtPSJtYXRyaXgoMS4zMzMzMzMzLDAsMCwtMS4zMzMzMzMzLDAsNjgyLjY2NjY3KSIgaWQ9Imc3MjMiPjxnIGlkPSJnNzI1Ij48ZyBjbGlwLXBhdGg9InVybCgjY2xpcFBhdGg3MzEpIiBpZD0iZzcyNyI+PGcgdHJhbnNmb3JtPSJ0cmFuc2xhdGUoOC45NDE0LDQzMy43NTQ0KSIgaWQ9Imc3MzMiPjxwYXRoIGlkPSJwYXRoNzM1IiBzdHlsZT0iZmlsbDojZGVlY2YwO2ZpbGwtb3BhY2l0eToxO2ZpbGwtcnVsZTpldmVub2RkO3N0cm9rZTpub25lIiBkPSJtIDAsMCBjIC00Ljg3OCwtMjUuNzMzIDIuNjI1LC01My40MDEgMjIuNDgxLC03My4yMTMgMjQuODc3LC0yNC44MjIgNjIuMTA3LC0zMC4yODcgOTIuNDA1LC0xNi4zOTYgbCAzMi45MjIsLTMyLjg0OSBoIDQzLjg0OCBsIC0xLjcxMiw0NS42NTkgLTMxLjA5NiwzMS4wNTUgYyAxMy45MjIsMzAuMjMgOC40NDQsNjcuMzc3IC0xNi40MzMsOTIuMTk5IEMgMTIyLjU2LDY2LjI2NyA5NC44Myw3My43NTMgNjkuMDQsNjguODg2IDQxLjk2Niw2My43OTEgNjIuNDQ5LDQ5LjU1OCA2NS4zNTksNDYuNjU0IGwgMzQuODM0LC0zNC43NTYgYyAxMi4xODIsLTEyLjE1NCAxMi42OTYsLTMxLjcxIDEuNTEyLC00NC40OTEgLTEyLjgwOSwtMTEuMTU4IC0zMi40MDgsLTEwLjY0NiAtNDQuNTksMS41MDkgTCAyMi4yODEsMy42NzIgQyAxOS4zNzEsNi41NzUgNS4xMDcsMjcuMDEzIDAsMCIvPjwvZz48ZyB0cmFuc2Zvcm09InRyYW5zbGF0ZSgyMjAuMTExMywyNDguMTA0KSIgaWQ9Imc3MzciPjxwYXRoIGlkPSJwYXRoNzM5IiBzdHlsZT0iZmlsbDojZGVlY2YwO2ZpbGwtb3BhY2l0eToxO2ZpbGwtcnVsZTpldmVub2RkO3N0cm9rZTpub25lIiBkPSJtIDAsMCAxOC4xMTUsLTUzLjQwMSA4MS4zOTMsLTQ1LjkxNCAyNC41OTIsLTI0LjUzOCBjIC0xMy45MjIsLTMwLjIzIC04LjQ0NiwtNjcuMzc2IDE2LjQzMiwtOTIuMTk4IDE5Ljg1NiwtMTkuODEyIDQ3LjU4NSwtMjcuMjk5IDczLjM3NSwtMjIuNDMxIDI3LjA3NCw1LjA5NSA2LjU5MSwxOS4zMjggMy42ODEsMjIuMjMyIGwgLTM0LjgzNCwzNC43NTUgYyAtMTIuMTgyLDEyLjE1NSAtMTIuNjk1LDMxLjcxMSAtMS41MTIsNDQuNDkyIDEyLjgxLDExLjE1OCAzMi40MDgsMTAuNjQ2IDQ0LjU5LC0xLjUwOSBsIDM0LjgzNCwtMzQuNzU2IGMgMi45MSwtMi45MDMgMTcuMTc0LC0yMy4zNDEgMjIuMjgxLDMuNjcyIDQuODc4LDI1LjczMyAtMi42MjUsNTMuNDAxIC0yMi40ODEsNzMuMjEzIC0yNC44NzcsMjQuODIxIC02Mi4xMDcsMzAuMjg3IC05Mi40MDQsMTYuMzk2IGwgLTI1LjMzMywyNS4yNzcgYyAtNy45NiwtMi4xMDcgLTE2Ljc3NSwtMC4wNTcgLTIyLjk2Niw2LjEyIC05LjI0Myw5LjIyMiAtOS4yNDMsMjQuMzA5IDAsMzMuNTMyIGwgMTQuOTIxLDE0LjkxNSBjIC0xMC41NTYsLTEwLjUzMSAtMjcuODQ0LC0xMC41MzEgLTM4LjQsMCBDIDg3Ljc1NCw4LjM2OSA4Ni4wOTksMjEuMjYzIDkxLjM3NywzMS40ODIgODEuNzM0LDE4Ljk1OCAzNS4zMTgsNjQuMzAzIDMzLjMyMSw2Ni4yOTUgMTMuMTgsODIuNDM1IC00MS43NjcsNDUuNDMxIDAsMCIvPjwvZz48ZyB0cmFuc2Zvcm09InRyYW5zbGF0ZSgzMzkuODc0LDIzMy4wNDU5KSIgaWQ9Imc3NDEiPjxwYXRoIGlkPSJwYXRoNzQzIiBzdHlsZT0iZmlsbDojZmVkMWEzO2ZpbGwtb3BhY2l0eToxO2ZpbGwtcnVsZTpldmVub2RkO3N0cm9rZTpub25lIiBkPSJtIDAsMCBjIC05LjI0MywtOS4yMjMgLTkuMjQzLC0yNC4zMSAwLC0zMy41MzIgNi4xOTEsLTYuMTc3IDE1LjAwNiwtOC4yMjcgMjIuOTY2LC02LjEyIDMuOTA4LDEuMDI1IDcuNTg5LDMuMDc0IDEwLjY0MSw2LjEyIEwgNjkuNTUzLDIuMzM0IGMgOS4yNDQsOS4yMjMgOS4yNDQsMjQuMzEgMCwzMy41MzIgLTkuMjQzLDkuMjIzIC0yNC4zNjQsOS4yMjMgLTMzLjYzNSwwIEwgMzUuMzc2LDM1LjMyNSAxNC45MjEsMTQuOTE2IFoiLz48L2c+PGcgdHJhbnNmb3JtPSJ0cmFuc2xhdGUoMjg1LjcyNjYsMzMyLjMwNDIpIiBpZD0iZzc0NSI+PHBhdGggaWQ9InBhdGg3NDciIHN0eWxlPSJmaWxsOiNmZWQxYTM7ZmlsbC1vcGFjaXR5OjE7ZmlsbC1ydWxlOmV2ZW5vZGQ7c3Ryb2tlOm5vbmUiIGQ9Im0gMCwwIC03LjgxNiwtNy44IC00Ljg3OSwtNy4wODcgQyAtMjMuNTkzLC0zMC42NTcgMi4zNCwtNjEuODg0IDI2LjY0NiwtNTEuMTUyIGwgMjEuODUzLDUuNTc5IDMuMTY3LDIwLjQ5NSA3LjE4OCw3LjE3MyBDIDY5LjQxLC03LjM3MyA2OS40MSw5Ljg3NyA1OC44NTQsMjAuNDEgNDguMywzMC45NDEgMzEuMDExLDMwLjk0MSAyMC40NTUsMjAuNDEgTCA2LjMwNSw2LjI5MSBaIi8+PC9nPjxnIHRyYW5zZm9ybT0idHJhbnNsYXRlKDI2Ny43ODIyLDM5MS4wMjc4KSIgaWQ9Imc3NDkiPjxwYXRoIGlkPSJwYXRoNzUxIiBzdHlsZT0iZmlsbDojZmVkMWEzO2ZpbGwtb3BhY2l0eToxO2ZpbGwtcnVsZTpldmVub2RkO3N0cm9rZTpub25lIiBkPSJtIDAsMCAtMjguMjcxLC0yOC4yMDkgYyAtMTkuNTQyLC0xOS40OTkgMTAuNzI2LC01MS41MjIgMzguMzk5LC0zOC4zMTQgbCAyMi43MDksNi43NzQgNS41NjIsMjEuNDM1IEMgNDguOTU1LC0yNy43ODIgNDguOTU1LC0xMC41MzIgMzguMzk5LDAgMjcuODQ0LDEwLjUzMiAxMC41NTYsMTAuNTMyIDAsMCIvPjwvZz48ZyB0cmFuc2Zvcm09InRyYW5zbGF0ZSgxNTEuMjQzMiwyODQuMDU1NykiIGlkPSJnNzUzIj48cGF0aCBpZD0icGF0aDc1NSIgc3R5bGU9ImZpbGw6I2ZmZTVjMTtmaWxsLW9wYWNpdHk6MTtmaWxsLXJ1bGU6ZXZlbm9kZDtzdHJva2U6bm9uZSIgZD0ibSAwLDAgYyAxLjI4MywtMjEuMTc4IC04LjU4OCwtNDIuNTg0IC0zNy44NTgsLTcxLjc2MSBsIC0zMS43ODEsLTMxLjcxIDE3LjU3NCwtNjkuODI1IDg4LjA2OCwtMzUuNTgyIDUwLjk1Miw1MC44MzkgYyAxOS4wODYsMTkuMDQzIDIyLjc5NCwxNC45NDQgNDUuMzMyLDExLjcyNyAxMC4wOTksLTEuNDUxIDI0LjUwNiwzLjkyOSAzNi4wODksMTEuMDQ1IGwgLTk5LjUwOCw5OS4zMTUgYyAxMi4xODIsMTkuMjE0IDEzLjQwOCw0MS4zNiAxLjk5Nyw1NS4yMjMgLTAuMTQzLDAuMTcgLTAuMDI5LDAuMjU2IDAuMDg1LDAuMTQyIDUuMTA3LC01LjA5NSAxNy4yNiwtMTcuMjIyIDE3LjY1OSwtMTcuNjIgMTYuOTE4LC0xNi4zMTEgNTMuMjY0LC0zMC4xNDUgNzEuNjM2LC02LjI2MiAwLjI4NSwwLjUxMiAwLjU3LDEuMDUzIDAuODg1LDEuNTY1IDIuNzY2LDcuNDMgLTEwLjQ0MywxOS4zNTcgLTIzLjk5MywzMi45MDYgbCAtMTAuNDcsMTAuNDQ3IC0zOC4zOTksMzguMzE0IC03LjA3Niw3LjA2IEMgNzUuNTQ0LDkxLjQ1OCA2Ni4yNDMsOTEuNDU4IDYwLjU2Niw4NS43OTQgTCA0Ny42NDMsNzIuODk5IDE0LjM3OCwzOS43MDkgQyAxMC43MjcsMzYuMDY1IDcuNzYsMzEuODI0IDUuNTA2LDI3LjI0MSAxLjI4MywxOC43MDIgLTAuNTQyLDkuMDIzIDAsMCIvPjwvZz48ZyB0cmFuc2Zvcm09InRyYW5zbGF0ZSgxMzEuOTAwNCw0NjQuMDEyNykiIGlkPSJnNzU3Ij48cGF0aCBpZD0icGF0aDc1OSIgc3R5bGU9ImZpbGw6I2EwY2NkMjtmaWxsLW9wYWNpdHk6MTtmaWxsLXJ1bGU6ZXZlbm9kZDtzdHJva2U6bm9uZSIgZD0ibSAwLDAgYyAyMy42NSwtMjMuNTk4IDI2LjU2MSwtNTUuMTY2IDE1LjEyLC04NC41NDIgLTIuMDU0LC01LjIwOSAwLjk0MiwtNy4zMTUgNC45NjQsLTExLjMyOSBsIDI3LjQ0NCwtMjcuMzU1IDAuMTE1LC0zLjEzMSAxOS4zNDIsMTkuMjk5IC0zMS4wOTYsMzEuMDU2IEMgNDkuODExLC00NS43NzIgNDQuMzMzLC04LjYyNSAxOS40NTYsMTYuMTk3IC0wLjM5OSwzNi4wMDkgLTI4LjEyOSw0My40OTUgLTUzLjkxOSwzOC42MjcgLTcwLjYwOCwzNS40OTYgLTY5LjIzOSwyOC44NjQgLTY1LjAxNywyMy41NjkgLTQxLjczNywyNS41NjIgLTE3Ljc0NSwxNy42NzcgMCwwIi8+PC9nPjxnIHRyYW5zZm9ybT0idHJhbnNsYXRlKDI2NC4wNzMyLDMzOC4zMTAxKSIgaWQ9Imc3NjEiPjxwYXRoIGlkPSJwYXRoNzYzIiBzdHlsZT0iZmlsbDojZmZiYzg1O2ZpbGwtb3BhY2l0eToxO2ZpbGwtcnVsZTpldmVub2RkO3N0cm9rZTpub25lIiBkPSJtIDAsMCAxMy44MzcsLTEzLjgwNiA3LjgxNiw3LjggNi4zMDUsNi4yOTEgMTQuMTUsMTQuMTE5IGMgMTAuNTU2LDEwLjUzMiAxMC41NTYsMjcuNzgyIDAsMzguMzE0IC00LjMzNiw0LjI5OCAtOS43NTYsNi44MzEgLTE1LjQwNSw3LjYyOSA4LjMzLC0xMC42MTggNy41ODksLTI2LjEwMyAtMi4xNjgsLTM1Ljg2NyBMIDEwLjM4NSwxMC4zOSBaIi8+PC9nPjxnIHRyYW5zZm9ybT0idHJhbnNsYXRlKDMyNi4yMDksMzI2LjIxMjQpIiBpZD0iZzc2NSI+PHBhdGggaWQ9InBhdGg3NjciIHN0eWxlPSJmaWxsOiNmZmJjODU7ZmlsbC1vcGFjaXR5OjE7ZmlsbC1ydWxlOmV2ZW5vZGQ7c3Ryb2tlOm5vbmUiIGQ9Im0gMCwwIC0yNS4wNDgsLTI0Ljk5MiBjIDcuNzYsLTguMTEzIDEzLjA2NiwtMTUuMTE1IDExLjIxMiwtMjAuMDY5IDEuMTEyLDEuODIyIDIuNDUzLDMuNTU5IDQuMDIzLDUuMTI0IGwgMjguMTg1LDI4LjEyNCBjIDEwLjU1NiwxMC41MzIgMTAuNTU2LDI3Ljc4MiAwLDM4LjMxNCBDIDE0LjE3OSwzMC42NTcgOC45MywzMy4xOSAzLjQ4LDM0LjA0NCAxMC4zODUsMjMuNTY5IDkuMjQzLDkuMjIzIDAsMCIvPjwvZz48ZyB0cmFuc2Zvcm09InRyYW5zbGF0ZSgzMzQuODUzNSwyMDYuODg2MikiIGlkPSJnNzY5Ij48cGF0aCBpZD0icGF0aDc3MSIgc3R5bGU9ImZpbGw6I2ZmYmM4NTtmaWxsLW9wYWNpdHk6MTtmaWxsLXJ1bGU6ZXZlbm9kZDtzdHJva2U6bm9uZSIgZD0ibSAwLDAgYyAxLjE0MSwtMi42NzYgMi44MjQsLTUuMTgxIDUuMDIxLC03LjM3MyA2LjE5MSwtNi4xNzYgMTUuMDA1LC04LjIyNiAyMi45NjUsLTYuMTIgMy45MDksMS4wMjUgNy41ODksMy4wNzUgMTAuNjQyLDYuMTIgbCAzNS45NDUsMzUuODY3IGMgOS4yNDQsOS4yMjIgOS4yNDQsMjQuMzA5IDAsMzMuNTMyIC0zLjMzOCwzLjMzIC03LjQxNyw1LjQ2NSAtMTEuNzI0LDYuMzc2IDMuNzA4LC04LjY1MyAyLjA1MywtMTkuMTI5IC01LjAyMiwtMjYuMTYgTCAyMS44ODEsNi4zNzYgQyAxOC44NTcsMy4zMzEgMTUuMTQ4LDEuMjgxIDExLjI0LDAuMjU2IDcuNTYsLTAuNzExIDMuNzA4LC0wLjc5NyAwLDAiLz48L2c+PGcgdHJhbnNmb3JtPSJ0cmFuc2xhdGUoMzkwLjU5ODYsMTQ0LjQwNTMpIiBpZD0iZzc3MyI+PHBhdGggaWQ9InBhdGg3NzUiIHN0eWxlPSJmaWxsOiNhMGNjZDI7ZmlsbC1vcGFjaXR5OjE7ZmlsbC1ydWxlOmV2ZW5vZGQ7c3Ryb2tlOm5vbmUiIGQ9Im0gMCwwIGMgNTMuNjYyLDE0Ljc3MyA5MC42NjQsLTEzLjg5MSAxMTIuNDYsLTY1Ljg5NyA0Ljg3OCwyNS43MzIgLTIuNjI1LDUzLjQgLTIyLjQ4MSw3My4yMTIgQyA2NS4xMDIsMzIuMTM3IDI3Ljg3MiwzNy42MDMgLTIuNDI2LDIzLjcxMSBsIC0yNS4zMzMsMjUuMjc3IGMgLTcuOTYsLTIuMTA2IC0xNi43NzQsLTAuMDU2IC0yMi45NjYsNi4xMiAtMi4xOTYsMi4xOTIgLTMuODc5LDQuNjk3IC01LjAyLDcuMzczIC0zLjcwOSw4LjY1MyAtMi4wNTUsMTkuMTI4IDUuMDIsMjYuMTYgbCAxNC45MjEsMTQuOTE1IGMgLTEwLjU1NSwtMTAuNTMyIC0yNy44NDMsLTEwLjUzMiAtMzguMzk5LDAgLTEuNDI3LDEuNDIzIC0yLjY1MywyLjkzMiAtMy42ODEsNC41NTUgLTUuMjIsOC4xNjkgLTUuNjIsMTguNTU5IC0xLjIyNiwyNy4wNyAtMTguMzcyLC0yMy44ODIgLTg3LjgxMiwyMy4yODUgLTcxLjYzNiw2LjI2MiBMIC0yNS43MDUsMTAuMDc3IEMgLTEyLjIzOSwtNC4wNzEgLTE2Ljk3NSwtNC42NjggMCwwIi8+PC9nPjxnIHRyYW5zZm9ybT0idHJhbnNsYXRlKDIzOS44NTI1LDI4NS44NDg2KSIgaWQ9Imc3NzciPjxwYXRoIGlkPSJwYXRoNzc5IiBzdHlsZT0iZmlsbDojZmVkMWEzO2ZpbGwtb3BhY2l0eToxO2ZpbGwtcnVsZTpldmVub2RkO3N0cm9rZTpub25lIiBkPSJtIDAsMCBjIDE2LjkxOCwtMTYuMzExIDUzLjI2NCwtMzAuMTQ1IDcxLjYzNiwtNi4yNjIgMC4yODUsMC41MTIgMC41NywxLjA1MyAwLjg4NSwxLjU2NSBDIDc0LjM3NCwwLjI1NiA2OS4wNjgsNy4yNTkgNjEuMzA5LDE1LjM3MiA1NC40MzMsOS41MDcgNDUuOTYsNy4zNDQgMzcuMjAxLDcuNjU3IDM2LjgzMSw3LjY4NiAzNi40ODgsNy42ODYgMzYuMTE3LDcuNzE0IDIwLjU2OSw4LjY1NCA0LjI1MSwxNy4yNzkgLTUuNTM0LDI2LjcyOSBjIC0wLjExNCwwLjExNCAtMS41OTgsMS41OTQgLTMuNjgxLDMuNjcyIC0yLjUxLDIuNDc2IC0yLjg1MiwyLjg3NSAtNS45MDUsNS44OTIgLTEuODU1LDIuMzA2IC01LjQsMC40MTkgLTUuOTgzLC0wLjc0MSAtMi4wNTIsLTQuMDgyIC0xLjkzNCwtNS44MDUgLTEuMjUsLTEwLjEwNCAwLjU3MSwtMy43MjkgMy4zMjUsLTYuNDkgNC43OCwtNy44MjggQyAtMTEuODExLDExLjg5OCAtMC4zNDIsMC4zNDIgMCwwIi8+PC9nPjxnIHRyYW5zZm9ybT0idHJhbnNsYXRlKDE5LjE4MzYsMTE4LjMwMjIpIiBpZD0iZzc4MSI+PHBhdGggaWQ9InBhdGg3ODMiIHN0eWxlPSJmaWxsOiM2YmQ5ZTc7ZmlsbC1vcGFjaXR5OjE7ZmlsbC1ydWxlOmV2ZW5vZGQ7c3Ryb2tlOm5vbmUiIGQ9Im0gMCwwIDEwNS42NDIsLTEwNS40MDcgYyAyLjY1MywtMi42NDcgNS45OTEsLTQuMjQxIDkuNDQzLC00Ljc1MyBoIDUuMjc3IGMgMy40ODEsMC41MTIgNi43OSwyLjEwNiA5LjQ0NCw0Ljc1MyBsIDM4LjI1NiwzOC4xNzIgYyA2LjY0OCw2LjYzMiA2LjY0OCwxNy40NzggMCwyNC4xMSBMIDYyLjQyMSw2Mi4yODIgYyAtNi42NDgsNi42MzMgLTE3LjUxNyw2LjYzMyAtMjQuMTY0LDAgTCAwLDI0LjExIEMgLTYuNjQ3LDE3LjQ3OCAtNi42NDcsNi42MzIgMCwwIi8+PC9nPjxnIHRyYW5zZm9ybT0idHJhbnNsYXRlKDk0LjQ0MjQsNDMuMjEwOSkiIGlkPSJnNzg1Ij48cGF0aCBpZD0icGF0aDc4NyIgc3R5bGU9ImZpbGw6IzAwYzdkZDtmaWxsLW9wYWNpdHk6MTtmaWxsLXJ1bGU6ZXZlbm9kZDtzdHJva2U6bm9uZSIgZD0ibSAwLDAgMzAuMzgzLC0zMC4zMTUgYyAyLjY1MywtMi42NDcgNS45OTEsLTQuMjQyIDkuNDQzLC00Ljc1NCBoIDUuMjc4IGMgMy40OCwwLjUxMiA2Ljc5LDIuMTA3IDkuNDQzLDQuNzU0IEwgOTIuODA0LDcuODU2IGMgNi42NDcsNi42MzMgNi42NDcsMTcuNDc4IDAsMjQuMTExIEwgNjIuMzkyLDYyLjMxMSBjIDYuNjQ3LC02LjYzMyA2LjY0NywtMTcuNDc4IDAsLTI0LjExIEwgMjQuMTM1LDAuMDI5IEMgMjEuNDgxLC0yLjYxOSAxOC4xNzMsLTQuMjEzIDE0LjcyMSwtNC43NTMgSCA5LjQxNCBDIDUuOTYyLC00LjIxMyAyLjY1MywtMi42MTkgMCwwIi8+PC9nPjxnIHRyYW5zZm9ybT0idHJhbnNsYXRlKDIxNC43NDcxLDE0OS4zODYyKSIgaWQ9Imc3ODkiPjxwYXRoIGlkPSJwYXRoNzkxIiBzdHlsZT0iZmlsbDojZmVkMWEzO2ZpbGwtb3BhY2l0eToxO2ZpbGwtcnVsZTpldmVub2RkO3N0cm9rZTpub25lIiBkPSJtIDAsMCAtNTAuOTUyLC01MC44MzkgMjMuNDUxLC0yMy4zNjkgNTAuOTUyLDUwLjgzOCBjIDE5LjA4NiwxOS4wNDMgMjIuNzk0LDE0Ljk0NSA0NS4zMzIsMTEuNzI4IDEwLjA5OSwtMS40NTIgMjQuNTA2LDMuOTI4IDM2LjA4OSwxMS4wNDQgTCA4MS40NSwyMi44MDEgQyA3OC41MTIsMjEuMDA3IDc1LjQwMSwxOS4zIDcyLjIzNSwxNy44MTkgNjIuODQ5LDEzLjQwNyA1Mi44OTMsMTAuNjc1IDQ1LjMzMywxMS43NTYgMjIuODIzLDE0Ljk3MyAxOS4wODYsMTkuMDQzIDAsMCIvPjwvZz48ZyB0cmFuc2Zvcm09InRyYW5zbGF0ZSgyNzcuOTEwMiwzMjQuNTA0NCkiIGlkPSJnNzkzIj48cGF0aCBpZD0icGF0aDc5NSIgc3R5bGU9ImZpbGw6bm9uZTtzdHJva2U6IzAwMDAwMDtzdHJva2Utd2lkdGg6MTU7c3Ryb2tlLWxpbmVjYXA6cm91bmQ7c3Ryb2tlLWxpbmVqb2luOnJvdW5kO3N0cm9rZS1taXRlcmxpbWl0OjEwO3N0cm9rZS1kYXNoYXJyYXk6bm9uZTtzdHJva2Utb3BhY2l0eToxIiBkPSJtIDAsMCA3LjgxNiw3LjggMjAuNDU1LDIwLjQwOSBjIDEwLjU1NiwxMC41MzIgMTAuNTU2LDI3Ljc4MiAwLDM4LjMxNCAtMTAuNTU1LDEwLjUzMyAtMjcuODQzLDEwLjUzMyAtMzguMzk5LDAgTCAtMzguMzk5LDM4LjMxNCIvPjwvZz48ZyB0cmFuc2Zvcm09InRyYW5zbGF0ZSg0MDkuNDI2OCwyNjguOTEyMSkiIGlkPSJnNzk3Ij48cGF0aCBpZD0icGF0aDc5OSIgc3R5bGU9ImZpbGw6bm9uZTtzdHJva2U6IzAwMDAwMDtzdHJva2Utd2lkdGg6MTU7c3Ryb2tlLWxpbmVjYXA6cm91bmQ7c3Ryb2tlLWxpbmVqb2luOnJvdW5kO3N0cm9rZS1taXRlcmxpbWl0OjEwO3N0cm9rZS1kYXNoYXJyYXk6bm9uZTtzdHJva2Utb3BhY2l0eToxIiBkPSJtIDAsMCBjIC05LjI0Myw5LjIyMyAtMjQuMzkyLDkuMjIzIC0zMy42MzUsMCBsIC0zNS45MTgsLTM1Ljg2NiBjIC05LjI0MywtOS4yMjMgLTkuMjQzLC0yNC4zMSAwLC0zMy41MzIgOS4yNDMsLTkuMjIzIDI0LjM2NCwtOS4yMjMgMzMuNjA4LDAgTCAwLC0zMy41MzIgQyA5LjI0NCwtMjQuMzEgOS4yNDQsLTkuMjIzIDAsMCBaIi8+PC9nPjxnIHRyYW5zZm9ybT0idHJhbnNsYXRlKDM0MC45ODczLDMxMC44MTMpIiBpZD0iZzgwMSI+PHBhdGggaWQ9InBhdGg4MDMiIHN0eWxlPSJmaWxsOm5vbmU7c3Ryb2tlOiMwMDAwMDA7c3Ryb2tlLXdpZHRoOjE1O3N0cm9rZS1saW5lY2FwOnJvdW5kO3N0cm9rZS1saW5lam9pbjpyb3VuZDtzdHJva2UtbWl0ZXJsaW1pdDoxMDtzdHJva2UtZGFzaGFycmF5Om5vbmU7c3Ryb2tlLW9wYWNpdHk6MSIgZD0ibSAwLDAgYyAtMy41OTUsLTMuNTg3IDMuNzk0LDMuNzg2IDMuOTA4LDMuODk5IDEwLjI0MSwxMC41NjEgMTAuMTI4LDI3LjU1NSAtMC4zMTQsMzguMDAyIC0xMC41NTUsMTAuNTMyIC0yNy44NDQsMTAuNTMyIC0zOC40LDAgbCAtMTQuMTUsLTE0LjExOSIvPjwvZz48ZyB0cmFuc2Zvcm09InRyYW5zbGF0ZSgzMzYuNzkzLDg2LjM5MzEpIiBpZD0iZzgwNSI+PHBhdGggaWQ9InBhdGg4MDciIHN0eWxlPSJmaWxsOm5vbmU7c3Ryb2tlOiMwMDAwMDA7c3Ryb2tlLXdpZHRoOjE1O3N0cm9rZS1saW5lY2FwOnJvdW5kO3N0cm9rZS1saW5lam9pbjpyb3VuZDtzdHJva2UtbWl0ZXJsaW1pdDoxMDtzdHJva2UtZGFzaGFycmF5Om5vbmU7c3Ryb2tlLW9wYWNpdHk6MSIgZD0ibSAwLDAgYyAtMC41NDIsMTIuODk1IDEuOTExLDI1LjkzMiA3LjQxOCwzNy44NTggbCAtMTI0LjEsMTIzLjg1MyBNIDI2LjA0NywxMDcgNTEuMzgsODEuNzI0IGMgMzAuMjk4LDEzLjg5MSA2Ny41MjcsOC40MjUgOTIuNDA0LC0xNi4zOTYgMTkuODU3LC0xOS44MTIgMjcuMzYsLTQ3LjQ4IDIyLjQ4MiwtNzMuMjEzIC01LjEwOCwtMjcuMDEzIC0xOS4zNzEsLTYuNTc1IC0yMi4yODIsLTMuNjcyIEwgMTA5LjE1LDIzLjE5OSBDIDk2Ljk2OSwzNS4zNTQgNzcuMzcsMzUuODY2IDY0LjU2MSwyNC43MDggNTMuMzc3LDExLjkyNyA1My44OTEsLTcuNjI5IDY2LjA3MiwtMTkuNzg0IGwgMzQuODM0LC0zNC43NTYgYyAyLjkxLC0yLjkwMyAyMy4zOTQsLTE3LjEzNiAtMy42OCwtMjIuMjMxIC0yNS43OSwtNC44NjggLTUzLjUyLDIuNjE5IC03My4zNzUsMjIuNDMxIC02LjE5Miw2LjIwNSAtMTEuMTg0LDEzLjE1MSAtMTQuOTc4LDIwLjU1MSBtIC0xNDYuNzgsMzA0LjM1MSAtMzEuMDk3LDMxLjA1NiBjIDEzLjkyMiwzMC4yMyA4LjQ0NCw2Ny4zNzcgLTE2LjQzMyw5Mi4xOTggLTE5Ljg1NSwxOS44MTIgLTQ3LjU4NCwyNy4yOTkgLTczLjM3NSwyMi40MzEgLTI3LjA3NCwtNS4wOTUgLTYuNTksLTE5LjMyOCAtMy42OCwtMjIuMjMxIGwgMzQuODM0LC0zNC43NTYgYyAxMi4xODEsLTEyLjE1NSAxMi42OTUsLTMxLjcxMSAxLjUxMiwtNDQuNDkxIC0xMi44MSwtMTEuMTU5IC0zMi40MDksLTEwLjY0NiAtNDQuNTksMS41MDggbCAtMzQuODM0LDM0Ljc1NiBjIC0yLjkxLDIuOTA0IC0xNy4xNzQsMjMuMzQyIC0yMi4yODIsLTMuNjcyIC00Ljg3NywtMjUuNzMzIDIuNjI1LC01My40MDEgMjIuNDgyLC03My4yMTMgMjQuODc3LC0yNC44MjEgNjIuMTA2LC0zMC4yODcgOTIuNDA0LC0xNi4zOTYgbCAzMi45MjIsLTMyLjg0OCIvPjwvZz48ZyB0cmFuc2Zvcm09InRyYW5zbGF0ZSgxNDQuMjI0NiwxMTguMTAzKSIgaWQ9Imc4MDkiPjxwYXRoIGlkPSJwYXRoODExIiBzdHlsZT0iZmlsbDpub25lO3N0cm9rZTojMDAwMDAwO3N0cm9rZS13aWR0aDoxNTtzdHJva2UtbGluZWNhcDpyb3VuZDtzdHJva2UtbGluZWpvaW46cm91bmQ7c3Ryb2tlLW1pdGVybGltaXQ6MTA7c3Ryb2tlLWRhc2hhcnJheTpub25lO3N0cm9rZS1vcGFjaXR5OjEiIGQ9Im0gMCwwIDQzLjAyMSwtNDIuOTI1IGMgNi42NDgsLTYuNjMzIDYuNjQ4LC0xNy40NzggMCwtMjQuMTExIEwgNC43NjUsLTEwNS4yMDggYyAtNi42NDgsLTYuNjMyIC0xNy41MTcsLTYuNjMyIC0yNC4xNjQsMCBMIC0xMjUuMDQxLDAuMTk5IGMgLTYuNjQ3LDYuNjMzIC02LjY0NywxNy40NzggMCwyNC4xMTEgbCAzOC4yNTcsMzguMTcxIGMgNi42NDcsNi42MzMgMTcuNTE2LDYuNjMzIDI0LjE2NCwwIGwgMzcuODI5LC0zNy43NDUiLz48L2c+PGcgdHJhbnNmb3JtPSJ0cmFuc2xhdGUoMTg3LjI0NjEsNzUuMTc3NykiIGlkPSJnODEzIj48cGF0aCBpZD0icGF0aDgxNSIgc3R5bGU9ImZpbGw6bm9uZTtzdHJva2U6IzAwMDAwMDtzdHJva2Utd2lkdGg6MTU7c3Ryb2tlLWxpbmVjYXA6cm91bmQ7c3Ryb2tlLWxpbmVqb2luOnJvdW5kO3N0cm9rZS1taXRlcmxpbWl0OjEwO3N0cm9rZS1kYXNoYXJyYXk6bm9uZTtzdHJva2Utb3BhY2l0eToxIiBkPSJtIDAsMCA1MC45NTIsNTAuODM5IGMgMTkuMDg2LDE5LjA0MyAyMi43OTQsMTQuOTQ0IDQ1LjMzMiwxMS43MjcgMTAuMDk5LC0xLjQ1MSAyNC41MDYsMy45MjkgMzYuMDg5LDExLjA0NSIvPjwvZz48ZyB0cmFuc2Zvcm09InRyYW5zbGF0ZSgzMDQuMzI3MSwyNzIuNDEzMSkiIGlkPSJnODE3Ij48cGF0aCBpZD0icGF0aDgxOSIgc3R5bGU9ImZpbGw6I2ZlZDFhMztmaWxsLW9wYWNpdHk6MTtmaWxsLXJ1bGU6ZXZlbm9kZDtzdHJva2U6bm9uZSIgZD0ibSAwLDAgYyAtNS4yNzcsLTEwLjE5IC0zLjY1MSwtMjMuMDg1IDQuOTA3LC0zMS41OTYgMTAuNTU2LC0xMC41NjEgMjcuODQ0LC0xMC41NjEgMzguNCwwIGwgMTkuNTcxLDYuNjMyIDguNTg3LDIxLjQ2MyBjIDEwLjU4NCwxMC41MzIgMTAuNTg0LDI3Ljc4MiAwLDM4LjMxNCAtMTAuNTU2LDEwLjUzMiAtMjcuODQ0LDEwLjUzMiAtMzguNCwwIEwgNC45MDcsNi43MTggQyAzLjMxLDUuMTI0IDEuOTY5LDMuNDE2IDAuODU2LDEuNTY2IDAuNjU2LDEuMDI1IDAuMzcxLDAuNTEzIDAsMCIvPjwvZz48ZyB0cmFuc2Zvcm09InRyYW5zbGF0ZSgzNTkuMTU5MiwzMTUuMDI1OSkiIGlkPSJnODIxIj48cGF0aCBpZD0icGF0aDgyMyIgc3R5bGU9ImZpbGw6I2ZmYmM4NTtmaWxsLW9wYWNpdHk6MTtmaWxsLXJ1bGU6ZXZlbm9kZDtzdHJva2U6bm9uZSIgZD0ibSAwLDAgYyA2LjcwNSwtMTAuNDc2IDUuNDc4LC0yNC42MjMgLTMuNjgsLTMzLjc2IGwgLTI4LjE1OCwtMjguMTI0IGMgLTUuOTMzLC01Ljg5MiAtMTMuOTc4LC04LjUxMSAtMjEuNzY2LC03Ljc3MSAxLjAyNiwtMS42MjIgMi4yNTIsLTMuMTU5IDMuNjc5LC00LjU1NCAxMC41NTYsLTEwLjU2MSAyNy44NDQsLTEwLjU2MSAzOC40LDAgbCAyOC4xNTgsMjguMDk1IGMgMTAuNTg0LDEwLjUzMiAxMC41ODQsMjcuNzgyIDAsMzguMzE0IEMgMTIuMDExLC0zLjE2IDYuMTA1LC0wLjU2OSAwLDAiLz48L2c+PGcgdHJhbnNmb3JtPSJ0cmFuc2xhdGUoMzc1Ljc5MiwzMDcuMjI2MSkiIGlkPSJnODI1Ij48cGF0aCBpZD0icGF0aDgyNyIgc3R5bGU9ImZpbGw6bm9uZTtzdHJva2U6IzAwMDAwMDtzdHJva2Utd2lkdGg6MTU7c3Ryb2tlLWxpbmVjYXA6cm91bmQ7c3Ryb2tlLWxpbmVqb2luOnJvdW5kO3N0cm9rZS1taXRlcmxpbWl0OjEwO3N0cm9rZS1kYXNoYXJyYXk6bm9uZTtzdHJva2Utb3BhY2l0eToxIiBkPSJtIDAsMCBjIC0xMC41NTYsMTAuNTMyIC0yNy44NDQsMTAuNTMyIC0zOC4zOTksMCBsIC0yOC4xNTksLTI4LjA5NSBjIC0xMC41ODQsLTEwLjU2MSAtMTAuNTg0LC0yNy43ODIgMCwtMzguMzE0IDEwLjU1NiwtMTAuNTYxIDI3Ljg0NCwtMTAuNTYxIDM4LjQsMCBMIDAsLTM4LjMxNCBDIDEwLjU4NCwtMjcuNzgyIDEwLjU4NCwtMTAuNTMyIDAsMCBaIi8+PC9nPjxnIHRyYW5zZm9ybT0idHJhbnNsYXRlKDMxMi43MTQ4LDI4Mi41NzUyKSIgaWQ9Imc4MjkiPjxwYXRoIGlkPSJwYXRoODMxIiBzdHlsZT0iZmlsbDpub25lO3N0cm9rZTojMDAwMDAwO3N0cm9rZS13aWR0aDoxNTtzdHJva2UtbGluZWNhcDpyb3VuZDtzdHJva2UtbGluZWpvaW46cm91bmQ7c3Ryb2tlLW1pdGVybGltaXQ6MTA7c3Ryb2tlLWRhc2hhcnJheTpub25lO3N0cm9rZS1vcGFjaXR5OjEiIGQ9Im0gMCwwIGMgMC43NzEsNy40ODYgLTExLjYxMSwxOC43ODcgLTI0LjMzNSwzMS40ODMgbCAtNTUuOTQ0LDU1LjgyIGMgLTUuNjQ5LDUuNjM2IC0xNC45NSw1LjYzNiAtMjAuNjI2LC0wLjAyOSBMIC0xNDcuMDk0LDQxLjE4OSBDIC0xNTcuNTkyLDMwLjcxNCAtMTYyLjMsMTUuMzE0IC0xNjEuNDcyLDEuNDggYyAxLjI4NCwtMjEuMTc4IC04LjU4OCwtNDIuNTg0IC0zNy44NTgsLTcxLjc2MSBsIC0zMS43OCwtMzEuNzEgTSAtOTIuNzQ2LDIzLjExNCBjIDAuNDg0LC0wLjUxMiAxOS4zOTksLTE5LjM1NyAxOS44ODQsLTE5Ljg0MSAxNC45NzcsLTE0LjQ2IDQ1LjE4OSwtMjYuOTI3IDY0LjY3NCwtMTMuMDM3Ii8+PC9nPjxnIHRyYW5zZm9ybT0idHJhbnNsYXRlKDIxOS45Njg3LDMwNS42ODkpIiBpZD0iZzgzMyI+PHBhdGggaWQ9InBhdGg4MzUiIHN0eWxlPSJmaWxsOm5vbmU7c3Ryb2tlOiMwMDAwMDA7c3Ryb2tlLXdpZHRoOjE1O3N0cm9rZS1saW5lY2FwOnJvdW5kO3N0cm9rZS1saW5lam9pbjpyb3VuZDtzdHJva2UtbWl0ZXJsaW1pdDoxMDtzdHJva2UtZGFzaGFycmF5Om5vbmU7c3Ryb2tlLW9wYWNpdHk6MSIgZD0iTSAwLDAgQyAxNi42ODgsLTE2LjY1MiAxMi4wNjcsLTQ4LjI0OSAtMTAuMjk5LC03MC41NjUiLz48L2c+PC9nPjwvZz48L2c+PC9zdmc+;fontFamily=Poppins;fontSource=https%3A%2F%2Ffonts.googleapis.com%2Fcss%3Ffamily%3DPoppins;" vertex="1" parent="1">
          <mxGeometry x="840" y="330.75" width="50.08" height="50" as="geometry" />
        </mxCell>
        <mxCell id="boy779TEuCWVPhwvG-UE-16" value="Cash Flow" style="shape=image;verticalLabelPosition=bottom;labelBackgroundColor=none;verticalAlign=top;aspect=fixed;imageAspect=0;editableCssRules=.*;image=data:image/svg+xml,PHN2ZyB4bWxucz0iaHR0cDovL3d3dy53My5vcmcvMjAwMC9zdmciIHZpZXdCb3g9IjkuOTk5NjMyODM1Mzg4MTg0IDEwLjU2MTU0MzQ2NDY2MDY0NSA2NjIuNjY3Nzg1NjQ0NTMxMiA2NjEuNTQzODIzMjQyMTg3NSIgaGVpZ2h0PSI2NjEuNTQzODIzMjQyMTg3NSIgd2lkdGg9IjY2Mi42Njc3ODU2NDQ1MzEyIiB4bWw6c3BhY2U9InByZXNlcnZlIiBpZD0ic3ZnNzE3IiB2ZXJzaW9uPSIxLjEiPjxkZWZzIGlkPSJkZWZzNzIxIj48Y2xpcFBhdGggaWQ9ImNsaXBQYXRoNzMxIiBjbGlwUGF0aFVuaXRzPSJ1c2VyU3BhY2VPblVzZSI+PHBhdGggaWQ9InBhdGg3MjkiIGQ9Ik0gMCw1MTIgSCA1MTIgViAwIEggMCBaIi8+PC9jbGlwUGF0aD48L2RlZnM+PGcgdHJhbnNmb3JtPSJtYXRyaXgoMS4zMzMzMzMzLDAsMCwtMS4zMzMzMzMzLDAsNjgyLjY2NjY3KSIgaWQ9Imc3MjMiPjxnIGlkPSJnNzI1Ij48ZyBjbGlwLXBhdGg9InVybCgjY2xpcFBhdGg3MzEpIiBpZD0iZzcyNyI+PGcgdHJhbnNmb3JtPSJ0cmFuc2xhdGUoOC45NDE0LDQzMy43NTQ0KSIgaWQ9Imc3MzMiPjxwYXRoIGlkPSJwYXRoNzM1IiBzdHlsZT0iZmlsbDojZGVlY2YwO2ZpbGwtb3BhY2l0eToxO2ZpbGwtcnVsZTpldmVub2RkO3N0cm9rZTpub25lIiBkPSJtIDAsMCBjIC00Ljg3OCwtMjUuNzMzIDIuNjI1LC01My40MDEgMjIuNDgxLC03My4yMTMgMjQuODc3LC0yNC44MjIgNjIuMTA3LC0zMC4yODcgOTIuNDA1LC0xNi4zOTYgbCAzMi45MjIsLTMyLjg0OSBoIDQzLjg0OCBsIC0xLjcxMiw0NS42NTkgLTMxLjA5NiwzMS4wNTUgYyAxMy45MjIsMzAuMjMgOC40NDQsNjcuMzc3IC0xNi40MzMsOTIuMTk5IEMgMTIyLjU2LDY2LjI2NyA5NC44Myw3My43NTMgNjkuMDQsNjguODg2IDQxLjk2Niw2My43OTEgNjIuNDQ5LDQ5LjU1OCA2NS4zNTksNDYuNjU0IGwgMzQuODM0LC0zNC43NTYgYyAxMi4xODIsLTEyLjE1NCAxMi42OTYsLTMxLjcxIDEuNTEyLC00NC40OTEgLTEyLjgwOSwtMTEuMTU4IC0zMi40MDgsLTEwLjY0NiAtNDQuNTksMS41MDkgTCAyMi4yODEsMy42NzIgQyAxOS4zNzEsNi41NzUgNS4xMDcsMjcuMDEzIDAsMCIvPjwvZz48ZyB0cmFuc2Zvcm09InRyYW5zbGF0ZSgyMjAuMTExMywyNDguMTA0KSIgaWQ9Imc3MzciPjxwYXRoIGlkPSJwYXRoNzM5IiBzdHlsZT0iZmlsbDojZGVlY2YwO2ZpbGwtb3BhY2l0eToxO2ZpbGwtcnVsZTpldmVub2RkO3N0cm9rZTpub25lIiBkPSJtIDAsMCAxOC4xMTUsLTUzLjQwMSA4MS4zOTMsLTQ1LjkxNCAyNC41OTIsLTI0LjUzOCBjIC0xMy45MjIsLTMwLjIzIC04LjQ0NiwtNjcuMzc2IDE2LjQzMiwtOTIuMTk4IDE5Ljg1NiwtMTkuODEyIDQ3LjU4NSwtMjcuMjk5IDczLjM3NSwtMjIuNDMxIDI3LjA3NCw1LjA5NSA2LjU5MSwxOS4zMjggMy42ODEsMjIuMjMyIGwgLTM0LjgzNCwzNC43NTUgYyAtMTIuMTgyLDEyLjE1NSAtMTIuNjk1LDMxLjcxMSAtMS41MTIsNDQuNDkyIDEyLjgxLDExLjE1OCAzMi40MDgsMTAuNjQ2IDQ0LjU5LC0xLjUwOSBsIDM0LjgzNCwtMzQuNzU2IGMgMi45MSwtMi45MDMgMTcuMTc0LC0yMy4zNDEgMjIuMjgxLDMuNjcyIDQuODc4LDI1LjczMyAtMi42MjUsNTMuNDAxIC0yMi40ODEsNzMuMjEzIC0yNC44NzcsMjQuODIxIC02Mi4xMDcsMzAuMjg3IC05Mi40MDQsMTYuMzk2IGwgLTI1LjMzMywyNS4yNzcgYyAtNy45NiwtMi4xMDcgLTE2Ljc3NSwtMC4wNTcgLTIyLjk2Niw2LjEyIC05LjI0Myw5LjIyMiAtOS4yNDMsMjQuMzA5IDAsMzMuNTMyIGwgMTQuOTIxLDE0LjkxNSBjIC0xMC41NTYsLTEwLjUzMSAtMjcuODQ0LC0xMC41MzEgLTM4LjQsMCBDIDg3Ljc1NCw4LjM2OSA4Ni4wOTksMjEuMjYzIDkxLjM3NywzMS40ODIgODEuNzM0LDE4Ljk1OCAzNS4zMTgsNjQuMzAzIDMzLjMyMSw2Ni4yOTUgMTMuMTgsODIuNDM1IC00MS43NjcsNDUuNDMxIDAsMCIvPjwvZz48ZyB0cmFuc2Zvcm09InRyYW5zbGF0ZSgzMzkuODc0LDIzMy4wNDU5KSIgaWQ9Imc3NDEiPjxwYXRoIGlkPSJwYXRoNzQzIiBzdHlsZT0iZmlsbDojZmVkMWEzO2ZpbGwtb3BhY2l0eToxO2ZpbGwtcnVsZTpldmVub2RkO3N0cm9rZTpub25lIiBkPSJtIDAsMCBjIC05LjI0MywtOS4yMjMgLTkuMjQzLC0yNC4zMSAwLC0zMy41MzIgNi4xOTEsLTYuMTc3IDE1LjAwNiwtOC4yMjcgMjIuOTY2LC02LjEyIDMuOTA4LDEuMDI1IDcuNTg5LDMuMDc0IDEwLjY0MSw2LjEyIEwgNjkuNTUzLDIuMzM0IGMgOS4yNDQsOS4yMjMgOS4yNDQsMjQuMzEgMCwzMy41MzIgLTkuMjQzLDkuMjIzIC0yNC4zNjQsOS4yMjMgLTMzLjYzNSwwIEwgMzUuMzc2LDM1LjMyNSAxNC45MjEsMTQuOTE2IFoiLz48L2c+PGcgdHJhbnNmb3JtPSJ0cmFuc2xhdGUoMjg1LjcyNjYsMzMyLjMwNDIpIiBpZD0iZzc0NSI+PHBhdGggaWQ9InBhdGg3NDciIHN0eWxlPSJmaWxsOiNmZWQxYTM7ZmlsbC1vcGFjaXR5OjE7ZmlsbC1ydWxlOmV2ZW5vZGQ7c3Ryb2tlOm5vbmUiIGQ9Im0gMCwwIC03LjgxNiwtNy44IC00Ljg3OSwtNy4wODcgQyAtMjMuNTkzLC0zMC42NTcgMi4zNCwtNjEuODg0IDI2LjY0NiwtNTEuMTUyIGwgMjEuODUzLDUuNTc5IDMuMTY3LDIwLjQ5NSA3LjE4OCw3LjE3MyBDIDY5LjQxLC03LjM3MyA2OS40MSw5Ljg3NyA1OC44NTQsMjAuNDEgNDguMywzMC45NDEgMzEuMDExLDMwLjk0MSAyMC40NTUsMjAuNDEgTCA2LjMwNSw2LjI5MSBaIi8+PC9nPjxnIHRyYW5zZm9ybT0idHJhbnNsYXRlKDI2Ny43ODIyLDM5MS4wMjc4KSIgaWQ9Imc3NDkiPjxwYXRoIGlkPSJwYXRoNzUxIiBzdHlsZT0iZmlsbDojZmVkMWEzO2ZpbGwtb3BhY2l0eToxO2ZpbGwtcnVsZTpldmVub2RkO3N0cm9rZTpub25lIiBkPSJtIDAsMCAtMjguMjcxLC0yOC4yMDkgYyAtMTkuNTQyLC0xOS40OTkgMTAuNzI2LC01MS41MjIgMzguMzk5LC0zOC4zMTQgbCAyMi43MDksNi43NzQgNS41NjIsMjEuNDM1IEMgNDguOTU1LC0yNy43ODIgNDguOTU1LC0xMC41MzIgMzguMzk5LDAgMjcuODQ0LDEwLjUzMiAxMC41NTYsMTAuNTMyIDAsMCIvPjwvZz48ZyB0cmFuc2Zvcm09InRyYW5zbGF0ZSgxNTEuMjQzMiwyODQuMDU1NykiIGlkPSJnNzUzIj48cGF0aCBpZD0icGF0aDc1NSIgc3R5bGU9ImZpbGw6I2ZmZTVjMTtmaWxsLW9wYWNpdHk6MTtmaWxsLXJ1bGU6ZXZlbm9kZDtzdHJva2U6bm9uZSIgZD0ibSAwLDAgYyAxLjI4MywtMjEuMTc4IC04LjU4OCwtNDIuNTg0IC0zNy44NTgsLTcxLjc2MSBsIC0zMS43ODEsLTMxLjcxIDE3LjU3NCwtNjkuODI1IDg4LjA2OCwtMzUuNTgyIDUwLjk1Miw1MC44MzkgYyAxOS4wODYsMTkuMDQzIDIyLjc5NCwxNC45NDQgNDUuMzMyLDExLjcyNyAxMC4wOTksLTEuNDUxIDI0LjUwNiwzLjkyOSAzNi4wODksMTEuMDQ1IGwgLTk5LjUwOCw5OS4zMTUgYyAxMi4xODIsMTkuMjE0IDEzLjQwOCw0MS4zNiAxLjk5Nyw1NS4yMjMgLTAuMTQzLDAuMTcgLTAuMDI5LDAuMjU2IDAuMDg1LDAuMTQyIDUuMTA3LC01LjA5NSAxNy4yNiwtMTcuMjIyIDE3LjY1OSwtMTcuNjIgMTYuOTE4LC0xNi4zMTEgNTMuMjY0LC0zMC4xNDUgNzEuNjM2LC02LjI2MiAwLjI4NSwwLjUxMiAwLjU3LDEuMDUzIDAuODg1LDEuNTY1IDIuNzY2LDcuNDMgLTEwLjQ0MywxOS4zNTcgLTIzLjk5MywzMi45MDYgbCAtMTAuNDcsMTAuNDQ3IC0zOC4zOTksMzguMzE0IC03LjA3Niw3LjA2IEMgNzUuNTQ0LDkxLjQ1OCA2Ni4yNDMsOTEuNDU4IDYwLjU2Niw4NS43OTQgTCA0Ny42NDMsNzIuODk5IDE0LjM3OCwzOS43MDkgQyAxMC43MjcsMzYuMDY1IDcuNzYsMzEuODI0IDUuNTA2LDI3LjI0MSAxLjI4MywxOC43MDIgLTAuNTQyLDkuMDIzIDAsMCIvPjwvZz48ZyB0cmFuc2Zvcm09InRyYW5zbGF0ZSgxMzEuOTAwNCw0NjQuMDEyNykiIGlkPSJnNzU3Ij48cGF0aCBpZD0icGF0aDc1OSIgc3R5bGU9ImZpbGw6I2EwY2NkMjtmaWxsLW9wYWNpdHk6MTtmaWxsLXJ1bGU6ZXZlbm9kZDtzdHJva2U6bm9uZSIgZD0ibSAwLDAgYyAyMy42NSwtMjMuNTk4IDI2LjU2MSwtNTUuMTY2IDE1LjEyLC04NC41NDIgLTIuMDU0LC01LjIwOSAwLjk0MiwtNy4zMTUgNC45NjQsLTExLjMyOSBsIDI3LjQ0NCwtMjcuMzU1IDAuMTE1LC0zLjEzMSAxOS4zNDIsMTkuMjk5IC0zMS4wOTYsMzEuMDU2IEMgNDkuODExLC00NS43NzIgNDQuMzMzLC04LjYyNSAxOS40NTYsMTYuMTk3IC0wLjM5OSwzNi4wMDkgLTI4LjEyOSw0My40OTUgLTUzLjkxOSwzOC42MjcgLTcwLjYwOCwzNS40OTYgLTY5LjIzOSwyOC44NjQgLTY1LjAxNywyMy41NjkgLTQxLjczNywyNS41NjIgLTE3Ljc0NSwxNy42NzcgMCwwIi8+PC9nPjxnIHRyYW5zZm9ybT0idHJhbnNsYXRlKDI2NC4wNzMyLDMzOC4zMTAxKSIgaWQ9Imc3NjEiPjxwYXRoIGlkPSJwYXRoNzYzIiBzdHlsZT0iZmlsbDojZmZiYzg1O2ZpbGwtb3BhY2l0eToxO2ZpbGwtcnVsZTpldmVub2RkO3N0cm9rZTpub25lIiBkPSJtIDAsMCAxMy44MzcsLTEzLjgwNiA3LjgxNiw3LjggNi4zMDUsNi4yOTEgMTQuMTUsMTQuMTE5IGMgMTAuNTU2LDEwLjUzMiAxMC41NTYsMjcuNzgyIDAsMzguMzE0IC00LjMzNiw0LjI5OCAtOS43NTYsNi44MzEgLTE1LjQwNSw3LjYyOSA4LjMzLC0xMC42MTggNy41ODksLTI2LjEwMyAtMi4xNjgsLTM1Ljg2NyBMIDEwLjM4NSwxMC4zOSBaIi8+PC9nPjxnIHRyYW5zZm9ybT0idHJhbnNsYXRlKDMyNi4yMDksMzI2LjIxMjQpIiBpZD0iZzc2NSI+PHBhdGggaWQ9InBhdGg3NjciIHN0eWxlPSJmaWxsOiNmZmJjODU7ZmlsbC1vcGFjaXR5OjE7ZmlsbC1ydWxlOmV2ZW5vZGQ7c3Ryb2tlOm5vbmUiIGQ9Im0gMCwwIC0yNS4wNDgsLTI0Ljk5MiBjIDcuNzYsLTguMTEzIDEzLjA2NiwtMTUuMTE1IDExLjIxMiwtMjAuMDY5IDEuMTEyLDEuODIyIDIuNDUzLDMuNTU5IDQuMDIzLDUuMTI0IGwgMjguMTg1LDI4LjEyNCBjIDEwLjU1NiwxMC41MzIgMTAuNTU2LDI3Ljc4MiAwLDM4LjMxNCBDIDE0LjE3OSwzMC42NTcgOC45MywzMy4xOSAzLjQ4LDM0LjA0NCAxMC4zODUsMjMuNTY5IDkuMjQzLDkuMjIzIDAsMCIvPjwvZz48ZyB0cmFuc2Zvcm09InRyYW5zbGF0ZSgzMzQuODUzNSwyMDYuODg2MikiIGlkPSJnNzY5Ij48cGF0aCBpZD0icGF0aDc3MSIgc3R5bGU9ImZpbGw6I2ZmYmM4NTtmaWxsLW9wYWNpdHk6MTtmaWxsLXJ1bGU6ZXZlbm9kZDtzdHJva2U6bm9uZSIgZD0ibSAwLDAgYyAxLjE0MSwtMi42NzYgMi44MjQsLTUuMTgxIDUuMDIxLC03LjM3MyA2LjE5MSwtNi4xNzYgMTUuMDA1LC04LjIyNiAyMi45NjUsLTYuMTIgMy45MDksMS4wMjUgNy41ODksMy4wNzUgMTAuNjQyLDYuMTIgbCAzNS45NDUsMzUuODY3IGMgOS4yNDQsOS4yMjIgOS4yNDQsMjQuMzA5IDAsMzMuNTMyIC0zLjMzOCwzLjMzIC03LjQxNyw1LjQ2NSAtMTEuNzI0LDYuMzc2IDMuNzA4LC04LjY1MyAyLjA1MywtMTkuMTI5IC01LjAyMiwtMjYuMTYgTCAyMS44ODEsNi4zNzYgQyAxOC44NTcsMy4zMzEgMTUuMTQ4LDEuMjgxIDExLjI0LDAuMjU2IDcuNTYsLTAuNzExIDMuNzA4LC0wLjc5NyAwLDAiLz48L2c+PGcgdHJhbnNmb3JtPSJ0cmFuc2xhdGUoMzkwLjU5ODYsMTQ0LjQwNTMpIiBpZD0iZzc3MyI+PHBhdGggaWQ9InBhdGg3NzUiIHN0eWxlPSJmaWxsOiNhMGNjZDI7ZmlsbC1vcGFjaXR5OjE7ZmlsbC1ydWxlOmV2ZW5vZGQ7c3Ryb2tlOm5vbmUiIGQ9Im0gMCwwIGMgNTMuNjYyLDE0Ljc3MyA5MC42NjQsLTEzLjg5MSAxMTIuNDYsLTY1Ljg5NyA0Ljg3OCwyNS43MzIgLTIuNjI1LDUzLjQgLTIyLjQ4MSw3My4yMTIgQyA2NS4xMDIsMzIuMTM3IDI3Ljg3MiwzNy42MDMgLTIuNDI2LDIzLjcxMSBsIC0yNS4zMzMsMjUuMjc3IGMgLTcuOTYsLTIuMTA2IC0xNi43NzQsLTAuMDU2IC0yMi45NjYsNi4xMiAtMi4xOTYsMi4xOTIgLTMuODc5LDQuNjk3IC01LjAyLDcuMzczIC0zLjcwOSw4LjY1MyAtMi4wNTUsMTkuMTI4IDUuMDIsMjYuMTYgbCAxNC45MjEsMTQuOTE1IGMgLTEwLjU1NSwtMTAuNTMyIC0yNy44NDMsLTEwLjUzMiAtMzguMzk5LDAgLTEuNDI3LDEuNDIzIC0yLjY1MywyLjkzMiAtMy42ODEsNC41NTUgLTUuMjIsOC4xNjkgLTUuNjIsMTguNTU5IC0xLjIyNiwyNy4wNyAtMTguMzcyLC0yMy44ODIgLTg3LjgxMiwyMy4yODUgLTcxLjYzNiw2LjI2MiBMIC0yNS43MDUsMTAuMDc3IEMgLTEyLjIzOSwtNC4wNzEgLTE2Ljk3NSwtNC42NjggMCwwIi8+PC9nPjxnIHRyYW5zZm9ybT0idHJhbnNsYXRlKDIzOS44NTI1LDI4NS44NDg2KSIgaWQ9Imc3NzciPjxwYXRoIGlkPSJwYXRoNzc5IiBzdHlsZT0iZmlsbDojZmVkMWEzO2ZpbGwtb3BhY2l0eToxO2ZpbGwtcnVsZTpldmVub2RkO3N0cm9rZTpub25lIiBkPSJtIDAsMCBjIDE2LjkxOCwtMTYuMzExIDUzLjI2NCwtMzAuMTQ1IDcxLjYzNiwtNi4yNjIgMC4yODUsMC41MTIgMC41NywxLjA1MyAwLjg4NSwxLjU2NSBDIDc0LjM3NCwwLjI1NiA2OS4wNjgsNy4yNTkgNjEuMzA5LDE1LjM3MiA1NC40MzMsOS41MDcgNDUuOTYsNy4zNDQgMzcuMjAxLDcuNjU3IDM2LjgzMSw3LjY4NiAzNi40ODgsNy42ODYgMzYuMTE3LDcuNzE0IDIwLjU2OSw4LjY1NCA0LjI1MSwxNy4yNzkgLTUuNTM0LDI2LjcyOSBjIC0wLjExNCwwLjExNCAtMS41OTgsMS41OTQgLTMuNjgxLDMuNjcyIC0yLjUxLDIuNDc2IC0yLjg1MiwyLjg3NSAtNS45MDUsNS44OTIgLTEuODU1LDIuMzA2IC01LjQsMC40MTkgLTUuOTgzLC0wLjc0MSAtMi4wNTIsLTQuMDgyIC0xLjkzNCwtNS44MDUgLTEuMjUsLTEwLjEwNCAwLjU3MSwtMy43MjkgMy4zMjUsLTYuNDkgNC43OCwtNy44MjggQyAtMTEuODExLDExLjg5OCAtMC4zNDIsMC4zNDIgMCwwIi8+PC9nPjxnIHRyYW5zZm9ybT0idHJhbnNsYXRlKDE5LjE4MzYsMTE4LjMwMjIpIiBpZD0iZzc4MSI+PHBhdGggaWQ9InBhdGg3ODMiIHN0eWxlPSJmaWxsOiM2YmQ5ZTc7ZmlsbC1vcGFjaXR5OjE7ZmlsbC1ydWxlOmV2ZW5vZGQ7c3Ryb2tlOm5vbmUiIGQ9Im0gMCwwIDEwNS42NDIsLTEwNS40MDcgYyAyLjY1MywtMi42NDcgNS45OTEsLTQuMjQxIDkuNDQzLC00Ljc1MyBoIDUuMjc3IGMgMy40ODEsMC41MTIgNi43OSwyLjEwNiA5LjQ0NCw0Ljc1MyBsIDM4LjI1NiwzOC4xNzIgYyA2LjY0OCw2LjYzMiA2LjY0OCwxNy40NzggMCwyNC4xMSBMIDYyLjQyMSw2Mi4yODIgYyAtNi42NDgsNi42MzMgLTE3LjUxNyw2LjYzMyAtMjQuMTY0LDAgTCAwLDI0LjExIEMgLTYuNjQ3LDE3LjQ3OCAtNi42NDcsNi42MzIgMCwwIi8+PC9nPjxnIHRyYW5zZm9ybT0idHJhbnNsYXRlKDk0LjQ0MjQsNDMuMjEwOSkiIGlkPSJnNzg1Ij48cGF0aCBpZD0icGF0aDc4NyIgc3R5bGU9ImZpbGw6IzAwYzdkZDtmaWxsLW9wYWNpdHk6MTtmaWxsLXJ1bGU6ZXZlbm9kZDtzdHJva2U6bm9uZSIgZD0ibSAwLDAgMzAuMzgzLC0zMC4zMTUgYyAyLjY1MywtMi42NDcgNS45OTEsLTQuMjQyIDkuNDQzLC00Ljc1NCBoIDUuMjc4IGMgMy40OCwwLjUxMiA2Ljc5LDIuMTA3IDkuNDQzLDQuNzU0IEwgOTIuODA0LDcuODU2IGMgNi42NDcsNi42MzMgNi42NDcsMTcuNDc4IDAsMjQuMTExIEwgNjIuMzkyLDYyLjMxMSBjIDYuNjQ3LC02LjYzMyA2LjY0NywtMTcuNDc4IDAsLTI0LjExIEwgMjQuMTM1LDAuMDI5IEMgMjEuNDgxLC0yLjYxOSAxOC4xNzMsLTQuMjEzIDE0LjcyMSwtNC43NTMgSCA5LjQxNCBDIDUuOTYyLC00LjIxMyAyLjY1MywtMi42MTkgMCwwIi8+PC9nPjxnIHRyYW5zZm9ybT0idHJhbnNsYXRlKDIxNC43NDcxLDE0OS4zODYyKSIgaWQ9Imc3ODkiPjxwYXRoIGlkPSJwYXRoNzkxIiBzdHlsZT0iZmlsbDojZmVkMWEzO2ZpbGwtb3BhY2l0eToxO2ZpbGwtcnVsZTpldmVub2RkO3N0cm9rZTpub25lIiBkPSJtIDAsMCAtNTAuOTUyLC01MC44MzkgMjMuNDUxLC0yMy4zNjkgNTAuOTUyLDUwLjgzOCBjIDE5LjA4NiwxOS4wNDMgMjIuNzk0LDE0Ljk0NSA0NS4zMzIsMTEuNzI4IDEwLjA5OSwtMS40NTIgMjQuNTA2LDMuOTI4IDM2LjA4OSwxMS4wNDQgTCA4MS40NSwyMi44MDEgQyA3OC41MTIsMjEuMDA3IDc1LjQwMSwxOS4zIDcyLjIzNSwxNy44MTkgNjIuODQ5LDEzLjQwNyA1Mi44OTMsMTAuNjc1IDQ1LjMzMywxMS43NTYgMjIuODIzLDE0Ljk3MyAxOS4wODYsMTkuMDQzIDAsMCIvPjwvZz48ZyB0cmFuc2Zvcm09InRyYW5zbGF0ZSgyNzcuOTEwMiwzMjQuNTA0NCkiIGlkPSJnNzkzIj48cGF0aCBpZD0icGF0aDc5NSIgc3R5bGU9ImZpbGw6bm9uZTtzdHJva2U6IzAwMDAwMDtzdHJva2Utd2lkdGg6MTU7c3Ryb2tlLWxpbmVjYXA6cm91bmQ7c3Ryb2tlLWxpbmVqb2luOnJvdW5kO3N0cm9rZS1taXRlcmxpbWl0OjEwO3N0cm9rZS1kYXNoYXJyYXk6bm9uZTtzdHJva2Utb3BhY2l0eToxIiBkPSJtIDAsMCA3LjgxNiw3LjggMjAuNDU1LDIwLjQwOSBjIDEwLjU1NiwxMC41MzIgMTAuNTU2LDI3Ljc4MiAwLDM4LjMxNCAtMTAuNTU1LDEwLjUzMyAtMjcuODQzLDEwLjUzMyAtMzguMzk5LDAgTCAtMzguMzk5LDM4LjMxNCIvPjwvZz48ZyB0cmFuc2Zvcm09InRyYW5zbGF0ZSg0MDkuNDI2OCwyNjguOTEyMSkiIGlkPSJnNzk3Ij48cGF0aCBpZD0icGF0aDc5OSIgc3R5bGU9ImZpbGw6bm9uZTtzdHJva2U6IzAwMDAwMDtzdHJva2Utd2lkdGg6MTU7c3Ryb2tlLWxpbmVjYXA6cm91bmQ7c3Ryb2tlLWxpbmVqb2luOnJvdW5kO3N0cm9rZS1taXRlcmxpbWl0OjEwO3N0cm9rZS1kYXNoYXJyYXk6bm9uZTtzdHJva2Utb3BhY2l0eToxIiBkPSJtIDAsMCBjIC05LjI0Myw5LjIyMyAtMjQuMzkyLDkuMjIzIC0zMy42MzUsMCBsIC0zNS45MTgsLTM1Ljg2NiBjIC05LjI0MywtOS4yMjMgLTkuMjQzLC0yNC4zMSAwLC0zMy41MzIgOS4yNDMsLTkuMjIzIDI0LjM2NCwtOS4yMjMgMzMuNjA4LDAgTCAwLC0zMy41MzIgQyA5LjI0NCwtMjQuMzEgOS4yNDQsLTkuMjIzIDAsMCBaIi8+PC9nPjxnIHRyYW5zZm9ybT0idHJhbnNsYXRlKDM0MC45ODczLDMxMC44MTMpIiBpZD0iZzgwMSI+PHBhdGggaWQ9InBhdGg4MDMiIHN0eWxlPSJmaWxsOm5vbmU7c3Ryb2tlOiMwMDAwMDA7c3Ryb2tlLXdpZHRoOjE1O3N0cm9rZS1saW5lY2FwOnJvdW5kO3N0cm9rZS1saW5lam9pbjpyb3VuZDtzdHJva2UtbWl0ZXJsaW1pdDoxMDtzdHJva2UtZGFzaGFycmF5Om5vbmU7c3Ryb2tlLW9wYWNpdHk6MSIgZD0ibSAwLDAgYyAtMy41OTUsLTMuNTg3IDMuNzk0LDMuNzg2IDMuOTA4LDMuODk5IDEwLjI0MSwxMC41NjEgMTAuMTI4LDI3LjU1NSAtMC4zMTQsMzguMDAyIC0xMC41NTUsMTAuNTMyIC0yNy44NDQsMTAuNTMyIC0zOC40LDAgbCAtMTQuMTUsLTE0LjExOSIvPjwvZz48ZyB0cmFuc2Zvcm09InRyYW5zbGF0ZSgzMzYuNzkzLDg2LjM5MzEpIiBpZD0iZzgwNSI+PHBhdGggaWQ9InBhdGg4MDciIHN0eWxlPSJmaWxsOm5vbmU7c3Ryb2tlOiMwMDAwMDA7c3Ryb2tlLXdpZHRoOjE1O3N0cm9rZS1saW5lY2FwOnJvdW5kO3N0cm9rZS1saW5lam9pbjpyb3VuZDtzdHJva2UtbWl0ZXJsaW1pdDoxMDtzdHJva2UtZGFzaGFycmF5Om5vbmU7c3Ryb2tlLW9wYWNpdHk6MSIgZD0ibSAwLDAgYyAtMC41NDIsMTIuODk1IDEuOTExLDI1LjkzMiA3LjQxOCwzNy44NTggbCAtMTI0LjEsMTIzLjg1MyBNIDI2LjA0NywxMDcgNTEuMzgsODEuNzI0IGMgMzAuMjk4LDEzLjg5MSA2Ny41MjcsOC40MjUgOTIuNDA0LC0xNi4zOTYgMTkuODU3LC0xOS44MTIgMjcuMzYsLTQ3LjQ4IDIyLjQ4MiwtNzMuMjEzIC01LjEwOCwtMjcuMDEzIC0xOS4zNzEsLTYuNTc1IC0yMi4yODIsLTMuNjcyIEwgMTA5LjE1LDIzLjE5OSBDIDk2Ljk2OSwzNS4zNTQgNzcuMzcsMzUuODY2IDY0LjU2MSwyNC43MDggNTMuMzc3LDExLjkyNyA1My44OTEsLTcuNjI5IDY2LjA3MiwtMTkuNzg0IGwgMzQuODM0LC0zNC43NTYgYyAyLjkxLC0yLjkwMyAyMy4zOTQsLTE3LjEzNiAtMy42OCwtMjIuMjMxIC0yNS43OSwtNC44NjggLTUzLjUyLDIuNjE5IC03My4zNzUsMjIuNDMxIC02LjE5Miw2LjIwNSAtMTEuMTg0LDEzLjE1MSAtMTQuOTc4LDIwLjU1MSBtIC0xNDYuNzgsMzA0LjM1MSAtMzEuMDk3LDMxLjA1NiBjIDEzLjkyMiwzMC4yMyA4LjQ0NCw2Ny4zNzcgLTE2LjQzMyw5Mi4xOTggLTE5Ljg1NSwxOS44MTIgLTQ3LjU4NCwyNy4yOTkgLTczLjM3NSwyMi40MzEgLTI3LjA3NCwtNS4wOTUgLTYuNTksLTE5LjMyOCAtMy42OCwtMjIuMjMxIGwgMzQuODM0LC0zNC43NTYgYyAxMi4xODEsLTEyLjE1NSAxMi42OTUsLTMxLjcxMSAxLjUxMiwtNDQuNDkxIC0xMi44MSwtMTEuMTU5IC0zMi40MDksLTEwLjY0NiAtNDQuNTksMS41MDggbCAtMzQuODM0LDM0Ljc1NiBjIC0yLjkxLDIuOTA0IC0xNy4xNzQsMjMuMzQyIC0yMi4yODIsLTMuNjcyIC00Ljg3NywtMjUuNzMzIDIuNjI1LC01My40MDEgMjIuNDgyLC03My4yMTMgMjQuODc3LC0yNC44MjEgNjIuMTA2LC0zMC4yODcgOTIuNDA0LC0xNi4zOTYgbCAzMi45MjIsLTMyLjg0OCIvPjwvZz48ZyB0cmFuc2Zvcm09InRyYW5zbGF0ZSgxNDQuMjI0NiwxMTguMTAzKSIgaWQ9Imc4MDkiPjxwYXRoIGlkPSJwYXRoODExIiBzdHlsZT0iZmlsbDpub25lO3N0cm9rZTojMDAwMDAwO3N0cm9rZS13aWR0aDoxNTtzdHJva2UtbGluZWNhcDpyb3VuZDtzdHJva2UtbGluZWpvaW46cm91bmQ7c3Ryb2tlLW1pdGVybGltaXQ6MTA7c3Ryb2tlLWRhc2hhcnJheTpub25lO3N0cm9rZS1vcGFjaXR5OjEiIGQ9Im0gMCwwIDQzLjAyMSwtNDIuOTI1IGMgNi42NDgsLTYuNjMzIDYuNjQ4LC0xNy40NzggMCwtMjQuMTExIEwgNC43NjUsLTEwNS4yMDggYyAtNi42NDgsLTYuNjMyIC0xNy41MTcsLTYuNjMyIC0yNC4xNjQsMCBMIC0xMjUuMDQxLDAuMTk5IGMgLTYuNjQ3LDYuNjMzIC02LjY0NywxNy40NzggMCwyNC4xMTEgbCAzOC4yNTcsMzguMTcxIGMgNi42NDcsNi42MzMgMTcuNTE2LDYuNjMzIDI0LjE2NCwwIGwgMzcuODI5LC0zNy43NDUiLz48L2c+PGcgdHJhbnNmb3JtPSJ0cmFuc2xhdGUoMTg3LjI0NjEsNzUuMTc3NykiIGlkPSJnODEzIj48cGF0aCBpZD0icGF0aDgxNSIgc3R5bGU9ImZpbGw6bm9uZTtzdHJva2U6IzAwMDAwMDtzdHJva2Utd2lkdGg6MTU7c3Ryb2tlLWxpbmVjYXA6cm91bmQ7c3Ryb2tlLWxpbmVqb2luOnJvdW5kO3N0cm9rZS1taXRlcmxpbWl0OjEwO3N0cm9rZS1kYXNoYXJyYXk6bm9uZTtzdHJva2Utb3BhY2l0eToxIiBkPSJtIDAsMCA1MC45NTIsNTAuODM5IGMgMTkuMDg2LDE5LjA0MyAyMi43OTQsMTQuOTQ0IDQ1LjMzMiwxMS43MjcgMTAuMDk5LC0xLjQ1MSAyNC41MDYsMy45MjkgMzYuMDg5LDExLjA0NSIvPjwvZz48ZyB0cmFuc2Zvcm09InRyYW5zbGF0ZSgzMDQuMzI3MSwyNzIuNDEzMSkiIGlkPSJnODE3Ij48cGF0aCBpZD0icGF0aDgxOSIgc3R5bGU9ImZpbGw6I2ZlZDFhMztmaWxsLW9wYWNpdHk6MTtmaWxsLXJ1bGU6ZXZlbm9kZDtzdHJva2U6bm9uZSIgZD0ibSAwLDAgYyAtNS4yNzcsLTEwLjE5IC0zLjY1MSwtMjMuMDg1IDQuOTA3LC0zMS41OTYgMTAuNTU2LC0xMC41NjEgMjcuODQ0LC0xMC41NjEgMzguNCwwIGwgMTkuNTcxLDYuNjMyIDguNTg3LDIxLjQ2MyBjIDEwLjU4NCwxMC41MzIgMTAuNTg0LDI3Ljc4MiAwLDM4LjMxNCAtMTAuNTU2LDEwLjUzMiAtMjcuODQ0LDEwLjUzMiAtMzguNCwwIEwgNC45MDcsNi43MTggQyAzLjMxLDUuMTI0IDEuOTY5LDMuNDE2IDAuODU2LDEuNTY2IDAuNjU2LDEuMDI1IDAuMzcxLDAuNTEzIDAsMCIvPjwvZz48ZyB0cmFuc2Zvcm09InRyYW5zbGF0ZSgzNTkuMTU5MiwzMTUuMDI1OSkiIGlkPSJnODIxIj48cGF0aCBpZD0icGF0aDgyMyIgc3R5bGU9ImZpbGw6I2ZmYmM4NTtmaWxsLW9wYWNpdHk6MTtmaWxsLXJ1bGU6ZXZlbm9kZDtzdHJva2U6bm9uZSIgZD0ibSAwLDAgYyA2LjcwNSwtMTAuNDc2IDUuNDc4LC0yNC42MjMgLTMuNjgsLTMzLjc2IGwgLTI4LjE1OCwtMjguMTI0IGMgLTUuOTMzLC01Ljg5MiAtMTMuOTc4LC04LjUxMSAtMjEuNzY2LC03Ljc3MSAxLjAyNiwtMS42MjIgMi4yNTIsLTMuMTU5IDMuNjc5LC00LjU1NCAxMC41NTYsLTEwLjU2MSAyNy44NDQsLTEwLjU2MSAzOC40LDAgbCAyOC4xNTgsMjguMDk1IGMgMTAuNTg0LDEwLjUzMiAxMC41ODQsMjcuNzgyIDAsMzguMzE0IEMgMTIuMDExLC0zLjE2IDYuMTA1LC0wLjU2OSAwLDAiLz48L2c+PGcgdHJhbnNmb3JtPSJ0cmFuc2xhdGUoMzc1Ljc5MiwzMDcuMjI2MSkiIGlkPSJnODI1Ij48cGF0aCBpZD0icGF0aDgyNyIgc3R5bGU9ImZpbGw6bm9uZTtzdHJva2U6IzAwMDAwMDtzdHJva2Utd2lkdGg6MTU7c3Ryb2tlLWxpbmVjYXA6cm91bmQ7c3Ryb2tlLWxpbmVqb2luOnJvdW5kO3N0cm9rZS1taXRlcmxpbWl0OjEwO3N0cm9rZS1kYXNoYXJyYXk6bm9uZTtzdHJva2Utb3BhY2l0eToxIiBkPSJtIDAsMCBjIC0xMC41NTYsMTAuNTMyIC0yNy44NDQsMTAuNTMyIC0zOC4zOTksMCBsIC0yOC4xNTksLTI4LjA5NSBjIC0xMC41ODQsLTEwLjU2MSAtMTAuNTg0LC0yNy43ODIgMCwtMzguMzE0IDEwLjU1NiwtMTAuNTYxIDI3Ljg0NCwtMTAuNTYxIDM4LjQsMCBMIDAsLTM4LjMxNCBDIDEwLjU4NCwtMjcuNzgyIDEwLjU4NCwtMTAuNTMyIDAsMCBaIi8+PC9nPjxnIHRyYW5zZm9ybT0idHJhbnNsYXRlKDMxMi43MTQ4LDI4Mi41NzUyKSIgaWQ9Imc4MjkiPjxwYXRoIGlkPSJwYXRoODMxIiBzdHlsZT0iZmlsbDpub25lO3N0cm9rZTojMDAwMDAwO3N0cm9rZS13aWR0aDoxNTtzdHJva2UtbGluZWNhcDpyb3VuZDtzdHJva2UtbGluZWpvaW46cm91bmQ7c3Ryb2tlLW1pdGVybGltaXQ6MTA7c3Ryb2tlLWRhc2hhcnJheTpub25lO3N0cm9rZS1vcGFjaXR5OjEiIGQ9Im0gMCwwIGMgMC43NzEsNy40ODYgLTExLjYxMSwxOC43ODcgLTI0LjMzNSwzMS40ODMgbCAtNTUuOTQ0LDU1LjgyIGMgLTUuNjQ5LDUuNjM2IC0xNC45NSw1LjYzNiAtMjAuNjI2LC0wLjAyOSBMIC0xNDcuMDk0LDQxLjE4OSBDIC0xNTcuNTkyLDMwLjcxNCAtMTYyLjMsMTUuMzE0IC0xNjEuNDcyLDEuNDggYyAxLjI4NCwtMjEuMTc4IC04LjU4OCwtNDIuNTg0IC0zNy44NTgsLTcxLjc2MSBsIC0zMS43OCwtMzEuNzEgTSAtOTIuNzQ2LDIzLjExNCBjIDAuNDg0LC0wLjUxMiAxOS4zOTksLTE5LjM1NyAxOS44ODQsLTE5Ljg0MSAxNC45NzcsLTE0LjQ2IDQ1LjE4OSwtMjYuOTI3IDY0LjY3NCwtMTMuMDM3Ii8+PC9nPjxnIHRyYW5zZm9ybT0idHJhbnNsYXRlKDIxOS45Njg3LDMwNS42ODkpIiBpZD0iZzgzMyI+PHBhdGggaWQ9InBhdGg4MzUiIHN0eWxlPSJmaWxsOm5vbmU7c3Ryb2tlOiMwMDAwMDA7c3Ryb2tlLXdpZHRoOjE1O3N0cm9rZS1saW5lY2FwOnJvdW5kO3N0cm9rZS1saW5lam9pbjpyb3VuZDtzdHJva2UtbWl0ZXJsaW1pdDoxMDtzdHJva2UtZGFzaGFycmF5Om5vbmU7c3Ryb2tlLW9wYWNpdHk6MSIgZD0iTSAwLDAgQyAxNi42ODgsLTE2LjY1MiAxMi4wNjcsLTQ4LjI0OSAtMTAuMjk5LC03MC41NjUiLz48L2c+PC9nPjwvZz48L2c+PC9zdmc+;fontFamily=Poppins;fontSource=https%3A%2F%2Ffonts.googleapis.com%2Fcss%3Ffamily%3DPoppins;" vertex="1" parent="1">
          <mxGeometry x="770" y="414" width="50.08" height="50" as="geometry" />
        </mxCell>
        <mxCell id="boy779TEuCWVPhwvG-UE-18" value="" style="rounded=0;whiteSpace=wrap;html=1;fillColor=#f5f5f5;fontColor=#333333;strokeColor=#666666;dashed=1;strokeWidth=2;" vertex="1" parent="1">
          <mxGeometry x="1080" y="258.5" width="170" height="160" as="geometry" />
        </mxCell>
        <mxCell id="boy779TEuCWVPhwvG-UE-19" value="" style="shape=image;verticalLabelPosition=bottom;labelBackgroundColor=default;verticalAlign=top;aspect=fixed;imageAspect=0;image=https://documentation.alphavantage.co/FundamentalDataDocs/index_files/image001.png;" vertex="1" parent="1">
          <mxGeometry x="1099.97" y="368.25" width="130.05" height="33" as="geometry" />
        </mxCell>
        <mxCell id="boy779TEuCWVPhwvG-UE-20" value="" style="shape=image;verticalLabelPosition=bottom;labelBackgroundColor=default;verticalAlign=top;aspect=fixed;imageAspect=0;editableCssRules=.*;image=data:image/svg+xml,PHN2ZyB4bWxucz0iaHR0cDovL3d3dy53My5vcmcvMjAwMC9zdmciIGRhdGEtbmFtZT0iTGF5ZXIgMSIgdmlld0JveD0iMS40OTk5OTkwNDYzMjU2ODM2IDEuMzg5OTk5ODY2NDg1NTk1NyAyMSAyMS4xMTAwMDA2MTAzNTE1NjIiIGlkPSJMYXllcl8xIiB3aWR0aD0iMjEiIGhlaWdodD0iMjEuMTEwMDAwNjEwMzUxNTYyIj48cGF0aCB0cmFuc2Zvcm09Im1hdHJpeCgwIDEgLTEgMCAzMS43IDUuNykiIGZpbGw9IiM1N2EwZDciIGQ9Im0xMS41IDE3LjJoM3YxLjVjMCAuODMtLjY3IDEuNS0xLjUgMS41LS44MyAwLTEuNS0uNjctMS41LTEuNXoiLz48cGF0aCBmaWxsPSIjNTdhMGQ3IiBkPSJtMTkgOXYxLjhoLTE0di0xLjhjMC0uNTUuNDUtMSAxLTFoMTJjLjU1IDAgMSAuNDUgMSAxeiIvPjxnIGZpbGw9IiMzNzQ3NGYiPjxwYXRoIGQ9Im0xMC42MyAxMy4xOWMtLjE2LS40OS0uNjItLjgyLTEuMTMtLjgycy0uOTcuMzMtMS4xMy44MmwtLjg0IDIuNTNjLS4wOS4yNi4wNS41NC4zMi42My4yNi4wOS41NC0uMDUuNjMtLjMybC4yMi0uNjZoMS42MWwuMjIuNjZjLjA3LjIxLjI3LjM0LjQ3LjM0LjA1IDAgLjExIDAgLjE2LS4wMy4yNi0uMDkuNC0uMzcuMzItLjYzbC0uODQtMi41M3ptLTEuNjEgMS4xOC4yOS0uODdjLjA1LS4xNi4zMS0uMTYuMzcgMGwuMjkuODd6Ii8+PHBhdGggZD0ibTEzLjUgMTIuMzdoLTFjLS4yOCAwLS41LjIyLS41LjV2M2MwIC4yOC4yMi41LjUuNXMuNS0uMjIuNS0uNXYtLjVoLjVjLjgzIDAgMS41LS42NyAxLjUtMS41cy0uNjctMS41LTEuNS0xLjV6bTAgMmgtLjV2LTFoLjVjLjI4IDAgLjUuMjIuNS41cy0uMjIuNS0uNS41eiIvPjxwYXRoIGQ9Im0xNiAxMi4zN2MtLjI4IDAtLjUuMjItLjUuNXYzYzAgLjI4LjIyLjUuNS41cy41LS4yMi41LS41di0zYzAtLjI4LS4yMi0uNS0uNS0uNXoiLz48cGF0aCBkPSJtMTcuNTYgNC43MmMtLjE3IDAtLjM1IDAtLjUyLjAzLS44NS0yLjAzLTIuODMtMy4zNi01LjA0LTMuMzZzLTQuMTkgMS4zMy01LjA0IDMuMzZjLS4xNy0uMDItLjM0LS4wMy0uNTItLjAzLTIuNzIgMC00Ljk0IDIuMjItNC45NCA0Ljk1IDAgMS45OCAxLjIgMy43NSAzIDQuNTN2Ni44YzAgLjgzLjY3IDEuNSAxLjUgMS41aDEyYy44MyAwIDEuNS0uNjcgMS41LTEuNXYtNi44YzEuOC0uNzggMy0yLjU0IDMtNC41MyAwLTIuNzMtMi4yMi00Ljk1LTQuOTQtNC45NXptLjk0IDE2LjI4YzAgLjI4LS4yMi41LS41LjVoLTEyYy0uMjggMC0uNS0uMjItLjUtLjV2LTEuOGg1LjU3Yy4yMi44NiAxIDEuNSAxLjkzIDEuNWgxLjVjLjI4IDAgLjUtLjIyLjUtLjVoMWMuMjggMCAuNS0uMjIuNS0uNXMtLjIyLS41LS41LS41aC0xdi0xaDFjLjI4IDAgLjUtLjIyLjUtLjVzLS4yMi0uNS0uNS0uNWgtMWMwLS4yOC0uMjItLjUtLjUtLjVoLTEuNWMtLjkzIDAtMS43MS42NC0xLjkzIDEuNWgtNS41N3YtNi45aDEzem0tNi41LTIuM2MwLS41NS40NS0xIDEtMWgxdjJoLTFjLS41NSAwLTEtLjQ1LTEtMXptNi41LTguNGgtMTN2LTEuM2MwLS4yOC4yMi0uNS41LS41aDEyYy4yOCAwIC41LjIyLjUuNXptMSAyLjc5di00LjA5YzAtLjgzLS42Ny0xLjUtMS41LTEuNWgtMTJjLS44MyAwLTEuNS42Ny0xLjUgMS41djQuMDljLTEuMjItLjY5LTItMS45OS0yLTMuNDIgMC0yLjE4IDEuNzctMy45NSAzLjk0LTMuOTUuMjUgMCAuNS4wMy43My4wOC4yNS4wNS41LS4wOS41OC0uMzMuNjEtMS44NCAyLjMyLTMuMDggNC4yNS0zLjA4czMuNjMgMS4yNCA0LjI1IDMuMDhjLjA4LjI0LjMzLjM4LjU4LjMzLjI0LS4wNS40OC0uMDguNzMtLjA4IDIuMTcgMCAzLjk0IDEuNzcgMy45NCAzLjk1IDAgMS40My0uNzggMi43My0yIDMuNDJ6Ii8+PC9nPjxwYXRoIGZpbGw9IiNlZGVmZjAiIGQ9Im03LjEgOC44OGMtLjI5IDAtLjUyLjI0LS41Mi41MnMuMjQuNTMuNTIuNTMuNTMtLjI0LjUzLS41My0uMjQtLjUyLS41My0uNTJ6Ii8+PHBhdGggZmlsbD0iI2VkZWZmMCIgZD0ibTkuMiA4Ljg4Yy0uMjkgMC0uNTMuMjQtLjUzLjUycy4yNC41My41My41My41Mi0uMjQuNTItLjUzLS4yNC0uNTItLjUyLS41MnoiLz48cGF0aCBmaWxsPSIjZWRlZmYwIiBkPSJtMTEuMyA4Ljg4Yy0uMjkgMC0uNTIuMjQtLjUyLjUycy4yNC41My41Mi41My41My0uMjQuNTMtLjUzLS4yNC0uNTItLjUzLS41MnoiLz48L3N2Zz4=;" vertex="1" parent="1">
          <mxGeometry x="1132.5" y="280" width="65" height="65" as="geometry" />
        </mxCell>
        <mxCell id="boy779TEuCWVPhwvG-UE-22" style="edgeStyle=orthogonalEdgeStyle;rounded=0;orthogonalLoop=1;jettySize=auto;html=1;entryX=0;entryY=0.473;entryDx=0;entryDy=0;entryPerimeter=0;startArrow=classic;startFill=1;flowAnimation=1;" edge="1" parent="1" source="boy779TEuCWVPhwvG-UE-2" target="boy779TEuCWVPhwvG-UE-1">
          <mxGeometry relative="1" as="geometry" />
        </mxCell>
        <mxCell id="boy779TEuCWVPhwvG-UE-27" style="edgeStyle=orthogonalEdgeStyle;rounded=0;orthogonalLoop=1;jettySize=auto;html=1;startArrow=classic;startFill=1;flowAnimation=1;" edge="1" parent="1" source="boy779TEuCWVPhwvG-UE-1">
          <mxGeometry relative="1" as="geometry">
            <mxPoint x="1080" y="340" as="targetPoint" />
            <Array as="points">
              <mxPoint x="1080" y="340" />
            </Array>
          </mxGeometry>
        </mxCell>
        <mxCell id="boy779TEuCWVPhwvG-UE-28" value="" style="shape=image;verticalLabelPosition=bottom;labelBackgroundColor=default;verticalAlign=top;aspect=fixed;imageAspect=0;image=https://upload.wikimedia.org/wikipedia/commons/thumb/c/c3/Python-logo-notext.svg/1869px-Python-logo-notext.svg.png;" vertex="1" parent="1">
          <mxGeometry x="184.65" y="265" width="27.35" height="30" as="geometry" />
        </mxCell>
        <mxCell id="boy779TEuCWVPhwvG-UE-34" value="" style="shape=image;verticalLabelPosition=bottom;labelBackgroundColor=default;verticalAlign=top;aspect=fixed;imageAspect=0;editableCssRules=.*;image=data:image/svg+xml,PHN2ZyB4bWxucz0iaHR0cDovL3d3dy53My5vcmcvMjAwMC9zdmciIHZpZXdCb3g9IjEuMjQ0MTQxMTAxODM3MTU4MiAxLjkxMzA4MzQzNDEwNDkxOTQgNjYzLjUxMjg3ODQxNzk2ODggMTA2LjE3MzkxOTY3NzczNDM4IiBoZWlnaHQ9IjEwNi4xNzM5MTk2Nzc3MzQzOCIgd2lkdGg9IjY2My41MTI4Nzg0MTc5Njg4Ij4mI3hhOyAgPGc+JiN4YTsgICAgPHBhdGggZD0iTTYyLjM3MzcgMTA1LjIwN0M1OS41NzgxIDEwOS4wNDcgNTMuODUwOSAxMDkuMDQ3IDUxLjA1NTMgMTA1LjIwN0wyNy43Nzk2IDczLjIzNDRDMjUuMDEwNSA2OS40MzA3IDI2LjcwNzMgNjQuMDMyOSAzMS4xNTQ2IDYyLjQ5NzdMNTQuNDMwMyA1NC40NjI4QzU1LjkxMDIgNTMuOTUxOSA1Ny41MTg3IDUzLjk1MTkgNTguOTk4NyA1NC40NjI4TDgyLjI3NDQgNjIuNDk3N0M4Ni43MjE3IDY0LjAzMyA4OC40MTg0IDY5LjQzMDcgODUuNjQ5NCA3My4yMzQ0TDYyLjM3MzcgMTA1LjIwN1pNNTYuNzE0NSA5OS4zODc5TDc4LjM4NjIgNjkuNjE4N0w1Ni43MTQ1IDYyLjEzNzVMMzUuMDQyOCA2OS42MTg3TDU2LjcxNDUgOTkuMzg3OVoiIGZpbGw9IiNFNzI1NjQiLz4mI3hhOyAgICA8cGF0aCBkPSJNMTEwLjg2IDYxLjc2MjRDMTEzLjY0OCA2NS42MDc5IDExMS44NzggNzEuMDU0NyAxMDcuMzYyIDcyLjUyNjhMNjkuNzYyMSA4NC43ODMzQzY1LjI4ODkgODYuMjQxNCA2MC42Nzk2IDgyLjk1OTcgNjAuNTkzOCA3OC4yNTU2TDYwLjE0NDcgNTMuNjM2MkM2MC4xMTYyIDUyLjA3MDggNjAuNjEzMiA1MC41NDExIDYxLjU1NjQgNDkuMjkxNEw3Ni4zOTA3IDI5LjYzNzlDNzkuMjI1MSAyNS44ODI2IDg0Ljg4MyAyNS45MzY5IDg3LjY0NDggMjkuNzQ1OUwxMTAuODYgNjEuNzYyNFpNMTAzLjU3NyA2NS4zNDY1TDgxLjk2MTcgMzUuNTM2M0w2OC4xNDk3IDUzLjgzNTVMNjguNTY3OCA3Ni43NTgzTDEwMy41NzcgNjUuMzQ2NVoiIGZpbGw9IiNFNzIzQTAiLz4mI3hhOyAgICA8cGF0aCBkPSJNODQuNTMyNiAyLjI1ODc3Qzg5LjA1MTUgMC43OTUyMjcgOTMuNjg0OSA0LjE2MTU5IDkzLjY4OTQgOC45MTE1OEw5My43MjY5IDQ4LjQ1ODlDOTMuNzMxNCA1My4xNjM4IDg5LjE4NTkgNTYuNTMzMyA4NC42ODU2IDU1LjE2MTNMNjEuMTMyMyA0Ny45ODA2QzU5LjYzNDcgNDcuNTI0IDU4LjMzMzQgNDYuNTc4NiA1Ny40MzY0IDQ1LjI5NTRMNDMuMzI4OCAyNS4xMTM5QzQwLjYzMzMgMjEuMjU3NyA0Mi40MzMzIDE1Ljg5MzUgNDYuOTA5MiAxNC40NDM5TDg0LjUzMjYgMi4yNTg3N1pNODUuNjkwNyAxMC4yOTI4TDUwLjY2MDEgMjEuNjM4Mkw2My43OTU1IDQwLjQyOUw4NS43MjU2IDQ3LjExNDhMODUuNjkwNyAxMC4yOTI4WiIgZmlsbD0iI0U1MjBFOSIvPiYjeGE7ICAgIDxwYXRoIGQ9Ik0yOC45MzQ2IDIuMjc1ODZDMjQuNDE1NiAwLjgxMjMxNyAxOS43ODIzIDQuMTc4NjggMTkuNzc3OCA4LjkyODY3TDE5Ljc0MDIgNDguNDc2QzE5LjczNTggNTMuMTgwOSAyNC4yODEyIDU2LjU1MDQgMjguNzgxNiA1NS4xNzg0TDUyLjMzNDggNDcuOTk3N0M1My44MzI0IDQ3LjU0MTEgNTUuMTMzNyA0Ni41OTU3IDU2LjAzMDcgNDUuMzEyNUw3MC4xMzgzIDI1LjEzMDlDNzIuODMzOSAyMS4yNzQ4IDcxLjAzMzkgMTUuOTEwNiA2Ni41NTc5IDE0LjQ2MUwyOC45MzQ2IDIuMjc1ODZaTTI3Ljc3NjUgMTAuMzA5OUw2Mi44MDcxIDIxLjY1NTNMNDkuNjcxNyA0MC40NDYxTDI3Ljc0MTUgNDcuMTMxOUwyNy43NzY1IDEwLjMwOTlaIiBmaWxsPSIjRTUyMEU5Ii8+JiN4YTsgICAgPHBhdGggZD0iTTIuNTgwNjYgNjEuNzU1NUMtMC4yMDc2OCA2NS42MDEgMS41NjIxMyA3MS4wNDc5IDYuMDc4MjUgNzIuNTJMNDMuNjc4NCA4NC43NzY1QzQ4LjE1MTYgODYuMjM0NiA1Mi43NjA4IDgyLjk1MjkgNTIuODQ2NyA3OC4yNDg4TDUzLjI5NTggNTMuNjI5NEM1My4zMjQzIDUyLjA2NCA1Mi44MjczIDUwLjUzNDIgNTEuODg0MSA0OS4yODQ2TDM3LjA0OTggMjkuNjMxQzM0LjIxNTQgMjUuODc1OCAyOC41NTc1IDI1LjkzMDEgMjUuNzk1NiAyOS43MzlMMi41ODA2NiA2MS43NTU1Wk05Ljg2MzYgNjUuMzM5NkwzMS40Nzg4IDM1LjUyOTRMNDUuMjkwOCA1My44Mjg2TDQ0Ljg3MjYgNzYuNzUxNUw5Ljg2MzYgNjUuMzM5NloiIGZpbGw9IiNFNzIzQTAiLz4mI3hhOyAgICA8cGF0aCBkPSJNNzkuNTY4NyA4MS41ODY3TDg1LjY0ODggNzMuMjM0OEM4Ni4xOTkzIDcyLjQ3ODcgODYuNTczMyA3MS42NTk2IDg2Ljc4NDIgNzAuODIwNEw3NC42MjYgNzQuNzgzNkw2Ny4xMDM4IDg1LjExNjRDNjcuOTcwNSA4NS4xNzY3IDY4Ljg2ODkgODUuMDc0NSA2OS43NjE5IDg0Ljc4MzVMNzkuNTY4NyA4MS41ODY3WiIgZmlsbD0iI0ZGOTZEMSIvPiYjeGE7ICAgIDxwYXRoIGQ9Ik02MC4xNjcgNTQuODY2N0w2MC4zMjI0IDYzLjM4MzZMNjguMzc0NCA2Ni4xNjMyTDY4LjIxOSA1Ny42NDYzTDYwLjE2NyA1NC44NjY3WiIgZmlsbD0iI0ZGOTZEMSIvPiYjeGE7ICAgIDxwYXRoIGQ9Ik05My43MTY2IDM4LjEyTDg3LjY0NDYgMjkuNzQ1OUM4Ny4wOTc1IDI4Ljk5MTQgODYuNDM2OCAyOC4zODQyIDg1LjcwNjkgMjcuOTI0OEw4NS43MTkxIDQwLjcxODZMOTMuMjI3OSA1MS4wNzQyQzkzLjU0OTIgNTAuMjcyNiA5My43MjczIDQ5LjM5MTkgOTMuNzI2NCA0OC40NTg3TDkzLjcxNjYgMzguMTJaIiBmaWxsPSIjRkY5NkQxIi8+JiN4YTsgICAgPHBhdGggZD0iTTcwLjQyOTMgNTAuODE0OUw2Mi4yODEyIDQ4LjMzMDhMNjcuNDEzIDQxLjUzMThMNzUuNTYxMSA0NC4wMTU5TDcwLjQyOTMgNTAuODE0OVoiIGZpbGw9IiNGRjk2RDEiLz4mI3hhOyAgICA8cGF0aCBkPSJNNTYuNzM5NSA0NC4yOTgyTDYxLjYxOTkgMzcuMzE2Nkw1Ni43Mzk1IDMwLjMzNDlMNTEuODU5IDM3LjMxNjZMNTYuNzM5NSA0NC4yOTgyWiIgZmlsbD0iI0ZGOTZEMSIvPiYjeGE7ICAgIDxwYXRoIGQ9Ik00NC41NTQ3IDE1Ljc0MzhDNDUuMjIyMiAxNS4xODIzIDQ2LjAxMiAxNC43MzQ0IDQ2LjkwOTIgMTQuNDQzOEw1Ni43MDcxIDExLjI3MDVMNjYuNTU3NyAxNC40NjA4QzY3LjQ0MTggMTQuNzQ3MiA2OC4yMjE1IDE1LjE4NjIgNjguODgyOCAxNS43MzYzTDU2LjcwNzEgMTkuNjc5Nkw0NC41NTQ3IDE1Ljc0MzhaIiBmaWxsPSIjRkY5NkQxIi8+JiN4YTsgICAgPHBhdGggZD0iTTUxLjE3ODcgNDguMzQ5OUw0Ni4wNDY5IDQxLjU1MDlMMzcuODk4OCA0NC4wMzVMNDMuMDMwNiA1MC44MzRMNTEuMTc4NyA0OC4zNDk5WiIgZmlsbD0iI0ZGOTZEMSIvPiYjeGE7ICAgIDxwYXRoIGQ9Ik0yMC4yMjMzIDUxLjA1MjNMMjcuNzQ3NiA0MC42NzUyTDI3Ljc1OTggMjcuOTAxNEMyNy4wMTk0IDI4LjM2MjcgMjYuMzQ5NCAyOC45NzU0IDI1Ljc5NTcgMjkuNzM5TDE5Ljc1MDEgMzguMDc2N0wxOS43NDAyIDQ4LjQ3NTdDMTkuNzM5NCA0OS4zOTM4IDE5LjkxMTggNTAuMjYxMSAyMC4yMjMzIDUxLjA1MjNaIiBmaWxsPSIjRkY5NkQxIi8+JiN4YTsgICAgPHBhdGggZD0iTTUzLjI3MjcgNTQuODYyM0w0NS4yMjA3IDU3LjY0MTlMNDUuMDY1MyA2Ni4xNTg4TDUzLjExNzQgNjMuMzc5Mkw1My4yNzI3IDU0Ljg2MjNaIiBmaWxsPSIjRkY5NkQxIi8+JiN4YTsgICAgPHBhdGggZD0iTTQ2LjMxOTkgODUuMTEwNEwzOC43OTE2IDc0Ljc2OTNMMjYuNjQwNiA3MC44MDg0QzI2Ljg1MTEgNzEuNjUxOCAyNy4yMjYgNzIuNDc0OSAyNy43NzkgNzMuMjM0NkwzMy44NDg4IDgxLjU3MjRMNDMuNjc3OCA4NC43NzYzQzQ0LjU2NTMgODUuMDY1NiA0NS40NTgxIDg1LjE2ODMgNDYuMzE5OSA4NS4xMTA0WiIgZmlsbD0iI0ZGOTZEMSIvPiYjeGE7ICA8L2c+JiN4YTsmI3hhOyAgPGcgdHJhbnNmb3JtPSJ0cmFuc2xhdGUoLTMwLCAwKSI+JiN4YTsgICAgPHBhdGggZD0iTTE2Mi4wOCA4Ni42MzU3VjEzLjM0NTdIMTk1LjA1QzE5OC40MSAxMy4zNDU3IDIwMS40MiAxMy45MDU3IDIwNC4wOCAxNS4wMjU3QzIwNi44MSAxNi4wNzU3IDIwOS4xMiAxNy42MTU3IDIxMS4wMSAxOS42NDU3QzIxMi45IDIxLjYwNTcgMjE0LjMzNSAyMy45ODU3IDIxNS4zMTUgMjYuNzg1N0MyMTYuMjk1IDI5LjU4NTcgMjE2Ljc4NSAzMi42NjU3IDIxNi43ODUgMzYuMDI1N0MyMTYuNzg1IDM5LjQ1NTcgMjE2LjI5NSA0Mi41NzA3IDIxNS4zMTUgNDUuMzcwN0MyMTQuMzM1IDQ4LjEwMDcgMjEyLjkgNTAuNDgwNyAyMTEuMDEgNTIuNTEwN0MyMDkuMTIgNTQuNDcwNyAyMDYuODEgNTYuMDEwNyAyMDQuMDggNTcuMTMwN0MyMDEuNDIgNTguMTgwNyAxOTguNDEgNTguNzA1NyAxOTUuMDUgNTguNzA1N0gxNzUuOTRWODYuNjM1N0gxNjIuMDhaTTE3NS45NCA0Ni43MzU3SDE5My43OUMxOTYuNDUgNDYuNzM1NyAxOTguNTUgNDYuMDM1NyAyMDAuMDkgNDQuNjM1N0MyMDEuNjMgNDMuMTY1NyAyMDIuNCA0MS4xMDA3IDIwMi40IDM4LjQ0MDdWMzMuNjEwN0MyMDIuNCAzMC45NTA3IDIwMS42MyAyOC45MjA3IDIwMC4wOSAyNy41MjA3QzE5OC41NSAyNi4xMjA3IDE5Ni40NSAyNS40MjA3IDE5My43OSAyNS40MjA3SDE3NS45NFY0Ni43MzU3WiIgZmlsbD0id2hpdGUiLz4mI3hhOyAgICA8cGF0aCBkPSJNMjYyLjEwNiAzMS44MjU3SDI3NC43MDZMMjUyLjY1NiA5Ni40MDA3QzI1MS45NTYgOTguMzYwNyAyNTEuMTUxIDEwMC4wNDEgMjUwLjI0MSAxMDEuNDQxQzI0OS40MDEgMTAyLjkxMSAyNDguMzg2IDEwNC4xMDEgMjQ3LjE5NiAxMDUuMDExQzI0Ni4wMDYgMTA1LjkyMSAyNDQuNTcxIDEwNi41ODYgMjQyLjg5MSAxMDcuMDA2QzI0MS4yMTEgMTA3LjQyNiAyMzkuMjUxIDEwNy42MzYgMjM3LjAxMSAxMDcuNjM2SDIyOC45MjZWOTYuOTI1N0gyMzguNzk2TDI0MS4zMTYgODkuMjYwN0wyMjEuNjgxIDMxLjgyNTdIMjM1LjAxNkwyNDQuNTcxIDYwLjgwNTdMMjQ4LjE0MSA3NC42NjU3SDI0OC43NzFMMjUyLjU1MSA2MC44MDU3TDI2Mi4xMDYgMzEuODI1N1oiIGZpbGw9IndoaXRlIi8+JiN4YTsgICAgPHBhdGggZD0iTTMxNi44NzIgNzcuNTAwNUgzMTYuMzQ3QzMxNS4zNjcgODAuNjUwNSAzMTMuNTEyIDgzLjE3MDUgMzEwLjc4MiA4NS4wNjA1QzMwOC4wNTIgODYuOTUwNSAzMDQuODY3IDg3Ljg5NTYgMzAxLjIyNyA4Ny44OTU2QzI5NC4yOTcgODcuODk1NiAyODguOTc3IDg1LjQxMDYgMjg1LjI2NyA4MC40NDA2QzI4MS42MjcgNzUuNDcwNiAyNzkuODA3IDY4LjM2NTUgMjc5LjgwNyA1OS4xMjU1QzI3OS44MDcgNDkuOTU1NSAyODEuNjI3IDQyLjkyMDUgMjg1LjI2NyAzOC4wMjA1QzI4OC45NzcgMzMuMDUwNSAyOTQuMjk3IDMwLjU2NTUgMzAxLjIyNyAzMC41NjU1QzMwNC44NjcgMzAuNTY1NSAzMDguMDUyIDMxLjUxMDUgMzEwLjc4MiAzMy40MDA1QzMxMy41MTIgMzUuMjIwNSAzMTUuMzY3IDM3LjcwNTUgMzE2LjM0NyA0MC44NTU1SDMxNi44NzJWOC45MzU1NUgzMzAuMzEyVjg2LjYzNTVIMzE2Ljg3MlY3Ny41MDA1Wk0zMDUuNTMyIDc2Ljc2NTVDMzA4Ljc1MiA3Ni43NjU1IDMxMS40NDcgNzUuOTk1NiAzMTMuNjE3IDc0LjQ1NTZDMzE1Ljc4NyA3Mi45MTU2IDMxNi44NzIgNzAuNzEwNSAzMTYuODcyIDY3Ljg0MDVWNTAuNDEwNUMzMTYuODcyIDQ3Ljc1MDUgMzE1Ljc4NyA0NS42MTU1IDMxMy42MTcgNDQuMDA1NUMzMTEuNDQ3IDQyLjM5NTUgMzA4Ljc1MiA0MS41OTA1IDMwNS41MzIgNDEuNTkwNUMzMDIuMDMyIDQxLjU5MDUgMjk5LjE5NyA0Mi43ODA1IDI5Ny4wMjcgNDUuMTYwNUMyOTQuOTI3IDQ3LjQ3MDUgMjkzLjg3NyA1MC41ODU1IDI5My44NzcgNTQuNTA1NVY2My45NTU1QzI5My44NzcgNjcuODc1NSAyOTQuOTI3IDcwLjk5MDYgMjk3LjAyNyA3My4zMDA2QzI5OS4xOTcgNzUuNjEwNiAzMDIuMDMyIDc2Ljc2NTUgMzA1LjUzMiA3Ni43NjU1WiIgZmlsbD0id2hpdGUiLz4mI3hhOyAgICA8cGF0aCBkPSJNMzg2LjEzMSA4Ni42MzU0QzM4My4xOTEgODYuNjM1NCAzODAuODQ2IDg1Ljc5NTQgMzc5LjA5NiA4NC4xMTU0QzM3Ny40MTYgODIuMzY1NCAzNzYuMzY2IDgwLjA1NTQgMzc1Ljk0NiA3Ny4xODU0SDM3NS4zMTZDMzc0LjQwNiA4MC43NTU0IDM3Mi41NTEgODMuNDUwNCAzNjkuNzUxIDg1LjI3MDRDMzY2Ljk1MSA4Ny4wMjA0IDM2My40ODYgODcuODk1NCAzNTkuMzU2IDg3Ljg5NTRDMzUzLjc1NiA4Ny44OTU0IDM0OS40NTEgODYuNDI1NCAzNDYuNDQxIDgzLjQ4NTRDMzQzLjQzMSA4MC41NDU0IDM0MS45MjYgNzYuNjI1NCAzNDEuOTI2IDcxLjcyNTRDMzQxLjkyNiA2Ni4wNTU0IDM0My45NTYgNjEuODU1NCAzNDguMDE2IDU5LjEyNTRDMzUyLjA3NiA1Ni4zMjU0IDM1Ny44NTEgNTQuOTI1NCAzNjUuMzQxIDU0LjkyNTRIMzc0LjY4NlY1MC45MzU0QzM3NC42ODYgNDcuODU1NCAzNzMuODgxIDQ1LjQ3NTQgMzcyLjI3MSA0My43OTU0QzM3MC42NjEgNDIuMTE1NCAzNjguMDcxIDQxLjI3NTQgMzY0LjUwMSA0MS4yNzU0QzM2MS4zNTEgNDEuMjc1NCAzNTguNzk2IDQxLjk3NTQgMzU2LjgzNiA0My4zNzU0QzM1NC45NDYgNDQuNzA1NCAzNTMuMzM2IDQ2LjMxNTQgMzUyLjAwNiA0OC4yMDU0TDM0NC4wMjYgNDEuMDY1NEMzNDYuMDU2IDM3LjkxNTQgMzQ4Ljc1MSAzNS4zOTU0IDM1Mi4xMTEgMzMuNTA1NEMzNTUuNDcxIDMxLjU0NTQgMzU5LjkxNiAzMC41NjU0IDM2NS40NDYgMzAuNTY1NEMzNzIuODY2IDMwLjU2NTQgMzc4LjUwMSAzMi4yNDU0IDM4Mi4zNTEgMzUuNjA1NEMzODYuMjAxIDM4Ljk2NTQgMzg4LjEyNiA0My43OTU0IDM4OC4xMjYgNTAuMDk1NFY3NS45MjU0SDM5My41ODZWODYuNjM1NEgzODYuMTMxWk0zNjMuODcxIDc4LjEzMDRDMzY2Ljg4MSA3OC4xMzA0IDM2OS40MzYgNzcuNDY1NCAzNzEuNTM2IDc2LjEzNTRDMzczLjYzNiA3NC44MDU0IDM3NC42ODYgNzIuODQ1NCAzNzQuNjg2IDcwLjI1NTRWNjMuMDEwNEgzNjYuMDc2QzM1OS4wNzYgNjMuMDEwNCAzNTUuNTc2IDY1LjI1MDQgMzU1LjU3NiA2OS43MzA0VjcxLjUxNTRDMzU1LjU3NiA3My43NTU0IDM1Ni4yNzYgNzUuNDM1NCAzNTcuNjc2IDc2LjU1NTRDMzU5LjE0NiA3Ny42MDU0IDM2MS4yMTEgNzguMTMwNCAzNjMuODcxIDc4LjEzMDRaIiBmaWxsPSJ3aGl0ZSIvPiYjeGE7ICAgIDxwYXRoIGQ9Ik00MDQuNDYzIDg2LjYzNTdWMzEuODI1N0g0MTcuOTAzVjQwLjk2MDdINDE4LjQyOEM0MTkuNTQ4IDM4LjAyMDcgNDIxLjI5OCAzNS41NzA3IDQyMy42NzggMzMuNjEwN0M0MjYuMTI4IDMxLjU4MDcgNDI5LjQ4OCAzMC41NjU3IDQzMy43NTggMzAuNTY1N0M0MzkuNDI4IDMwLjU2NTcgNDQzLjc2OCAzMi40MjA3IDQ0Ni43NzggMzYuMTMwN0M0NDkuNzg4IDM5Ljg0MDcgNDUxLjI5MyA0NS4xMjU3IDQ1MS4yOTMgNTEuOTg1N1Y4Ni42MzU3SDQzNy44NTNWNTMuMzUwN0M0MzcuODUzIDQ5LjQzMDcgNDM3LjE1MyA0Ni40OTA3IDQzNS43NTMgNDQuNTMwN0M0MzQuMzUzIDQyLjU3MDcgNDMyLjA0MyA0MS41OTA3IDQyOC44MjMgNDEuNTkwN0M0MjcuNDIzIDQxLjU5MDcgNDI2LjA1OCA0MS44MDA3IDQyNC43MjggNDIuMjIwN0M0MjMuNDY4IDQyLjU3MDcgNDIyLjMxMyA0My4xMzA3IDQyMS4yNjMgNDMuOTAwN0M0MjAuMjgzIDQ0LjYwMDcgNDE5LjQ3OCA0NS41MTA3IDQxOC44NDggNDYuNjMwN0M0MTguMjE4IDQ3LjY4MDcgNDE3LjkwMyA0OC45NDA3IDQxNy45MDMgNTAuNDEwN1Y4Ni42MzU3SDQwNC40NjNaIiBmaWxsPSJ3aGl0ZSIvPiYjeGE7ICAgIDxwYXRoIGQ9Ik00ODMuMzA2IDg2LjYzNTVDNDc4LjY4NiA4Ni42MzU1IDQ3NS4xNTEgODUuNDQ1NiA0NzIuNzAxIDgzLjA2NTZDNDcwLjMyMSA4MC42MTU2IDQ2OS4xMzEgNzcuMTUwNSA0NjkuMTMxIDcyLjY3MDVWNDIuNTM1NUg0NjEuMDQ2VjMxLjgyNTVINDY1LjI0NkM0NjcuMjc2IDMxLjgyNTUgNDY4LjY0MSAzMS4zNzA1IDQ2OS4zNDEgMzAuNDYwNUM0NzAuMTExIDI5LjQ4MDUgNDcwLjQ5NiAyOC4wNDU1IDQ3MC40OTYgMjYuMTU1NVYxNi44MTA1SDQ4Mi41NzFWMzEuODI1NUg0OTMuODA2VjQyLjUzNTVINDgyLjU3MVY3NS45MjU2SDQ5Mi45NjZWODYuNjM1NUg0ODMuMzA2WiIgZmlsbD0id2hpdGUiLz4mI3hhOyAgICA8cGF0aCBkPSJNNTEyLjE4NCAyMy44NDU3QzUwOS4zODQgMjMuODQ1NyA1MDcuMzU0IDIzLjIxNTcgNTA2LjA5NCAyMS45NTU3QzUwNC45MDQgMjAuNjk1NyA1MDQuMzA5IDE5LjA4NTcgNTA0LjMwOSAxNy4xMjU3VjE1LjAyNTdDNTA0LjMwOSAxMy4wNjU3IDUwNC45MDQgMTEuNDU1NyA1MDYuMDk0IDEwLjE5NTdDNTA3LjM1NCA4LjkzNTY2IDUwOS4zODQgOC4zMDU2NiA1MTIuMTg0IDguMzA1NjZDNTE0LjkxNCA4LjMwNTY2IDUxNi45MDkgOC45MzU2NiA1MTguMTY5IDEwLjE5NTdDNTE5LjQyOSAxMS40NTU3IDUyMC4wNTkgMTMuMDY1NyA1MjAuMDU5IDE1LjAyNTdWMTcuMTI1N0M1MjAuMDU5IDE5LjA4NTcgNTE5LjQyOSAyMC42OTU3IDUxOC4xNjkgMjEuOTU1N0M1MTYuOTA5IDIzLjIxNTcgNTE0LjkxNCAyMy44NDU3IDUxMi4xODQgMjMuODQ1N1pNNTA1LjQ2NCAzMS44MjU3SDUxOC45MDRWODYuNjM1N0g1MDUuNDY0VjMxLjgyNTdaIiBmaWxsPSJ3aGl0ZSIvPiYjeGE7ICAgIDxwYXRoIGQ9Ik01NTYuMTEzIDg3Ljg5NTRDNTUyLjA1MyA4Ny44OTU0IDU0OC40NDggODcuMjMwNCA1NDUuMjk4IDg1LjkwMDRDNTQyLjE0OCA4NC41NzA0IDUzOS40ODggODIuNjQ1NCA1MzcuMzE4IDgwLjEyNTRDNTM1LjIxOCA3Ny42MDU0IDUzMy42MDggNzQuNTk1NCA1MzIuNDg4IDcxLjA5NTRDNTMxLjM2OCA2Ny41MjU0IDUzMC44MDggNjMuNTM1NCA1MzAuODA4IDU5LjEyNTRDNTMwLjgwOCA1NC43MTU0IDUzMS4zNjggNTAuNzYwNCA1MzIuNDg4IDQ3LjI2MDRDNTMzLjYwOCA0My43NjA0IDUzNS4yMTggNDAuNzg1NCA1MzcuMzE4IDM4LjMzNTRDNTM5LjQ4OCAzNS44MTU0IDU0Mi4xNDggMzMuODkwNCA1NDUuMjk4IDMyLjU2MDRDNTQ4LjQ0OCAzMS4yMzA0IDU1Mi4wNTMgMzAuNTY1NCA1NTYuMTEzIDMwLjU2NTRDNTYxLjY0MyAzMC41NjU0IDU2Ni4xOTMgMzEuNzkwNCA1NjkuNzYzIDM0LjI0MDRDNTczLjQwMyAzNi42OTA0IDU3Ni4wMjggNDAuMDg1NCA1NzcuNjM4IDQ0LjQyNTRMNTY2LjYxMyA0OS4zNjA0QzU2NS45ODMgNDcuMDUwNCA1NjQuNzkzIDQ1LjE2MDQgNTYzLjA0MyA0My42OTA0QzU2MS4zNjMgNDIuMTUwNCA1NTkuMDUzIDQxLjM4MDQgNTU2LjExMyA0MS4zODA0QzU1Mi4zMzMgNDEuMzgwNCA1NDkuNDk4IDQyLjU3MDQgNTQ3LjYwOCA0NC45NTA0QzU0NS43ODggNDcuMzMwNCA1NDQuODc4IDUwLjQ0NTQgNTQ0Ljg3OCA1NC4yOTU0VjY0LjI3MDRDNTQ0Ljg3OCA2OC4xMjA0IDU0NS43ODggNzEuMjM1NCA1NDcuNjA4IDczLjYxNTRDNTQ5LjQ5OCA3NS45MjU0IDU1Mi4zMzMgNzcuMDgwNCA1NTYuMTEzIDc3LjA4MDRDNTU5LjMzMyA3Ny4wODA0IDU2MS44MTggNzYuMjc1NCA1NjMuNTY4IDc0LjY2NTRDNTY1LjMxOCA3Mi45ODU0IDU2Ni42ODMgNzAuOTIwNCA1NjcuNjYzIDY4LjQ3MDRMNTc3Ljk1MyA3My40MDU0QzU3Ni4xMzMgNzguMjM1NCA1NzMuMzY4IDgxLjg3NTQgNTY5LjY1OCA4NC4zMjU0QzU2NS45NDggODYuNzA1NCA1NjEuNDMzIDg3Ljg5NTQgNTU2LjExMyA4Ny44OTU0WiIgZmlsbD0id2hpdGUiLz4mI3hhOyAgICA8ZyB0cmFuc2Zvcm09InRyYW5zbGF0ZSgtMjAsIDApIj4mI3hhOyAgICAgIDxwYXRoIGQ9Ik02NTkuMzI5IDg2LjYzNTdMNjUzLjQ0OSA2Ny45NDU3SDYyNy40MDlMNjIxLjYzNCA4Ni42MzU3SDYwNy41NjRMNjMyLjEzNCAxMy4zNDU3SDY0OS4zNTRMNjczLjcxNCA4Ni42MzU3SDY1OS4zMjlaTTY0MC42MzkgMjUuOTQ1N0g2NDAuMTE0TDYzMC43NjkgNTYuMDgwN0g2NTAuMDg5TDY0MC42MzkgMjUuOTQ1N1oiIGZpbGw9IndoaXRlIi8+JiN4YTsgICAgICA8cGF0aCBkPSJNNjgxLjQ3MiA4Ni42MzU3Vjc1LjUwNTdINjkxLjEzMlYyNC40NzU3SDY4MS40NzJWMTMuMzQ1N0g3MTQuNzU3VjI0LjQ3NTdINzA0Ljk5MlY3NS41MDU3SDcxNC43NTdWODYuNjM1N0g2ODEuNDcyWiIgZmlsbD0id2hpdGUiLz4mI3hhOyAgICA8L2c+JiN4YTsgIDwvZz4mI3hhOzwvc3ZnPg==;clipPath=inset(0% 80.33% 0% 0%);" vertex="1" parent="1">
          <mxGeometry x="390" y="392" width="30.74" height="25" as="geometry" />
        </mxCell>
      </root>
    </mxGraphModel>
  </diagram>
</mxfile>
